<svg width="177" height="126" viewBox="0 0 177 126" fill="none" xmlns="http://www.w3.org/2000/svg">
<path d="M22.8454 62.4735C22.5835 62.5104 22.3376 62.6213 22.1374 62.7929C18.5337 65.9517 15.9778 69.7598 14.8556 74.4347C13.8998 78.4148 14.5016 82.3317 15.5813 86.1801C16.4309 89.2161 17.4328 92.2134 18.4346 95.2054C20.702 101.972 20.5002 108.827 19.2523 115.723C19.0966 116.578 18.7815 117.405 18.4895 118.422C19.1212 117.932 19.6522 117.326 20.0541 116.638C21.5659 114.268 22.7337 111.7 23.5233 109.008C24.2844 106.375 24.7322 103.725 24.6013 100.979C24.4597 98.0255 23.6101 95.2388 22.672 92.4678C21.3869 88.6755 19.7214 85.0079 18.8859 81.0612C17.7337 75.6333 18.1779 70.4266 20.9781 65.5305C21.5693 64.4916 22.2171 63.4843 22.8401 62.463L22.8614 62.4454L22.8454 62.4735Z" fill="#FEFEFE"/>
<path d="M43.4429 6.24561C42.9774 6.59658 42.496 6.92825 42.0499 7.29853C37.4479 11.1768 33.6265 15.6974 30.7219 20.9549C27.5802 26.6407 25.8828 32.7003 25.858 39.2214C25.835 44.8985 27.051 50.3561 28.6333 55.7524C30.6157 62.5139 33.1964 69.0894 35.2408 75.8246C36.3452 79.4642 37.2993 83.1407 37.6692 86.9382C38.0816 91.164 37.9984 95.4055 37.9382 99.6418C37.8781 103.776 37.3807 107.856 36.2196 111.842C35.5222 114.235 34.6124 116.559 33.7947 118.982C34.7611 118.338 35.3116 117.424 35.9364 116.587C39.1024 112.324 41.5848 107.602 43.296 102.588C45.009 97.6689 45.9666 92.5222 46.1369 87.3208C46.3581 80.6014 44.8979 74.1382 42.9951 67.7645C40.9702 60.9678 38.3577 54.3625 36.1629 47.6203C35.2585 44.8423 34.4407 42.0363 33.938 39.153C33.3115 35.5485 33.4265 31.9422 33.8849 28.3272C34.6087 22.6035 36.5461 17.0965 39.5702 12.1683C40.7968 10.1467 42.1986 8.24792 43.4429 6.24561Z" fill="#FEFEFE"/>
<path d="M46.2661 16.1449L47.2732 15.7658C49.1724 15.0533 51.1265 14.7129 53.1603 14.9463C57.4914 15.4429 60.9111 17.7242 64.0298 20.532C67.6141 23.747 70.4868 27.5515 72.9683 31.6456C73.2834 32.1721 73.5896 32.2792 74.1737 32.1458C77.2836 31.4438 80.3298 30.5383 83.2396 29.238C87.3106 27.4217 91.0471 25.1473 93.9446 21.692C94.4349 21.1094 94.6526 20.6391 93.7941 20.1828C93.4932 20.0266 93.2631 19.7195 93.0118 19.4809C88.9886 15.7483 84.445 12.8492 79.2288 11.0259C75.8941 9.86065 72.4426 9.38858 68.9292 9.13062C63.5077 8.73226 58.2136 9.04814 53.208 11.3839C50.6964 12.5526 48.3795 14.0179 46.2661 16.1449Z" fill="#FEFEFE"/>
<path d="M43.7844 22.0869C44.0057 25.9248 45.0146 29.524 47.0395 32.8004C49.9299 37.4824 54.0628 40.7517 59.0153 43.0962C63.6898 45.3074 68.6104 46.606 73.7434 47.2114C74.6798 47.322 74.8727 46.9534 75.0161 46.1778C75.763 42.1416 74.9701 38.3212 73.3824 34.6167C72.7983 33.2531 72.7664 33.2689 71.338 33.5251C70.9044 33.6023 70.4654 33.655 70.03 33.7217C65.5607 34.4061 61.111 34.4903 56.716 33.2443C52.4539 32.0387 48.8909 29.8118 46.2182 26.2371C45.2482 24.9385 44.5455 23.5153 43.7844 22.0869Z" fill="#FEFEFE"/>
<path d="M68.3503 77.7146C68.0338 75.8411 67.8975 73.942 67.9432 72.0428C67.9697 70.2476 68.2972 69.8843 70.0672 69.6264C71.6938 69.3895 73.1576 68.8683 74.1258 67.4363C74.2869 67.1976 74.5506 66.9537 74.3152 66.6589C74.1081 66.4009 73.8178 66.5869 73.5806 66.6729C72.3832 67.0967 71.1046 67.2461 69.8406 67.1099C67.637 66.9133 65.4687 66.4869 63.2155 66.6168C61.0579 66.7431 59.1711 67.3468 57.5745 68.7226C55.5443 70.4775 55.3018 73.173 56.8754 75.3648C57.679 76.4827 59.0861 76.9319 60.3056 76.4581C61.6898 75.9194 62.8916 74.2154 62.7288 73.0098C62.7022 72.8115 62.7058 72.557 62.4703 72.4938C62.1836 72.4166 62.1783 72.7167 62.0792 72.8729C62.0301 72.9789 61.9882 73.0879 61.9535 73.1993C61.4384 74.2715 60.272 74.7892 58.7958 74.6032C57.7179 74.4663 56.7993 73.7258 56.5993 72.8483C56.3196 71.6041 56.7869 70.6495 58.0153 69.9405C59.245 69.2315 60.6522 68.8823 62.0739 68.9332C63.6439 68.9736 65.1625 69.3316 66.6918 69.6352C67.7538 69.8422 67.8016 69.8545 67.06 70.6705C65.0121 72.9238 64.6174 75.5315 65.0634 78.4376C65.4174 80.7084 65.7714 83.0003 65.2032 85.3185C64.4386 88.4299 61.3712 89.8197 58.633 88.2667C56.3869 86.9926 55.054 82.8265 56.1373 80.4785C56.8453 78.929 58.1692 78.2691 59.5233 78.7833C60.8242 79.2764 61.5429 80.9102 61.1074 82.3826C60.8632 83.2056 60.3428 83.5566 59.4543 83.4881C59.3374 83.4794 59.2224 83.4495 59.1003 83.4408C58.8843 83.425 58.6648 83.4583 58.5834 83.6829C58.4896 83.9462 58.7339 84.0216 58.9003 84.1322C59.3127 84.4059 59.7976 84.4165 60.2614 84.4638C61.5216 84.5937 62.8792 83.9023 63.3093 82.9389C63.578 82.3478 63.6511 81.6876 63.5178 81.0531C63.3846 80.4183 63.052 79.8419 62.5677 79.4063C61.7517 78.6322 60.6982 78.151 59.5746 78.0392C57.109 77.7918 55.0664 78.5499 53.7106 80.647C52.4079 82.6633 52.8115 84.7043 54.0646 86.5837C57.1126 91.1815 64.6846 90.6463 67.5166 85.68C68.4494 84.0479 68.5414 82.2948 68.4299 80.4961C68.3963 79.9696 68.3875 79.4431 68.6653 78.9606C68.9432 78.478 69.345 78.2849 69.8583 78.492C70.2955 78.6675 70.4654 79.0185 70.2672 79.494C70.1893 79.6695 70.0619 79.9012 70.3168 80.0328C70.6123 80.1837 70.7451 79.9205 70.8655 79.7327C71.3504 78.9676 71.7982 78.1796 72.3009 77.425C72.6726 76.867 72.4992 76.5845 71.9151 76.3984C70.4955 75.9404 69.384 76.3932 68.3503 77.7146Z" fill="#FEFEFE"/>
<path d="M122.859 75.1946C123.103 75.2262 123.229 75.0349 123.373 74.9033C123.714 74.5892 124.006 74.2137 124.371 73.9311C124.944 73.4854 124.852 73.1783 124.348 72.7027C122.859 71.3199 122.88 71.2988 121.426 72.7466C121.249 72.9221 120.987 73.066 121.004 73.3731C121.017 73.5889 122.65 75.1736 122.859 75.1946Z" fill="#FEFEFE"/>
<path d="M23.2396 61.9365L23.1782 61.9944L23.2255 62.0067L23.2396 61.9365Z" fill="#FEFEFE"/>
<path d="M43.4429 6.24561C42.2039 8.24441 40.7967 10.1467 39.5701 12.1666C36.5461 17.0947 34.6086 22.6017 33.8849 28.3254C33.4264 31.9405 33.3114 35.5467 33.938 39.1512C34.4407 42.0345 35.2584 44.8405 36.1629 47.6185C38.3577 54.3607 40.9702 60.9661 42.9951 67.7627C44.8925 74.1364 46.3581 80.5996 46.1368 87.319C45.9665 92.5205 45.009 97.6672 43.296 102.586C41.5838 107.603 39.0995 112.328 35.931 116.592C35.3062 117.429 34.7557 118.347 33.7893 118.988C34.607 116.564 35.5168 114.249 36.2142 111.847C37.3753 107.862 37.8727 103.775 37.9329 99.647C37.993 95.4108 38.0762 91.1692 37.6638 86.9435C37.2939 83.146 36.3399 79.4695 35.2354 75.8299C33.191 69.0877 30.6104 62.5192 28.628 55.7576C27.0456 50.3614 25.8296 44.9037 25.8526 39.2267C25.8774 32.7056 27.5748 26.646 30.7166 20.9602C33.6211 15.6956 37.4426 11.1821 42.0446 7.30379C42.4959 6.92825 42.9774 6.59834 43.4429 6.24561Z" fill="url(#paint0_linear_138_94)"/>
<path d="M46.2661 16.1449C48.3795 14.0232 50.6911 12.5579 53.208 11.3856C58.2136 9.04991 63.5077 8.73403 68.9292 9.13239C72.4426 9.39035 75.8941 9.86242 79.2288 11.0277C84.445 12.851 88.9886 15.75 93.0118 19.4826C93.2702 19.723 93.4932 20.0301 93.7941 20.1846C94.6597 20.6356 94.4349 21.1111 93.9446 21.6938C91.0471 25.1474 87.3018 27.4217 83.2396 29.2397C80.3298 30.5401 77.2836 31.4386 74.1737 32.1475C73.5896 32.2809 73.2887 32.1704 72.9683 31.6474C70.4903 27.5498 67.6141 23.7505 64.0298 20.5338C60.9111 17.7365 57.4914 15.4447 53.1603 14.9463C51.1265 14.7094 49.1724 15.0533 47.2732 15.7658L46.2661 16.1449Z" fill="url(#paint1_linear_138_94)"/>
<path d="M122.872 77.4285C123.07 77.955 122.976 78.4815 122.978 79.0079C122.99 81.2314 122.978 83.453 122.992 85.6765C122.992 86.1275 122.873 86.6996 123.388 86.9259C123.904 87.1523 124.243 86.6469 124.558 86.3293C127.283 83.5764 129.997 80.816 132.7 78.048C133.502 77.232 134.095 77.2776 134.747 78.2235C135.071 78.7156 135.233 79.2961 135.209 79.8836C135.193 81.7262 135.196 83.5689 135.209 85.4097C135.209 85.6835 135.086 86.0608 135.447 86.1731C135.745 86.2679 135.879 85.9414 136.046 85.7431C138.131 83.2758 140.234 80.8295 142.29 78.3341C142.821 77.6848 143.437 77.3812 144.211 77.6514C144.984 77.9217 145.124 78.6131 145.115 79.3765C145.09 81.5683 145.115 83.7636 145.115 85.9537C145.115 86.3223 145.03 86.7504 145.503 86.9294C145.975 87.1084 146.211 86.754 146.475 86.4907C148.796 84.1673 151.113 81.8356 153.425 79.4958C155.174 77.7199 157.254 77.2145 159.569 78.0673C161.999 78.9711 163.323 80.8049 163.523 83.3864C163.569 83.99 163.523 84.599 163.523 85.2658C164.054 85.1009 164.304 84.6428 164.663 84.3287C164.789 84.2182 164.932 84.0339 165.109 84.1673C165.286 84.3006 165.224 84.4902 165.155 84.6569C165.107 84.7629 165.042 84.8608 164.962 84.9464C163.822 86.2099 162.67 87.4699 161.351 88.5492C159.365 90.1777 157.125 90.5322 154.856 89.2511C152.638 88.0052 151.51 86.0309 151.613 83.4478C151.625 83.16 151.662 82.8722 151.689 82.5703C151.372 82.4703 151.254 82.6967 151.093 82.8441C148.91 84.8464 146.83 86.9523 144.774 89.0809C144.618 89.2557 144.447 89.4166 144.262 89.5618C143.448 90.1479 142.77 89.8952 142.589 88.9195C142.524 88.4862 142.495 88.0483 142.501 87.6103C142.457 85.2728 142.597 82.9336 142.427 80.5908C142.409 80.3399 142.513 80.0152 142.216 79.8889C141.88 79.7432 141.685 80.0152 141.494 80.2399C139.52 82.5796 137.543 84.9196 135.563 87.2594C134.901 88.042 134.256 88.8387 133.585 89.6144C133.408 89.8197 133.249 90.1689 132.877 90.0092C132.548 89.8636 132.605 89.5196 132.605 89.2336C132.605 86.5153 132.623 83.7935 132.605 81.0769C132.605 80.6014 132.824 79.9328 132.313 79.7064C131.75 79.4589 131.499 80.1556 131.171 80.4838C128.516 83.1301 125.9 85.7993 123.265 88.4597C122.854 88.8738 122.475 89.3266 121.962 89.6355C121.296 90.0373 120.868 89.911 120.569 89.2055C120.423 88.8212 120.358 88.4116 120.378 88.0017C120.385 86.042 120.385 84.083 120.378 82.1246V80.9401L120.156 80.8646L117.586 83.3214C115.765 85.064 113.995 86.8645 112.099 88.5316C110.009 90.3725 107.435 90.3093 105.69 88.4404C104.526 87.1909 104.166 85.6326 104.34 83.9619C104.366 83.7075 104.499 83.4565 104.34 83.1266C103.433 84.0146 102.57 84.9043 101.655 85.7467C100.35 86.9575 99.2687 88.4035 97.7093 89.3477C95.5605 90.648 93.0064 90.2251 91.4506 88.2754C91.263 88.0438 91.2382 87.8806 91.4506 87.6805C91.8364 87.319 92.2135 86.9505 92.6046 86.5943C92.8807 86.3433 93.0684 86.3416 93.2701 86.7311C93.5167 87.2623 93.8404 87.7549 94.2313 88.193C95.3287 89.3231 97.0225 89.3248 98.32 88.2684C99.4244 87.3699 99.6174 85.7467 98.8102 84.4586C97.8244 82.8792 96.3199 81.8263 94.98 80.6066C94.5976 80.2557 94.3675 80.5206 94.095 80.7821C91.4812 83.4355 88.8623 86.0853 86.2379 88.7317C85.9611 89.0346 85.6591 89.3141 85.3352 89.567C84.6184 90.083 83.9794 89.8355 83.7422 88.9809C83.5652 88.379 83.6236 87.763 83.6166 87.1506C83.6166 86.8382 83.6166 86.5276 83.6166 86.0713C82.8785 86.7873 82.2448 87.3699 81.6448 87.9859C79.8996 89.7741 77.988 90.3023 76.2764 89.4477C75.2597 88.9323 74.4329 88.1122 73.9136 87.1039C73.3945 86.0957 73.2091 84.9508 73.3842 83.8321C73.4143 83.6355 73.4515 83.4408 73.5028 83.1494C72.6567 83.3741 72.3647 84.2024 71.6266 84.4954C71.3841 84.0023 71.7133 83.7022 71.9806 83.4425C73.5187 81.9561 74.8993 80.3083 76.5826 78.9781C77.9225 77.9252 79.4022 77.3847 81.0996 78.0884C82.3121 78.5903 83.2396 80.1416 83.1334 81.4226C83.1086 81.7438 82.0253 83.0915 81.751 83.16C81.6938 83.1751 81.6333 83.1716 81.5782 83.15C81.523 83.1286 81.4763 83.0903 81.4448 83.0406C81.3881 82.9736 81.3588 82.8881 81.3625 82.8009C81.366 82.7135 81.4023 82.6307 81.4642 82.5686C81.712 82.2422 82.2961 82.0842 82.0961 81.5157C81.8597 80.7795 81.3446 80.163 80.6589 79.7959C78.4393 78.6657 75.6002 79.0939 75.2002 82.3562C74.8816 84.9499 76.3171 87.2032 78.6977 87.6595C79.5385 87.8192 80.3615 87.7507 81.0837 87.2822C82.5864 86.3065 83.9741 85.2746 83.6396 83.1301C83.4962 82.2158 83.6891 81.2542 83.5882 80.3223C83.4874 79.3905 83.9422 78.8272 84.6343 78.3727C85.1335 78.048 85.5795 77.2355 86.1158 77.4952C86.576 77.7146 86.2627 78.571 86.268 79.1413C86.2893 81.3928 86.268 83.6443 86.284 85.8958C86.284 86.2573 86.1424 86.6996 86.5778 86.9189C87.0769 87.1734 87.3442 86.7329 87.6115 86.4626C90.5615 83.4829 93.5043 80.4943 96.4402 77.497C96.6048 77.3215 96.7747 77.1653 96.9429 77.0021C97.111 76.8389 97.2757 76.7459 97.4739 76.9425C97.635 77.1039 97.5288 77.2443 97.4491 77.411C96.8969 78.5482 96.8951 78.8149 97.8403 79.5695C99.7873 81.1489 100.835 83.0599 100.437 85.608C100.437 85.6466 100.492 85.6958 100.577 85.8186C101.393 85.1921 102.039 84.4147 102.733 83.6812C104.248 82.0895 105.69 80.4241 107.448 79.0781C109.405 77.5777 111.558 77.1267 113.937 77.9182C114.769 78.1954 114.799 78.3077 114.14 78.9114C114.053 78.9904 113.963 79.0588 113.876 79.1448C113.039 80.0924 112.314 80.3364 111 79.5853C108.788 78.32 106.419 79.8046 106.149 82.3562C105.892 85.1114 107.262 87.2032 109.662 87.6911C110.255 87.8221 110.871 87.8078 111.458 87.6489C112.044 87.4903 112.582 87.1921 113.025 86.7803C115.554 84.5463 117.937 82.1562 120.351 79.8011C121.171 79.0079 122.01 78.2393 122.872 77.4285ZM155.988 78.9255C154.818 78.9062 153.953 79.5326 153.537 80.6803C153.145 81.7633 153.175 82.9522 153.62 84.0146C154.592 86.4451 156.07 88.3404 158.912 88.7054C160.089 88.8563 160.958 88.3544 161.497 87.3173C162.19 85.973 161.923 84.6657 161.463 83.3372C160.585 80.8172 158.311 78.9693 155.988 78.9255Z" fill="#E72379"/>
<path d="M43.7844 22.0869C44.5455 23.5083 45.2482 24.9385 46.2182 26.2371C48.8909 29.8118 52.4539 32.0387 56.716 33.2443C61.111 34.4903 65.566 34.4061 70.03 33.7217C70.4654 33.655 70.9044 33.6023 71.338 33.5251C72.7664 33.2689 72.7983 33.2531 73.3824 34.6167C74.9754 38.3212 75.763 42.1381 75.0161 46.1778C74.8727 46.9534 74.6798 47.322 73.7434 47.2114C68.6104 46.6077 63.6898 45.3074 59.0153 43.0962C54.0593 40.7517 49.9299 37.4806 47.0395 32.8004C45.0146 29.524 44.0057 25.9248 43.7844 22.0869Z" fill="url(#paint2_linear_138_94)"/>
<path d="M22.8331 62.4735C22.2118 63.4931 21.5622 64.5004 20.9711 65.5393C18.1851 70.4354 17.7337 75.6351 18.886 81.0752C19.7214 85.0166 21.387 88.6843 22.672 92.4819C23.6101 95.2528 24.4597 98.0396 24.6013 100.993C24.7323 103.739 24.2845 106.398 23.5234 109.022C22.7338 111.714 21.566 114.282 20.0542 116.652C19.6522 117.34 19.1212 117.946 18.4895 118.436C18.7816 117.419 19.0966 116.592 19.2524 115.737C20.4914 108.841 20.702 101.986 18.4346 95.2195C17.4328 92.2362 16.431 89.2301 15.5814 86.1942C14.5035 82.3457 13.8999 78.4288 14.8557 74.4488C15.9779 69.7738 18.5338 65.9657 22.1375 62.8069C22.3377 62.6353 22.5835 62.5244 22.8455 62.4875L22.8331 62.4735Z" fill="url(#paint3_linear_138_94)"/>
<path d="M68.3504 77.7146C69.3787 76.3932 70.4956 75.9404 71.9169 76.3932C72.501 76.5792 72.6745 76.8617 72.3028 77.4198C71.8001 78.1744 71.3523 78.9623 70.8673 79.7275C70.747 79.9152 70.6142 80.1785 70.3186 80.0275C70.0637 79.8959 70.1912 79.6766 70.2691 79.4888C70.4673 79.0167 70.2974 78.664 69.8602 78.4868C69.3469 78.2797 68.9345 78.5008 68.6672 78.9553C68.3999 79.4098 68.3982 79.9573 68.4318 80.4908C68.5433 82.2896 68.4513 84.0427 67.5185 85.6747C64.6865 90.641 57.1144 91.1762 54.0665 86.5785C52.8275 84.699 52.4168 82.6581 53.7125 80.6417C55.0683 78.5447 57.1109 77.7866 59.5765 78.034C60.7001 78.1458 61.7536 78.627 62.5696 79.401C63.0538 79.8366 63.3864 80.4131 63.5197 81.0478C63.6528 81.6824 63.5799 82.3426 63.3112 82.9336C62.8811 83.897 61.5235 84.5885 60.2632 84.4586C59.7995 84.4112 59.3145 84.4007 58.9021 84.1269C58.7357 84.0164 58.4915 83.9409 58.5853 83.6777C58.6667 83.453 58.8862 83.4197 59.1021 83.4355C59.2207 83.4355 59.3358 83.4741 59.4561 83.4829C60.3411 83.5513 60.8721 83.2003 61.1093 82.3773C61.5447 80.905 60.8261 79.2712 59.5252 78.7781C58.1711 78.2639 56.8542 78.9237 56.1392 80.4733C55.0559 82.8266 56.3887 86.9874 58.6348 88.2614C61.373 89.8145 64.4405 88.4246 65.2051 85.3132C65.7715 83.002 65.4157 80.7032 65.0653 78.4324C64.6192 75.5263 65.0139 72.9185 67.0618 70.6653C67.8034 69.8493 67.7486 69.837 66.6937 69.6299C65.1644 69.3316 63.6457 68.9736 62.0757 68.928C60.6541 68.8771 59.2469 69.2263 58.0171 69.9352C56.7781 70.6372 56.3161 71.5989 56.6011 72.8431C56.8011 73.7205 57.7198 74.4663 58.7977 74.598C60.2739 74.7857 61.4403 74.268 61.9554 73.1941C61.9901 73.0826 62.032 72.9736 62.081 72.8676C62.1802 72.7115 62.1855 72.4114 62.4722 72.4886C62.7076 72.5518 62.7041 72.8062 62.7306 73.0045C62.8935 74.2101 61.6916 75.9141 60.3075 76.4529C59.088 76.9267 57.6808 76.4774 56.8772 75.3596C55.3037 73.1677 55.5462 70.4775 57.5764 68.7174C59.1694 67.3345 61.0598 66.7308 63.2174 66.6115C65.4706 66.4817 67.6424 66.9081 69.8425 67.1046C71.1064 67.2408 72.3851 67.0915 73.5825 66.6677C73.8197 66.5817 74.1135 66.3957 74.317 66.6536C74.5525 66.9485 74.2887 67.1924 74.1277 67.431C73.1595 68.863 71.6957 69.3842 70.069 69.6211C68.299 69.8791 67.9716 70.2424 67.945 72.0376C67.8985 73.9383 68.0343 75.8392 68.3504 77.7146Z" fill="#E72379"/>
<path d="M122.859 75.1929C122.65 75.1736 121.017 73.5889 121.004 73.3801C120.987 73.073 121.243 72.9361 121.426 72.7536C122.88 71.3041 122.859 71.3269 124.348 72.7097C124.852 73.1783 124.944 73.4854 124.371 73.9381C124.006 74.2136 123.723 74.5822 123.369 74.9033C123.229 75.0349 123.104 75.2262 122.859 75.1929Z" fill="#E72379"/>
<path d="M23.2396 61.9365L23.2255 62.0067L23.1782 61.9944L23.2396 61.9365Z" fill="#2594CF"/>
<path d="M22.8454 62.4773L22.8615 62.4542L22.8401 62.4737L22.8454 62.4773Z" fill="#2594CF"/>
<path d="M158.258 71.0531C158.19 71.0531 158.137 71.0338 158.098 70.9952C158.059 70.9531 158.04 70.897 158.04 70.8268V67.6785H156.845C156.781 67.6785 156.732 67.661 156.696 67.6259C156.661 67.5908 156.643 67.5451 156.643 67.489C156.643 67.4293 156.661 67.3837 156.696 67.3521C156.732 67.3205 156.781 67.3047 156.845 67.3047H159.675C159.739 67.3047 159.789 67.3205 159.824 67.3521C159.859 67.3837 159.877 67.4293 159.877 67.489C159.877 67.5487 159.859 67.596 159.824 67.6311C159.789 67.6627 159.739 67.6785 159.675 67.6785H158.481V70.8268C158.481 70.897 158.461 70.9531 158.422 70.9952C158.387 71.0338 158.332 71.0531 158.258 71.0531ZM160.528 71.0531C160.464 71.0531 160.415 71.0356 160.379 71.0005C160.344 70.9619 160.326 70.9092 160.326 70.8426V67.4785C160.326 67.4083 160.344 67.3556 160.379 67.3205C160.415 67.2854 160.464 67.2679 160.528 67.2679C160.585 67.2679 160.629 67.2802 160.661 67.3047C160.696 67.3258 160.728 67.3626 160.756 67.4153L162.211 70.1318H162.052L163.502 67.4153C163.53 67.3626 163.56 67.3258 163.592 67.3047C163.624 67.2802 163.67 67.2679 163.73 67.2679C163.79 67.2679 163.838 67.2854 163.873 67.3205C163.909 67.3556 163.926 67.4083 163.926 67.4785V70.8426C163.926 70.9092 163.909 70.9619 163.873 71.0005C163.841 71.0356 163.792 71.0531 163.725 71.0531C163.661 71.0531 163.611 71.0356 163.576 71.0005C163.54 70.9619 163.523 70.9092 163.523 70.8426V67.8838H163.65L162.323 70.353C162.298 70.3986 162.271 70.4319 162.243 70.453C162.218 70.4705 162.181 70.4793 162.132 70.4793C162.082 70.4793 162.043 70.4688 162.015 70.4477C161.986 70.4267 161.962 70.3951 161.94 70.353L160.597 67.8786H160.724V70.8426C160.724 70.9092 160.707 70.9619 160.671 71.0005C160.639 71.0356 160.592 71.0531 160.528 71.0531Z" fill="#231F20"/>
<defs>
<linearGradient id="paint0_linear_138_94" x1="36.0089" y1="118.988" x2="36.0089" y2="6.24561" gradientUnits="userSpaceOnUse">
<stop offset="0.16" stop-color="#EB6F98"/>
<stop offset="0.33" stop-color="#EA6795"/>
<stop offset="0.61" stop-color="#E7538D"/>
<stop offset="0.93" stop-color="#E23180"/>
<stop offset="1" stop-color="#E1297D"/>
</linearGradient>
<linearGradient id="paint1_linear_138_94" x1="70.3222" y1="8.98147" x2="70.3222" y2="32.1932" gradientUnits="userSpaceOnUse">
<stop stop-color="#EB6F98"/>
<stop offset="1" stop-color="#E1297D"/>
</linearGradient>
<linearGradient id="paint2_linear_138_94" x1="59.541" y1="47.2307" x2="59.541" y2="22.0869" gradientUnits="userSpaceOnUse">
<stop stop-color="#18AADD"/>
<stop offset="0.74" stop-color="#2685C3"/>
</linearGradient>
<linearGradient id="paint3_linear_138_94" x1="19.502" y1="118.426" x2="19.502" y2="62.4735" gradientUnits="userSpaceOnUse">
<stop offset="0.39" stop-color="#18AADD"/>
<stop offset="0.92" stop-color="#247BB4"/>
</linearGradient>
</defs>
</svg>
