<svg width="261" height="89" viewBox="0 0 261 89" fill="none" xmlns="http://www.w3.org/2000/svg">
<path d="M54.4685 68.129L61.204 74.6431L48.936 86.3306V73.4955L54.4685 68.129Z" fill="#4EBF83"/>
<path d="M77.3593 68.5575L73.5831 62.7766L85.685 50.8264L49.4205 14.6445L13.0173 50.5359L48.9364 86.3306L49.2269 73.5091L26.2397 50.4944L49.3514 28.1436L72.3936 50.4944L65.824 57.0364L77.3593 68.5575Z" fill="#4D5255"/>
<path d="M73.085 35.5432L66.3213 29.0703L78.5206 17.314L78.6033 30.1491L73.085 35.5432Z" fill="#4D5255"/>
<path d="M50.2084 35.2527L53.9982 41.0064L41.9792 53.0256L78.4518 89L114.647 52.9011L78.5209 17.314L78.3131 30.1491L101.425 53.0256L78.4377 75.5008L55.2709 53.2883L61.7992 46.7048L50.2084 35.2527Z" fill="#4EBF83"/>
<mask id="mask0_138_56" style="mask-type:luminance" maskUnits="userSpaceOnUse" x="0" y="0" width="261" height="89">
<path d="M260.348 0H0V88.681H260.348V0Z" fill="white"/>
</mask>
<g mask="url(#mask0_138_56)">
<path d="M132.798 53.3622H129.506C129.41 53.3622 129.368 53.3622 129.368 53.2376V36.1428C129.368 36.1428 129.368 36.046 129.479 36.046H135.163C136.706 35.9595 138.225 36.4528 139.423 37.4291C139.946 37.9071 140.357 38.4945 140.627 39.1499C140.897 39.8048 141.02 40.5113 140.986 41.2189C141.004 42.2435 140.736 43.253 140.214 44.1346C139.691 45.0163 138.934 45.7353 138.026 46.2117C137.147 46.6838 136.162 46.9264 135.163 46.9171H132.937V53.1827C132.937 53.3208 132.895 53.3622 132.798 53.3622ZM135.163 38.9922H132.937V43.9296H135.163C135.472 43.9268 135.776 43.8572 136.056 43.7262C136.335 43.5945 136.582 43.4047 136.782 43.1687C137.255 42.6215 137.502 41.9145 137.473 41.1911C137.483 40.8958 137.432 40.601 137.325 40.3252C137.218 40.05 137.057 39.7988 136.851 39.5867C136.625 39.3767 136.359 39.2157 136.069 39.1135C135.779 39.0112 135.47 38.9699 135.163 38.9922Z" fill="#4EBF83"/>
<path d="M147.376 53.3621H144.444C144.292 53.3621 144.209 53.3621 144.209 53.1962V36.2395C144.209 36.1014 144.292 36.0459 144.444 36.0459H147.086L152.024 45.8521L151.885 36.2395C151.885 36.1014 151.968 36.0459 152.148 36.0459H155.052C155.163 36.0459 155.218 36.0459 155.218 36.2395V53.2103C155.218 53.3071 155.218 53.3621 155.08 53.3621H152.508L147.432 44.1922L147.639 53.1271C147.639 53.293 147.556 53.3621 147.376 53.3621Z" fill="#4EBF83"/>
<path d="M163.863 53.2931H158.621C158.524 53.2931 158.469 53.2931 158.469 53.1685V36.0595C158.469 36.0595 158.469 35.9627 158.593 35.9627H164.057C165.075 35.9192 166.089 36.1335 167.003 36.5855C167.852 37.0032 168.584 37.6259 169.133 38.3972C169.65 39.1292 169.925 40.0043 169.921 40.9007V48.0511C169.925 48.9904 169.64 49.9074 169.105 50.6792C168.538 51.477 167.782 52.1232 166.906 52.5599C165.961 53.0336 164.92 53.2844 163.863 53.2931ZM162.992 38.9922H160.945V50.2642H162.757C163.427 50.2821 164.08 50.0559 164.596 49.6278C164.825 49.4402 165.01 49.2036 165.136 48.9355C165.263 48.6679 165.329 48.3753 165.329 48.0788V40.942C165.328 40.6755 165.266 40.4123 165.149 40.1729C165.031 39.9336 164.861 39.7237 164.651 39.5589C164.191 39.1657 163.597 38.9628 162.992 38.9922Z" fill="#4EBF83"/>
<path d="M179.686 53.8049C178.846 53.8001 178.023 53.5656 177.307 53.1273C176.575 52.6742 175.967 52.0471 175.536 51.3014C175.104 50.5433 174.88 49.6845 174.886 48.8121V47.6639C174.886 47.5813 174.886 47.5258 174.997 47.5258H177.763C177.763 47.5258 177.86 47.5258 177.86 47.6639V48.8121C177.855 49.3255 178.048 49.821 178.399 50.1952C178.561 50.3845 178.763 50.5357 178.991 50.6384C179.217 50.7412 179.464 50.7929 179.713 50.7896C179.975 50.7989 180.235 50.7489 180.474 50.6433C180.714 50.5378 180.926 50.3801 181.096 50.181C181.447 49.8063 181.64 49.3114 181.636 48.7979C181.606 48.4482 181.478 48.1143 181.268 47.8331C181.058 47.5519 180.773 47.3354 180.446 47.2076L179.948 46.9031L179.216 46.5022L178.386 46.0459L177.611 45.6032C176.761 45.1354 176.058 44.4409 175.578 43.5979C175.119 42.7494 174.89 41.7954 174.914 40.8317C174.905 39.9441 175.144 39.0722 175.606 38.314C176.028 37.6266 176.612 37.0522 177.307 36.6405C178.027 36.2021 178.856 35.9721 179.7 35.977C180.556 35.9699 181.399 36.2 182.134 36.6405C182.86 37.0767 183.468 37.6848 183.904 38.4108C184.35 39.1641 184.58 40.0256 184.568 40.9007V42.9338C184.571 42.9468 184.57 42.961 184.566 42.9735C184.562 42.9865 184.554 42.998 184.545 43.0078C184.535 43.0175 184.524 43.0246 184.511 43.0284C184.498 43.0322 184.484 43.0333 184.471 43.0306H181.705C181.692 43.0333 181.678 43.0322 181.665 43.0284C181.652 43.0246 181.641 43.0175 181.631 43.0078C181.622 42.998 181.615 42.9865 181.61 42.9735C181.607 42.961 181.606 42.9468 181.608 42.9338V40.9007C181.613 40.6451 181.566 40.3911 181.471 40.1535C181.376 39.9158 181.235 39.6999 181.055 39.5176C180.888 39.3376 180.686 39.1946 180.461 39.0967C180.236 38.9982 179.993 38.9477 179.748 38.9477C179.503 38.9477 179.26 38.9982 179.035 39.0967C178.81 39.1946 178.608 39.3376 178.441 39.5176C178.09 39.8918 177.896 40.3873 177.902 40.9007C177.876 41.3859 177.997 41.8678 178.248 42.2838C178.572 42.7342 179.005 43.0953 179.506 43.3352L179.962 43.5701L180.751 43.9987L181.525 44.4278L181.954 44.6487C182.723 45.0685 183.393 45.6483 183.918 46.3499C184.417 47.082 184.669 47.9544 184.637 48.8398C184.649 49.7307 184.424 50.6085 183.987 51.3847C183.538 52.1178 182.904 52.7188 182.148 53.1273C181.405 53.5743 180.553 53.8093 179.686 53.8049Z" fill="#82646C"/>
<path d="M196.006 53.5557H187.97C187.901 53.5557 187.859 53.5557 187.859 53.4312V36.3228C187.859 36.2967 187.87 36.2722 187.888 36.2542C187.906 36.2357 187.931 36.226 187.956 36.226H195.964C195.964 36.226 196.061 36.226 196.061 36.35V39.1162C196.061 39.1423 196.051 39.1667 196.033 39.1847C196.015 39.2032 195.99 39.213 195.964 39.213H190.847V43.0996H195.964C195.978 43.0974 195.992 43.0979 196.005 43.1017C196.017 43.1061 196.029 43.1132 196.038 43.1224C196.048 43.1322 196.055 43.1436 196.059 43.1567C196.063 43.1697 196.064 43.1833 196.061 43.1964V45.9626C196.064 45.9762 196.063 45.9898 196.059 46.0023C196.055 46.0153 196.048 46.0273 196.038 46.0365C196.029 46.0463 196.017 46.0534 196.005 46.0572C195.992 46.061 195.978 46.0621 195.964 46.0594H190.875V50.4023H196.006C196.006 50.4023 196.103 50.4023 196.103 50.5269V53.3763C196.103 53.528 196.075 53.5557 196.006 53.5557Z" fill="#82646C"/>
<path d="M202.922 53.5558H200.156C200.156 53.5558 200.059 53.5558 200.059 53.4313V36.3228C200.056 36.3092 200.057 36.2956 200.061 36.2826C200.065 36.2701 200.072 36.2581 200.082 36.2489C200.091 36.2391 200.103 36.232 200.115 36.2282C200.129 36.2239 200.142 36.2233 200.156 36.226H205.176C206.051 36.2173 206.911 36.4468 207.666 36.8896C208.403 37.3154 209.02 37.9197 209.464 38.6463C209.921 39.4001 210.156 40.2682 210.141 41.1498C210.147 41.7149 210.053 42.2762 209.865 42.8092C209.705 43.2514 209.487 43.6702 209.215 44.0542C209.024 44.3364 208.796 44.5921 208.537 44.815C209.432 45.7652 209.927 47.0227 209.92 48.328V53.4313C209.92 53.5145 209.92 53.5558 209.81 53.5558H207.043C206.974 53.5558 206.947 53.5558 206.947 53.5558V48.328C206.948 47.7439 206.719 47.1826 206.31 46.7649C206.109 46.5549 205.865 46.3885 205.597 46.277C205.327 46.165 205.039 46.11 204.747 46.1149H203.046V53.4313C203.019 53.5145 202.991 53.5558 202.922 53.5558ZM205.176 39.213H203.046V43.1274H205.176C205.434 43.1285 205.689 43.0773 205.927 42.9773C206.165 42.8777 206.379 42.7309 206.559 42.5465C206.753 42.3725 206.907 42.1587 207.012 41.9205C207.117 41.6817 207.17 41.4239 207.168 41.1634C207.175 40.9051 207.126 40.6478 207.026 40.4096C206.926 40.1708 206.776 39.9565 206.587 39.7803C206.403 39.5943 206.183 39.448 205.94 39.3501C205.698 39.2527 205.437 39.206 205.176 39.213Z" fill="#82646C"/>
<path d="M218.799 53.5558H215.743C215.674 53.5558 215.632 53.5558 215.632 53.4313L212.188 36.3229C212.188 36.3229 212.188 36.226 212.285 36.226H215.051C215.079 36.2288 215.105 36.2396 215.127 36.257C215.149 36.2739 215.166 36.2967 215.176 36.3229L217.209 47.733L219.201 36.3229C219.207 36.2946 219.223 36.2695 219.245 36.2521C219.268 36.2342 219.296 36.225 219.325 36.226H222.092C222.188 36.226 222.216 36.226 222.188 36.3229L218.883 53.4313C218.868 53.5145 218.799 53.5558 218.799 53.5558Z" fill="#82646C"/>
<path d="M228.177 53.5557H225.411C225.394 53.5585 225.377 53.5563 225.361 53.5508C225.345 53.5454 225.33 53.5367 225.318 53.5247C225.306 53.5122 225.297 53.4975 225.291 53.4818C225.286 53.4655 225.284 53.4486 225.287 53.4312V36.3228C225.287 36.3086 225.289 36.2945 225.295 36.282C225.301 36.2695 225.309 36.2581 225.32 36.2488C225.33 36.2396 225.343 36.2325 225.356 36.2287C225.369 36.2249 225.383 36.2238 225.397 36.226H228.163C228.189 36.226 228.214 36.2358 228.232 36.2542C228.25 36.2722 228.26 36.2967 228.26 36.3228V53.4312C228.274 53.5144 228.246 53.5557 228.177 53.5557Z" fill="#82646C"/>
<path d="M236.78 53.819C235.888 53.8331 235.01 53.5933 234.249 53.1272C233.511 52.6801 232.905 52.0454 232.492 51.2878C232.05 50.5084 231.825 49.6246 231.842 48.7288V40.9833C231.834 40.1082 232.053 39.2456 232.479 38.4804C232.89 37.7304 233.491 37.1005 234.221 36.6546C234.97 36.2156 235.822 35.9845 236.69 35.9845C237.558 35.9845 238.41 36.2156 239.159 36.6546C239.9 37.1098 240.511 37.7489 240.933 38.5097C241.354 39.2706 241.572 40.1273 241.565 40.9975V42.0624C241.568 42.0755 241.567 42.0891 241.563 42.1021C241.559 42.1152 241.552 42.1266 241.542 42.1364C241.533 42.1456 241.521 42.1527 241.508 42.157C241.496 42.1608 241.481 42.1619 241.468 42.1592H238.702C238.688 42.169 238.671 42.1739 238.653 42.1733C238.635 42.1728 238.619 42.1668 238.605 42.1559C238.591 42.1451 238.581 42.1304 238.576 42.1135C238.571 42.0967 238.572 42.0787 238.578 42.0624V40.9284C238.576 40.4188 238.389 39.9271 238.052 39.5453C237.882 39.3473 237.669 39.1912 237.43 39.0879C237.19 38.9851 236.93 38.9378 236.669 38.9503C236.406 38.9269 236.141 38.9699 235.899 39.0765C235.657 39.1831 235.447 39.349 235.286 39.5589C234.972 39.9516 234.801 40.4395 234.802 40.942V48.701C234.793 48.9839 234.841 49.2656 234.943 49.5294C235.045 49.7932 235.199 50.0336 235.396 50.2364C235.56 50.4268 235.763 50.5791 235.991 50.6835C236.219 50.7885 236.467 50.8423 236.718 50.8423C236.968 50.8423 237.216 50.7885 237.444 50.6835C237.672 50.5791 237.875 50.4268 238.038 50.2364C238.364 49.8476 238.549 49.3602 238.564 48.8533V47.5948C238.561 47.5817 238.562 47.5681 238.566 47.5551C238.57 47.542 238.577 47.5306 238.587 47.5208C238.596 47.5116 238.608 47.5045 238.621 47.5002C238.634 47.4963 238.647 47.4953 238.661 47.498H241.427C241.427 47.498 241.524 47.498 241.524 47.5948V48.7429C241.545 49.6148 241.339 50.4774 240.928 51.2459C240.516 52.0144 239.911 52.6627 239.173 53.1272C238.455 53.577 237.626 53.8168 236.78 53.819Z" fill="#82646C"/>
<path d="M252.934 53.5558H244.884C244.884 53.5558 244.788 53.5558 244.788 53.4313V36.3228C244.785 36.3092 244.786 36.2956 244.79 36.2826C244.794 36.2701 244.801 36.2581 244.811 36.2489C244.82 36.2391 244.832 36.232 244.845 36.2282C244.858 36.2239 244.871 36.2233 244.884 36.226H252.879C252.879 36.226 252.976 36.226 252.976 36.35V39.1162C252.978 39.1298 252.977 39.1434 252.974 39.1565C252.969 39.169 252.962 39.1809 252.953 39.1902C252.943 39.2 252.932 39.2071 252.919 39.2109C252.906 39.2152 252.892 39.2158 252.879 39.213H247.844V43.0996H252.948C252.948 43.0996 253.045 43.0996 253.045 43.1964V45.9626C253.045 45.9882 253.035 46.0132 253.017 46.0312C252.998 46.0497 252.974 46.0595 252.948 46.0595H247.844V50.4024H252.976C252.976 50.4024 253.073 50.4024 253.073 50.5269V53.3763C253.097 53.3943 253.112 53.4215 253.116 53.4514C253.12 53.4813 253.112 53.5112 253.093 53.5351C253.075 53.5591 253.048 53.5748 253.018 53.5787C252.988 53.5825 252.958 53.5743 252.934 53.5558Z" fill="#82646C"/>
<path d="M161.263 59.6H162.895C163.083 59.5886 163.272 59.6164 163.45 59.6805C163.627 59.7453 163.789 59.8453 163.927 59.9748C164.064 60.1042 164.174 60.2609 164.248 60.4344C164.323 60.6073 164.361 60.7944 164.361 60.9831C164.389 61.2263 164.341 61.4721 164.221 61.6853C164.102 61.899 163.919 62.0698 163.697 62.1726C163.963 62.2874 164.185 62.4826 164.334 62.7306C164.483 62.9787 164.551 63.2675 164.527 63.5557C164.544 63.7776 164.512 64.0001 164.434 64.2084C164.357 64.4167 164.235 64.6054 164.077 64.762C163.919 64.9187 163.729 65.0389 163.52 65.115C163.311 65.1906 163.089 65.2205 162.867 65.2015H161.263V59.6ZM162.646 61.8686C163.31 61.8686 163.503 61.6059 163.503 61.0799C163.514 60.9728 163.501 60.864 163.465 60.7623C163.428 60.6606 163.369 60.5687 163.292 60.4926C163.215 60.417 163.122 60.3593 163.02 60.3245C162.917 60.2902 162.808 60.2788 162.701 60.2919H162.093V61.8686H162.646ZM162.093 64.5238H162.756C163.31 64.5238 163.614 64.2198 163.614 63.5557C163.614 62.8922 163.337 62.5599 162.632 62.5599H162.093V64.5238Z" fill="#9F9C9F"/>
<path d="M167.929 59.5999V63.4865C167.929 63.9983 168.067 64.5656 168.717 64.5656C169.368 64.5656 169.52 64.0951 169.52 63.4865V59.5999H170.391V63.5007C170.391 64.5237 170.004 65.3123 168.704 65.3123C167.404 65.3123 167.044 64.5656 167.044 63.5142V59.5999H167.929Z" fill="#9F9C9F"/>
<path d="M173.752 63.68C173.752 64.1782 174.015 64.6068 174.568 64.6068C175.121 64.6068 175.315 64.2887 175.315 63.791C175.315 63.2928 175.08 63.0024 174.36 62.6565C173.42 62.2143 173.046 61.8129 173.046 60.9829C173.034 60.7849 173.064 60.5864 173.135 60.401C173.206 60.2155 173.316 60.0474 173.458 59.9082C173.6 59.769 173.77 59.6624 173.956 59.5949C174.143 59.5269 174.342 59.5008 174.54 59.5172C174.748 59.4927 174.958 59.5155 175.155 59.584C175.353 59.6526 175.532 59.7646 175.68 59.9126C175.828 60.0605 175.94 60.2394 176.008 60.4369C176.077 60.6343 176.1 60.8448 176.075 61.052H175.218C175.218 60.748 175.107 60.2084 174.526 60.2084C173.945 60.2084 173.89 60.513 173.89 60.9138C173.89 61.3152 174.084 61.5779 174.762 61.882C175.757 62.3524 176.145 62.8087 176.145 63.7214C176.155 63.9335 176.12 64.1456 176.043 64.3436C175.965 64.541 175.847 64.7205 175.695 64.869C175.544 65.018 175.363 65.1333 175.164 65.2073C174.965 65.2812 174.752 65.3122 174.54 65.2981C174.321 65.3188 174.099 65.2916 173.891 65.2181C173.684 65.1447 173.494 65.0267 173.336 64.8728C173.178 64.7189 173.056 64.5323 172.977 64.3267C172.898 64.1206 172.865 63.9003 172.88 63.68H173.752Z" fill="#9F9C9F"/>
<path d="M180.806 59.5999V65.2155H179.935V59.5999H180.806Z" fill="#9F9C9F"/>
<path d="M184.526 65.2155V59.5999H185.605C186.905 62.9747 187.127 63.542 187.196 63.7492C187.196 63.0438 187.196 62.2144 187.196 61.3012V59.5999H187.984V65.2155H187.016C185.633 61.6471 185.453 61.0662 185.384 60.8313C185.384 61.5226 185.384 62.3802 185.384 63.3897V65.2155H184.526Z" fill="#9F9C9F"/>
<path d="M193.253 62.6429H191.428V64.4546H193.475L193.364 65.2155H190.598V59.5999H193.364V60.3608H191.428V61.8821H193.253V62.6429Z" fill="#9F9C9F"/>
<path d="M197.057 63.6802C197.057 64.1784 197.319 64.607 197.873 64.607C198.426 64.607 198.62 64.2888 198.62 63.7911C198.62 63.2929 198.385 63.0025 197.652 62.6566C196.919 62.3112 196.269 61.813 196.269 60.9831C196.305 60.6029 196.481 60.2499 196.764 59.9926C197.046 59.7359 197.415 59.5934 197.797 59.5934C198.179 59.5934 198.547 59.7359 198.83 59.9926C199.112 60.2499 199.289 60.6029 199.325 60.9831H198.468C198.468 60.679 198.357 60.1395 197.79 60.1395C197.699 60.1346 197.607 60.1498 197.522 60.1846C197.437 60.2189 197.361 60.2717 197.299 60.3391C197.237 60.4065 197.191 60.487 197.163 60.5741C197.136 60.6616 197.127 60.7541 197.14 60.8449C197.14 61.2876 197.347 61.509 198.011 61.813C199.021 62.2835 199.394 62.7398 199.394 63.6524C199.408 63.8705 199.374 64.0886 199.294 64.2915C199.214 64.4949 199.09 64.6777 198.932 64.8283C198.774 64.9784 198.585 65.0921 198.378 65.1617C198.171 65.2308 197.951 65.2542 197.734 65.2292C197.515 65.2526 197.292 65.2265 197.083 65.1541C196.874 65.0812 196.684 64.9638 196.525 64.8093C196.367 64.6548 196.245 64.4677 196.166 64.2605C196.089 64.0533 196.058 63.8314 196.075 63.6111L197.057 63.6802Z" fill="#9F9C9F"/>
<path d="M202.88 63.6802C202.88 64.1784 203.143 64.607 203.696 64.607C204.249 64.607 204.443 64.2888 204.443 63.7911C204.443 63.2929 204.208 63.0025 203.475 62.6566C202.742 62.3112 202.092 61.813 202.092 60.9831C202.128 60.6029 202.305 60.2499 202.587 59.9926C202.87 59.7359 203.238 59.5934 203.62 59.5934C204.002 59.5934 204.37 59.7359 204.653 59.9926C204.935 60.2499 205.112 60.6029 205.149 60.9831H204.305C204.305 60.679 204.18 60.1395 203.613 60.1395C203.522 60.1346 203.43 60.1498 203.346 60.1846C203.261 60.2189 203.184 60.2717 203.122 60.3391C203.06 60.4065 203.014 60.487 202.986 60.5741C202.959 60.6616 202.951 60.7541 202.963 60.8449C202.963 61.2876 203.17 61.509 203.848 61.813C204.844 62.2835 205.231 62.7398 205.231 63.6524C205.245 63.8705 205.211 64.0886 205.131 64.2915C205.051 64.4949 204.928 64.6777 204.769 64.8283C204.611 64.9784 204.422 65.0921 204.215 65.1617C204.008 65.2308 203.788 65.2542 203.572 65.2292C203.352 65.2498 203.131 65.2226 202.923 65.1492C202.715 65.0758 202.526 64.9578 202.368 64.8038C202.21 64.6499 202.088 64.4634 202.009 64.2578C201.93 64.0517 201.897 63.8308 201.912 63.6111L202.88 63.6802Z" fill="#9F9C9F"/>
<path d="M214.65 59.6H216.255C216.471 59.5848 216.687 59.6169 216.889 59.6941C217.091 59.7719 217.274 59.8926 217.424 60.0482C217.575 60.2037 217.689 60.3903 217.759 60.5948C217.83 60.7993 217.854 61.0168 217.831 61.2322C217.856 61.4557 217.83 61.6814 217.755 61.893C217.68 62.1051 217.558 62.2971 217.398 62.4554C217.239 62.6137 217.046 62.7339 216.833 62.8067C216.621 62.8802 216.395 62.9046 216.172 62.878H215.521V65.2156H214.65V59.6ZM215.521 62.1726H216.033C216.628 62.1726 216.919 61.8685 216.919 61.2186C216.919 60.5681 216.614 60.3054 216.089 60.3054H215.48L215.521 62.1726Z" fill="#9F9C9F"/>
<path d="M221.095 63.6801L220.777 65.2155H219.906L221.289 59.5999H222.423L223.806 65.2155H222.894L222.561 63.6801H221.095ZM222.299 62.9192C222.049 61.7298 221.856 60.9139 221.773 60.4163C221.69 60.9139 221.496 61.7994 221.275 62.9192H222.299Z" fill="#9F9C9F"/>
<path d="M227.25 62.8091V65.2713H226.392V59.6002H228.025C228.23 59.5768 228.437 59.5991 228.632 59.666C228.827 59.7329 229.005 59.8428 229.152 59.9874C229.299 60.1321 229.413 60.3078 229.483 60.5014C229.553 60.6956 229.58 60.9028 229.56 61.1078C229.589 61.3722 229.534 61.6392 229.402 61.8704C229.271 62.1015 229.069 62.2848 228.827 62.3941C229.297 62.5878 229.477 62.9891 229.477 63.7772V63.9986C229.465 64.3967 229.492 64.7954 229.56 65.1881H228.716C228.634 64.797 228.601 64.3978 228.62 63.9986V63.7914C228.62 63.0305 228.453 62.7259 227.775 62.7259L227.25 62.8091ZM227.25 62.0901H227.817C228.44 62.0901 228.689 61.7855 228.689 61.191C228.689 60.596 228.453 60.3611 227.9 60.3611H227.25V62.0901Z" fill="#9F9C9F"/>
<path d="M233.336 60.3608H232.118V59.5999H235.396V60.3608H234.179V65.2155H233.308L233.336 60.3608Z" fill="#9F9C9F"/>
<path d="M237.956 65.2155V59.5999H238.965C240.251 62.9747 240.473 63.542 240.542 63.7492C240.542 63.0438 240.542 62.2144 240.542 61.3012V59.5999H241.344V65.2155H240.362C238.979 61.6471 238.813 61.0662 238.744 60.8313C238.744 61.5226 238.744 62.3802 238.744 63.3897V65.2155H237.956Z" fill="#9F9C9F"/>
<path d="M246.945 62.6429H245.078V64.4546H247.125L247.015 65.2155H244.249V59.5999H247.015V60.3608H245.078V61.8821H246.904L246.945 62.6429Z" fill="#9F9C9F"/>
<path d="M250.721 62.8088V65.271H249.85V59.5999H251.482C251.688 59.5744 251.897 59.595 252.094 59.6608C252.291 59.7266 252.471 59.8365 252.619 59.9812C252.768 60.1259 252.882 60.3026 252.954 60.4973C253.025 60.6926 253.051 60.9009 253.031 61.1076C253.061 61.3719 253.005 61.6389 252.874 61.8701C252.742 62.1012 252.54 62.2845 252.298 62.3939C252.754 62.5875 252.948 62.9889 252.948 63.7769V63.9983C252.918 64.3943 252.918 64.7918 252.948 65.1878H252.104C252.022 64.7967 251.989 64.3975 252.008 63.9983V63.7911C252.008 63.0302 251.842 62.7256 251.164 62.7256L250.721 62.8088ZM250.721 62.0898H251.275C251.911 62.0898 252.146 61.7852 252.146 61.1908C252.146 60.5958 251.911 60.3608 251.358 60.3608H250.721V62.0898Z" fill="#9F9C9F"/>
<path d="M130.82 65.2155V63.1683C130.827 63.1134 130.827 63.0574 130.82 63.0025L129.437 59.5999H130.281C130.627 60.499 131.069 61.6607 131.235 62.2416C131.429 61.6058 131.872 60.4576 132.19 59.5999H133.102L131.719 63.0161C131.702 63.0748 131.702 63.1373 131.719 63.1961V65.2155H130.82Z" fill="#9F9C9F"/>
<path d="M139.7 62.3662C139.7 64.372 139.175 65.3124 137.902 65.3124C136.63 65.3124 136.159 64.3856 136.159 62.3526C136.159 60.3195 136.809 59.5864 137.944 59.5864C139.078 59.5864 139.7 60.4299 139.7 62.3662ZM137.058 62.3662C137.058 63.7493 137.294 64.5792 137.93 64.5792C138.566 64.5792 138.801 63.8325 138.801 62.3662C138.801 60.9004 138.566 60.264 137.93 60.264C137.294 60.264 137.058 60.9972 137.058 62.3526V62.3662Z" fill="#9F9C9F"/>
<path d="M143.767 59.5999V63.4865C143.767 63.9983 143.891 64.5656 144.555 64.5656C145.219 64.5656 145.357 64.0951 145.357 63.4865V59.5999H146.228V63.5007C146.228 64.5237 145.841 65.3123 144.541 65.3123C143.241 65.3123 142.881 64.5656 142.881 63.5142V59.5999H143.767Z" fill="#9F9C9F"/>
<path d="M150.447 62.8088V65.271H149.645V59.5999H151.277C151.483 59.5744 151.692 59.595 151.889 59.6608C152.086 59.7266 152.265 59.8365 152.414 59.9812C152.563 60.1259 152.677 60.3026 152.748 60.4973C152.82 60.6926 152.846 60.9009 152.826 61.1076C152.855 61.3719 152.8 61.6389 152.668 61.8701C152.537 62.1012 152.335 62.2845 152.093 62.3939C152.549 62.5875 152.743 62.9889 152.743 63.7769V63.9983C152.731 64.3964 152.759 64.7951 152.826 65.1878H151.968C151.892 64.7962 151.864 64.3964 151.885 63.9983V63.7911C151.885 63.0302 151.706 62.7256 151.028 62.7256L150.447 62.8088ZM150.447 62.0898H151.028C151.664 62.0898 151.913 61.7852 151.913 61.1908C151.928 61.0804 151.918 60.9683 151.884 60.8623C151.849 60.7568 151.791 60.6605 151.714 60.5805C151.637 60.5006 151.542 60.4391 151.438 60.4011C151.333 60.363 151.221 60.3494 151.111 60.3608H150.475L150.447 62.0898Z" fill="#9F9C9F"/>
</g>
</svg>
