<svg width="182" height="95" viewBox="0 0 182 95" fill="none" xmlns="http://www.w3.org/2000/svg">
<mask id="mask0_138_41" style="mask-type:luminance" maskUnits="userSpaceOnUse" x="12" y="20" width="50" height="50">
<path d="M61.0057 20.6052H12.2012V69.3203H61.0057V20.6052Z" fill="white"/>
</mask>
<g mask="url(#mask0_138_41)">
<path d="M26.4357 69.3203C28.6818 69.3203 30.5027 67.5026 30.5027 65.2607C30.5027 63.0188 28.6818 61.2011 26.4357 61.2011C24.1896 61.2011 22.3687 63.0188 22.3687 65.2607C22.3687 67.5026 24.1896 69.3203 26.4357 69.3203Z" fill="#F49320"/>
<path d="M46.7709 69.3203C49.017 69.3203 50.838 67.5026 50.838 65.2607C50.838 63.0188 49.017 61.2011 46.7709 61.2011C44.5248 61.2011 42.7039 63.0188 42.7039 65.2607C42.7039 67.5026 44.5248 69.3203 46.7709 69.3203Z" fill="#F49320"/>
<path d="M60.3651 23.317C59.9837 22.9366 59.4665 22.7227 58.9274 22.7227C58.3882 22.7227 57.8709 22.9366 57.4897 23.317L46.9987 33.7989L43.8448 30.5127C43.471 30.1246 42.958 29.9005 42.4188 29.8898C41.8796 29.8792 41.3582 30.0828 40.9694 30.4558C40.5805 30.8289 40.356 31.3408 40.3454 31.8791C40.3347 32.4174 40.5387 32.9379 40.9124 33.326L44.1945 36.734C44.5442 37.1111 44.9669 37.4134 45.437 37.6227C45.9071 37.832 46.4149 37.944 46.9296 37.9519H46.9967C47.5011 37.9535 48.0009 37.8552 48.4668 37.6625C48.9329 37.4698 49.356 37.1867 49.7114 36.8294L60.3651 26.1872C60.7462 25.8065 60.9605 25.2903 60.9605 24.7521C60.9605 24.2139 60.7462 23.6977 60.3651 23.317Z" fill="#EBC026"/>
<path d="M56.7353 38.9058C56.4724 38.8584 56.2027 38.8632 55.9416 38.9198C55.6805 38.9764 55.4333 39.0839 55.2138 39.2361C54.9943 39.3882 54.8071 39.582 54.6628 39.8064C54.5184 40.0308 54.4196 40.2814 54.3724 40.5439L54.1121 41.983C53.8584 43.3882 53.118 44.6599 52.0204 45.5755C50.9227 46.4913 49.5376 46.9928 48.1071 46.9925H23.2188L21.3073 30.7541H34.5699C35.1092 30.7541 35.6264 30.5403 36.0078 30.1596C36.3892 29.7789 36.6034 29.2627 36.6034 28.7243C36.6034 28.186 36.3892 27.6698 36.0078 27.2891C35.6264 26.9084 35.1092 26.6946 34.5699 26.6946H20.8274L20.742 25.9801C20.5667 24.4995 19.8534 23.1346 18.7373 22.1439C17.6211 21.1533 16.1797 20.6058 14.6861 20.6052H14.2347C13.6954 20.6052 13.1782 20.819 12.7968 21.1997C12.4154 21.5804 12.2012 22.0967 12.2012 22.635C12.2012 23.1733 12.4154 23.6895 12.7968 24.0702C13.1782 24.4509 13.6954 24.6648 14.2347 24.6648H14.6861C15.1842 24.6649 15.665 24.8473 16.0371 25.1777C16.4093 25.508 16.6472 25.9633 16.7054 26.4571L19.5036 50.2057C19.794 52.6755 20.9829 54.953 22.8444 56.6056C24.706 58.2579 27.1107 59.1713 29.602 59.1713H50.8381C51.3774 59.1713 51.8946 58.9572 52.276 58.5766C52.6574 58.196 52.8716 57.6798 52.8716 57.1415C52.8716 56.6032 52.6574 56.0869 52.276 55.7062C51.8946 55.3255 51.3774 55.1117 50.8381 55.1117H29.602C28.3402 55.1119 27.1094 54.7217 26.0792 53.9946C25.0489 53.2675 24.2698 52.2395 23.8492 51.0521H48.1071C50.491 51.0522 52.7991 50.2163 54.6282 48.6903C56.4573 47.1643 57.6912 45.0453 58.114 42.7036L58.3743 41.2624C58.4697 40.733 58.3506 40.1874 58.0434 39.7455C57.736 39.3037 57.2656 39.0017 56.7353 38.9058Z" fill="#E59245"/>
<path d="M28.4693 41.918C31.277 41.918 33.5531 39.6461 33.5531 36.8435C33.5531 34.041 31.277 31.769 28.4693 31.769C25.6616 31.769 23.3855 34.041 23.3855 36.8435C23.3855 39.6461 25.6616 41.918 28.4693 41.918Z" fill="#04A54F"/>
<path d="M38.1285 44.9628C40.0939 44.9628 41.6872 43.3724 41.6872 41.4106C41.6872 39.4488 40.0939 37.8585 38.1285 37.8585C36.1631 37.8585 34.5698 39.4488 34.5698 41.4106C34.5698 43.3724 36.1631 44.9628 38.1285 44.9628Z" fill="#292F91"/>
<path d="M47.7878 45.9777C49.4725 45.9777 50.8381 44.6146 50.8381 42.933C50.8381 41.2514 49.4725 39.8883 47.7878 39.8883C46.1032 39.8883 44.7375 41.2514 44.7375 42.933C44.7375 44.6146 46.1032 45.9777 47.7878 45.9777Z" fill="#00B1F0"/>
</g>
<path d="M75.8214 54.6348C75.8214 55.7715 75.1689 56.3398 73.8641 56.3398C72.5118 56.3398 71.8357 55.7715 71.8357 54.6348V39.9289C71.8357 37.9871 72.417 36.6373 73.5794 35.8795C74.7419 35.1217 76.0824 34.7428 77.6007 34.7428H81.6576C82.5354 34.7428 82.9743 35.2993 82.9743 36.4123C83.0218 37.5253 82.5829 38.0818 81.6576 38.0818H77.8854C77.0313 38.0818 76.4739 38.2475 76.2128 38.5791C75.9518 38.9107 75.8214 39.3724 75.8214 39.9644V54.6348ZM91.3569 56.1267C90.6215 56.1267 89.9215 56.032 89.2573 55.8425C88.593 55.6294 87.9525 55.3333 87.3356 54.9545V54.99C86.1731 54.2559 85.5919 52.9061 85.5919 50.9406V49.2C85.5919 48.2291 85.7579 47.3884 86.0901 46.678C86.4459 45.9439 86.9323 45.3637 87.5491 44.9374H87.5135C88.1066 44.5348 88.7354 44.2389 89.3996 44.0494C90.0639 43.8363 90.7044 43.7297 91.3213 43.7297H99.186V40.4262C99.186 39.8342 98.9962 39.3014 98.6166 38.8278C98.2607 38.3305 97.6438 38.0818 96.7661 38.0818H92.6024C91.7009 38.0818 91.0722 38.3068 90.7163 38.7567C90.3842 39.183 90.2181 39.6921 90.2181 40.2841V40.5683C90.2181 41.7997 89.5539 42.4154 88.2253 42.4154C86.8967 42.4154 86.2324 41.7997 86.2324 40.5683V40.2486C86.2324 39.2777 86.3985 38.4607 86.7306 37.7976C87.0865 37.1346 87.561 36.578 88.1541 36.1281H88.1185C88.7354 35.7255 89.3759 35.3941 90.0402 35.1335C90.7282 34.873 91.3806 34.7428 91.9975 34.7428H97.4066C97.9997 34.7428 98.6285 34.873 99.2927 35.1335C99.9807 35.3941 100.621 35.7255 101.214 36.1281H101.179C101.796 36.578 102.27 37.1701 102.602 37.9042C102.935 38.6146 103.1 39.4435 103.1 40.3907V54.6348C103.1 55.7715 102.448 56.3398 101.143 56.3398C100.882 56.3398 100.633 56.3279 100.396 56.3043C100.182 56.2806 99.9808 56.2214 99.7909 56.1267C99.6249 56.0082 99.4825 55.8544 99.3639 55.6649C99.269 55.4518 99.2215 55.1795 99.2215 54.8479L99.186 47.0687H91.9975C91.4755 47.0687 91.0722 47.1279 90.7875 47.2463C90.5028 47.3648 90.2774 47.5541 90.1114 47.8147C89.9215 48.2173 89.7792 48.537 89.6843 48.7737C89.6131 48.9869 89.5776 49.2355 89.5776 49.5197V50.905C89.5776 51.5208 89.7555 51.9943 90.1114 52.3259C90.4909 52.6337 91.1315 52.7877 92.033 52.7877H96.0187C96.8965 52.7877 97.3354 53.3441 97.3354 54.4572C97.3354 54.9308 97.2287 55.3333 97.0152 55.6649C96.8016 55.9727 96.4695 56.1267 96.0187 56.1267H91.3569ZM108.842 61.0997C108.012 61.0997 107.573 60.5435 107.525 59.4302C107.525 58.3168 107.965 57.7607 108.842 57.7607H110.408C111.239 57.7607 111.785 57.512 112.045 57.0147L112.543 55.7004L112.721 55.1321L105.782 36.9806V37.0162C105.592 36.4478 105.628 35.9624 105.888 35.5598C106.173 35.1572 106.6 34.8612 107.169 34.6718C107.596 34.5533 107.941 34.4941 108.201 34.4941C108.89 34.4941 109.317 34.8968 109.483 35.7019L112.294 42.6996L114.678 48.5251L118.486 35.7729C118.7 34.9204 119.198 34.4941 119.981 34.4941C120.171 34.4941 120.479 34.5533 120.906 34.6718C121.475 34.8375 121.879 35.1099 122.116 35.4887C122.377 35.8676 122.436 36.3176 122.294 36.8386C121.226 40.4617 120.135 44.1086 119.02 47.7792C117.929 51.4497 116.849 55.0847 115.781 58.6842C115.663 58.945 115.473 59.2049 115.212 59.4657C114.975 59.7499 114.655 60.0107 114.251 60.2472C113.849 60.508 113.35 60.7089 112.757 60.851C112.164 61.0165 111.475 61.0997 110.693 61.0997H108.842ZM136.711 34.7428C137.328 34.7428 137.957 34.873 138.598 35.1335C139.261 35.3941 139.902 35.7255 140.519 36.1281H140.484C141.1 36.578 141.575 37.1701 141.907 37.9042C142.239 38.6146 142.405 39.4435 142.405 40.3907V50.4788C142.405 52.4206 141.765 53.8533 140.484 54.7769C139.226 55.6768 137.968 56.1267 136.711 56.1267H131.018C130.4 56.1267 129.772 56.0201 129.131 55.807C128.491 55.5939 127.862 55.2505 127.245 54.7769C125.964 53.877 125.324 52.4443 125.324 50.4788V40.3907C125.324 39.4435 125.489 38.6146 125.822 37.9042C126.153 37.1701 126.628 36.578 127.245 36.1281H127.21C127.803 35.7255 128.431 35.3941 129.096 35.1335C129.76 34.873 130.4 34.7428 131.018 34.7428H136.711ZM136.071 52.7877C136.948 52.7877 137.566 52.539 137.921 52.0417C138.301 51.5444 138.491 51.0116 138.491 50.4433V40.4262C138.491 39.8342 138.301 39.3014 137.921 38.8278C137.566 38.3305 136.948 38.0818 136.071 38.0818H131.658C130.78 38.0818 130.151 38.3305 129.772 38.8278C129.416 39.3014 129.238 39.8342 129.238 40.4262V50.4433C129.238 51.0116 129.416 51.5444 129.772 52.0417C130.151 52.539 130.78 52.7877 131.658 52.7877H136.071ZM158.47 43.6942C159.063 43.6942 159.692 43.8363 160.356 44.1204C161.045 44.381 161.685 44.7124 162.278 45.115H162.242C162.859 45.5649 163.333 46.1452 163.666 46.8556C163.998 47.566 164.164 48.4185 164.164 49.4131V50.4788C164.164 52.4206 163.523 53.8533 162.242 54.7769C161.625 55.2505 160.997 55.5939 160.356 55.807C159.716 56.0201 159.087 56.1267 158.47 56.1267H152.42C151.803 56.1267 151.175 56.0201 150.534 55.807C149.894 55.5939 149.265 55.2505 148.648 54.7769C147.367 53.877 146.727 52.4443 146.727 50.4788V50.0525C146.727 49.0343 147.379 48.537 148.684 48.5606C150.013 48.5606 150.677 49.0579 150.677 50.0525V50.4433C150.677 51.0116 150.855 51.5444 151.21 52.0417C151.566 52.539 152.195 52.7877 153.097 52.7877H157.794C158.696 52.7877 159.324 52.539 159.68 52.0417C160.036 51.5444 160.214 51.0116 160.214 50.4433V49.4487C160.214 49.1408 160.166 48.8448 160.072 48.5606C160 48.2764 159.87 48.0278 159.68 47.8147C159.49 47.5779 159.241 47.3884 158.933 47.2463C158.625 47.1042 158.244 47.0332 157.794 47.0332H152.598C151.388 47.0332 150.119 46.6069 148.791 45.7544C147.533 44.9493 146.904 43.564 146.904 41.5984V40.3907C146.904 39.4435 147.07 38.6146 147.403 37.9042C147.735 37.1701 148.209 36.578 148.826 36.1281H148.791C149.383 35.7255 150.013 35.3941 150.677 35.1335C151.341 34.873 151.981 34.7428 152.598 34.7428H158.292C158.909 34.7428 159.538 34.873 160.178 35.1335C160.842 35.3941 161.483 35.7255 162.1 36.1281H162.064C162.682 36.578 163.155 37.1701 163.488 37.9042C163.82 38.6146 163.986 39.4435 163.986 40.3907V40.7104C163.986 41.2077 163.82 41.5748 163.488 41.8115C163.155 42.0247 162.669 42.1431 162.029 42.1668C160.724 42.1904 160.072 41.705 160.072 40.7104V40.4262C160.072 39.8342 159.881 39.3014 159.502 38.8278C159.146 38.3305 158.529 38.0818 157.652 38.0818H153.239C152.361 38.0818 151.732 38.3305 151.353 38.8278C150.997 39.3014 150.819 39.8342 150.819 40.4262V41.2787C150.819 41.8945 150.997 42.4509 151.353 42.9482C151.732 43.4455 152.361 43.6942 153.239 43.6942H158.47Z" fill="#66657E"/>
<path d="M168.586 54.0968C175.195 50.5039 155.537 70.0003 121.306 73.8873C98.8724 76.4347 75.9046 65.1876 66.021 55.301C65.1581 54.4377 64.4673 53.867 65.8927 54.7168C82.8375 64.8202 123.954 78.36 168.586 54.0968Z" fill="#F49320"/>
<path d="M65.8927 54.7168C82.8375 64.8202 123.954 78.36 168.586 54.0968C175.195 50.5039 155.537 70.0003 121.306 73.8873C98.8724 76.4347 75.9046 65.1876 66.021 55.301M65.8927 54.7168L66.021 55.301M65.8927 54.7168C64.4673 53.867 65.1581 54.4377 66.021 55.301" stroke="#F49320"/>
</svg>
