<svg width="188" height="86" viewBox="0 0 188 86" fill="none" xmlns="http://www.w3.org/2000/svg">
<g opacity="0.21">
<path opacity="0.21" d="M64.448 60.798C64.7688 60.9241 64.8677 61.1302 64.7402 61.4206C62.5835 66.4139 60.493 69.7655 58.4683 71.4758C58.1769 71.7317 57.8716 71.9707 57.5533 72.1922C57.2157 72.4786 56.8413 72.7195 56.4404 72.9086C56.2516 72.9739 56.0865 73.0209 55.9688 73.0534L55.8744 73.1004H55.4027C55.3263 73.1029 55.2503 73.0866 55.1812 73.0534C55.032 73.0327 54.8865 72.9933 54.7472 72.9365C54.6789 72.9049 54.6156 72.8639 54.5588 72.8148C54.486 72.7783 54.4202 72.7293 54.3654 72.6696L54.2191 72.5293L54.0728 72.384C53.9997 72.2818 53.9192 72.1849 53.8325 72.094C53.6372 71.8023 53.4786 71.4875 53.3609 71.1577C53.1819 70.7549 53.0368 70.3387 52.9268 69.9123C52.7335 69.1164 52.5872 68.4426 52.4932 67.8995C52.4601 67.581 52.4176 67.2394 52.3706 66.8744C52.3232 66.5093 52.2807 66.1722 52.2525 65.8679C52.2243 65.5633 52.1773 65.2217 52.1299 64.8379C52.0829 64.4542 52.0404 64.1171 52.0073 63.8315C51.9791 63.4149 51.8941 62.7966 51.767 61.959C51.7057 61.7342 51.6394 61.4628 51.5736 61.1444C51.5074 60.826 51.4461 60.5874 51.3799 60.3298C51.1584 59.7258 50.9794 59.2954 50.8519 59.0378C50.6332 58.6212 50.339 58.2484 49.9842 57.9376C49.824 57.7786 49.6446 57.6192 49.4513 57.4695C49.0205 57.7012 48.5689 57.8926 48.1026 58.0407C47.4491 58.2743 46.767 58.4192 46.0746 58.4711C45.8911 58.478 45.7072 58.4622 45.5278 58.4244C45.3455 58.4261 45.1649 58.394 44.9949 58.3307C44.8249 58.304 44.6634 58.2382 44.5232 58.1389C44.3769 58.0354 44.2743 57.8821 44.2355 57.708C44.1697 57.6582 44.1178 57.5924 44.0839 57.517C44.0504 57.4419 44.0357 57.3596 44.0422 57.2776C44.0614 57.0119 44.155 56.7568 44.3128 56.5406C44.4701 56.3247 44.6851 56.1568 44.9336 56.0558C45.5756 55.7065 46.2998 55.5321 47.0318 55.5503C47.3857 55.5503 47.8337 55.5503 48.3809 55.5033L48.9139 54.8806C49.522 54.1459 50.1019 53.3829 50.6492 52.5821C50.8425 52.3294 51.3705 51.482 52.2431 50.0451C53.4042 48.1211 54.4345 46.1224 55.3275 44.0624C55.7938 43.0661 56.1972 42.0422 56.5348 40.996C56.5728 40.9194 56.6043 40.8395 56.6288 40.7571L56.7281 40.467C56.7563 40.3734 56.7845 40.2938 56.7988 40.2283C56.8127 40.1627 56.8413 40.0879 56.8695 39.9896C56.8994 39.9036 56.9243 39.8161 56.9447 39.7274C56.9525 39.6402 56.9525 39.5525 56.9447 39.4652C57.0898 38.9972 57.1863 38.5156 57.2324 38.0281C57.3959 37.2374 57.3959 36.4219 57.2324 35.6313C57.1556 35.2211 56.9954 34.8308 56.7608 34.4843L56.7138 34.3861L56.6149 34.2924C56.5716 34.2255 56.5246 34.1614 56.4735 34.1005C56.431 34.0605 56.3811 34.0288 56.3272 34.0068L56.2328 33.8617C55.6541 33.4141 54.9993 33.0732 54.2992 32.8552C53.9171 32.7288 53.658 32.6493 53.5305 32.6165C53.3874 32.5897 53.2424 32.574 53.0969 32.5697C52.9861 32.5369 52.868 32.5369 52.7572 32.5697C52.2259 32.5917 51.7102 32.7532 51.2622 33.0378C49.9789 33.901 48.8194 34.9324 47.8149 36.1041C46.4576 37.6171 45.2229 39.234 44.1223 40.9397C43.0634 42.6021 42.1442 44.348 41.373 46.1593C41.1466 47.5312 40.9014 48.8557 40.6985 50.134C39.9597 54.6997 39.4456 58.3697 39.1564 61.1444C38.9913 62.7735 38.897 64.0656 38.864 65.0249C38.8595 65.4237 38.8768 65.8221 38.9159 66.2188C38.907 66.3965 38.9228 66.5746 38.9631 66.7478L38.864 66.8415C38.8456 66.8431 38.8277 66.8488 38.8116 66.8577C38.7953 66.8666 38.7811 66.8784 38.7697 66.893C38.7553 66.904 38.7436 66.9182 38.7355 66.9344C38.7273 66.9506 38.7229 66.9685 38.7225 66.9867V67.609H38.5481C38.4957 67.5839 38.4466 67.5526 38.4018 67.5157C38.3299 67.478 38.2646 67.4289 38.2085 67.3705C38.0996 67.2228 38.0034 67.0662 37.9208 66.9023C37.8875 66.7689 37.8384 66.6403 37.7747 66.5186C37.7018 66.2517 37.6529 65.9791 37.6285 65.704C37.5218 65.214 37.4415 64.7183 37.3879 64.2201C37.2936 63.3273 37.2134 62.3208 37.1474 61.2004C37.0814 59.4155 37.0971 57.4367 37.1946 55.2647C37.2952 51.944 37.5687 48.3847 38.0152 44.5865C38.3076 41.9526 38.6612 39.3747 39.0762 36.8531L39.5478 33.932C39.604 33.6134 39.7562 33.3194 39.9844 33.0887C40.2126 32.8579 40.506 32.7015 40.8259 32.6399C41.1552 32.5583 41.4985 32.5482 41.8324 32.6104C42.1659 32.6726 42.4822 32.8056 42.7593 33.0004C43.0368 33.167 43.2538 33.4168 43.3793 33.7138C43.5048 34.0108 43.5322 34.3396 43.4574 34.6529C43.4574 34.7465 43.168 36.3584 42.5897 39.4887C42.3948 40.5435 42.2014 41.5656 42.0094 42.555C43.2285 40.3544 44.6491 38.2702 46.2541 36.3288C47.8606 34.3813 49.3728 33.0082 50.7906 32.2092C51.3501 31.8501 51.9607 31.5756 52.6015 31.3947C52.774 31.3308 52.9526 31.2837 53.1345 31.2543L53.6061 31.2028C53.7005 31.2028 53.8701 31.2028 54.1104 31.1793H54.5821C55.585 31.1064 56.5908 31.2666 57.5202 31.6475C57.7237 31.7029 57.9186 31.7848 58.1001 31.8909C58.2235 31.9791 58.3527 32.0589 58.4871 32.1296C58.5811 32.2233 58.6474 32.2701 58.6805 32.2701C58.7172 32.3074 58.7585 32.3403 58.8031 32.3684C58.8501 32.4012 58.8738 32.4339 58.8738 32.462L59.0908 32.6306L59.3074 32.8459C59.4018 32.9442 59.468 33.0051 59.5011 33.0378C59.5518 33.1274 59.6172 33.2081 59.6944 33.2766L59.8877 33.5153C59.9249 33.5597 59.9564 33.6084 59.9821 33.6604C60.0071 33.7137 60.0406 33.7627 60.0811 33.8055C60.1424 33.8992 60.2556 34.0911 60.4158 34.3767C60.7795 35.0831 61.0247 35.8436 61.142 36.6284C61.2319 37.1512 61.2794 37.6803 61.2834 38.2107C61.3141 38.8815 61.2826 39.5538 61.1894 40.2189C61.1563 40.4109 61.0901 40.734 60.9957 41.1551C60.9017 41.5765 60.8355 41.9696 60.8024 42.1615C60.4701 43.4227 60.0349 44.6551 59.5011 45.8457C58.4835 48.1547 57.1523 50.3141 55.5441 52.2641C54.8203 53.15 54.0324 53.9825 53.1864 54.7544C52.7147 55.1662 52.2713 55.5361 51.8847 55.8546C51.9358 55.8793 51.9832 55.911 52.0261 55.9479C52.472 56.1564 52.8929 56.414 53.2808 56.7158C53.9498 57.2164 54.522 57.8334 54.9691 58.5368C55.1886 58.9056 55.3823 59.2889 55.549 59.6836C55.7289 60.0743 55.8862 60.4742 56.0207 60.8823C56.2381 61.6665 56.3958 62.4664 56.4923 63.2741C56.6529 64.771 56.6529 66.2809 56.4923 67.7778C56.4858 67.9222 56.4682 68.0662 56.4404 68.2086C56.4122 68.4004 56.3791 68.6296 56.346 68.901C56.3129 69.1728 56.2798 69.4069 56.2516 69.5988C56.2185 69.9497 56.1952 70.2494 56.1764 70.507C56.1572 70.7642 56.1764 70.905 56.1764 70.9375L56.129 70.9845L56.082 71.0312L55.9827 71.1293H55.9026L56.0959 71.223C56.384 71.2879 56.6844 71.2717 56.9639 71.1764C57.2782 71.0713 57.5717 70.9131 57.8316 70.7083C59.7177 69.1477 61.6954 65.9239 63.7642 61.0365C63.7883 60.9724 63.8263 60.914 63.8758 60.8657C63.9248 60.8178 63.9845 60.7809 64.0495 60.7582C64.1149 60.7355 64.1844 60.727 64.2534 60.7339C64.3221 60.7408 64.3887 60.7627 64.448 60.798ZM47.3244 56.5519H47.0367C46.5737 56.5365 46.1127 56.6176 45.6831 56.7908C45.3296 56.9547 45.122 57.1138 45.0607 57.259C45.1195 57.2874 45.1841 57.3032 45.2495 57.3056C45.4923 57.3356 45.7387 57.3198 45.9757 57.259C46.4719 57.1235 46.9321 56.8821 47.3244 56.5519Z" fill="#401B60"/>
<path opacity="0.21" d="M80.7271 59.9322C80.7929 59.9537 80.853 59.9902 80.9021 60.0393C80.9511 60.088 80.9879 60.1476 81.0095 60.2133C81.0312 60.2791 81.0369 60.3488 81.0263 60.417C81.0157 60.4851 80.9891 60.55 80.9487 60.606C80.0736 62.1938 79.0556 63.6996 77.9067 65.1048C75.3916 68.2665 72.9644 70.1184 70.6254 70.6615C70.1975 70.7776 69.7606 70.8575 69.3192 70.9005C68.6449 70.9938 68.2108 71.0595 68.0175 71.0923C67.6967 71.0923 67.3575 71.0923 67.0035 71.0408C66.6263 70.9581 66.2556 70.8469 65.8956 70.7086C65.5617 70.5861 65.2523 70.4072 64.9805 70.1796C64.5158 69.8486 64.1083 69.4454 63.7732 68.9858C63.2333 68.2353 62.841 67.3903 62.6178 66.4954C62.3877 65.6038 62.2737 64.6866 62.2782 63.7661C62.2815 62.8461 62.3955 61.9301 62.6178 61.0368C62.8062 60.1497 63.0809 59.2824 63.4385 58.4479C63.7659 57.6374 64.1852 56.8662 64.6883 56.1494C65.1444 55.4663 65.6794 54.8375 66.2822 54.2769C66.6688 53.954 67.0367 53.6498 67.3902 53.3407C67.6477 53.1581 67.9227 53.0015 68.2108 52.8725C68.521 52.7034 68.8443 52.5594 69.1778 52.4421C69.4843 52.3346 69.7998 52.2547 70.1207 52.2032C70.6009 52.1403 71.0856 52.1233 71.5687 52.1517L71.715 52.2032H71.9365C72.0448 52.2373 72.158 52.2531 72.2712 52.2502C72.4846 52.279 72.6942 52.3277 72.8986 52.3951C73.322 52.5042 73.7192 52.6957 74.067 52.9585C74.4152 53.2214 74.7075 53.5504 74.9265 53.926C75.3863 54.758 75.5396 55.7231 75.3601 56.6553C75.079 58.5453 74.1193 60.271 72.6579 61.5143C70.9859 63.0083 68.8717 63.9247 66.6312 64.1263C66.5687 64.6987 66.5356 65.2736 66.5319 65.8492C66.5421 66.3494 66.6067 66.8471 66.7252 67.3331C66.7837 67.6012 66.8805 67.86 67.0129 68.101C67.089 68.2576 67.1875 68.4028 67.3056 68.5314C67.4462 68.7034 67.6039 68.8604 67.7772 68.9995C67.9448 69.1407 68.123 69.2693 68.3097 69.3837C68.6199 69.5618 68.9632 69.675 69.3192 69.7159C69.6715 69.7825 70.0348 69.7662 70.3802 69.6693C71.4641 69.389 72.4752 68.8831 73.3465 68.185C74.2857 67.4852 75.1587 66.7019 75.9544 65.8447C76.7195 64.9908 77.4359 64.0951 78.1 63.1621C78.8075 62.1727 79.2791 61.4705 79.5149 61.0555C79.7013 60.7456 79.8697 60.4251 80.0197 60.0957C80.0507 60.0345 80.0949 59.9801 80.1492 59.9375C80.2036 59.8949 80.2669 59.8645 80.3344 59.8491C80.4022 59.8332 80.4721 59.8324 80.54 59.847C80.6078 59.8612 80.6716 59.8904 80.7271 59.9322ZM67.0035 61.9918C66.9091 62.3755 66.829 62.7597 66.7632 63.1434C68.2198 62.9528 69.6147 62.4376 70.8424 61.636C71.8654 60.9987 72.7375 60.1493 73.3984 59.1457C73.8913 58.3619 74.226 57.4906 74.3842 56.5803C74.5023 55.872 74.3936 55.145 74.0728 54.5017C73.926 54.2286 73.725 53.9877 73.4818 53.7938C73.2386 53.5999 72.9587 53.4567 72.6579 53.3735C72.3268 53.2798 71.9753 53.2798 71.6443 53.3735C71.3222 53.4409 71.0235 53.5889 70.7762 53.8043C70.605 53.9455 70.4468 54.1021 70.3046 54.2725C70.1113 54.4923 69.9511 54.6842 69.8334 54.8436C69.7152 55.0026 69.5926 55.2602 69.4937 55.4193C69.2984 55.7105 69.1218 56.014 68.9653 56.3275C68.8664 56.5194 68.6261 57.095 68.239 58.0548C68.0788 58.467 67.8524 59.1083 67.5647 59.9695C67.277 60.8308 67.1025 61.5143 67.0035 61.9918Z" fill="#401B60"/>
<path opacity="0.21" d="M96.9316 61.3225C96.4076 61.834 95.8252 62.2835 95.1958 62.6611C94.6408 63.0145 94.0609 63.3272 93.4605 63.5974C92.9889 63.8035 92.2863 64.0655 91.3856 64.3884C90.645 64.674 90.0982 64.8988 89.7442 65.0578C89.8799 65.2221 90.025 65.3783 90.1783 65.5259C90.4329 65.8164 90.6499 66.0878 90.8526 66.3405C91.0619 66.633 91.2556 66.936 91.4326 67.2488C91.5838 67.609 91.7129 67.9781 91.8196 68.3538C91.8858 68.6215 91.9328 68.8937 91.961 69.1679C91.997 69.5351 91.981 69.9054 91.9136 70.2681C91.7898 71.0684 91.4653 71.825 90.9707 72.4684C90.5911 73.0091 90.1354 73.4935 89.6171 73.9056L89.3294 74.1957L89.0887 74.3831C88.9469 74.4415 88.8161 74.5239 88.7021 74.6265C88.0249 75.1015 87.2974 75.5015 86.5327 75.8204C86.0014 76.0666 85.4529 76.2747 84.8918 76.443C84.2931 76.5956 83.6727 76.6447 83.0572 76.5879C82.5651 76.4897 82.1123 76.2524 81.7534 75.9043C81.3942 75.5563 81.1445 75.1125 81.0341 74.6265C80.7076 73.5726 80.7076 72.4457 81.0341 71.3918C81.3014 70.2916 81.8487 69.2775 82.6235 68.4471C83.2844 67.8228 83.9767 67.2321 84.6985 66.6776C84.4406 66.4841 84.2833 66.3717 84.2269 66.3405C83.2893 65.6695 82.3873 64.9507 81.5246 64.1872C81.0705 63.7402 80.6512 63.2599 80.2703 62.75C79.8391 62.2076 79.4823 61.6113 79.2089 60.976C79.0156 60.4361 78.9016 59.8718 78.8697 59.2998C78.8374 59.1108 78.8374 58.9177 78.8697 58.7287V58.4386C78.8709 58.3413 78.8885 58.2447 78.9212 58.153C78.915 58.0557 78.931 57.9579 78.9686 57.8675C78.9682 57.7689 78.9841 57.6707 79.0156 57.5774C79.0446 57.3977 79.0936 57.2216 79.1619 57.0529C79.3642 56.3925 79.6564 55.7629 80.0296 55.1804C80.117 55.0733 80.1971 54.9605 80.2703 54.8433C80.3586 54.7552 80.4391 54.6599 80.5106 54.5577C80.5768 54.4924 80.6851 54.3658 80.8502 54.1739C81.4849 53.5305 82.259 53.0389 83.114 52.7367L83.3592 52.6434L83.5476 52.5963L83.9816 52.4511L84.4202 52.3529H84.5146C84.5603 52.3294 84.6098 52.3136 84.6605 52.3063H84.8538C84.9294 52.2689 85.0107 52.2454 85.0945 52.2361C85.1587 52.23 85.2237 52.23 85.2878 52.2361H85.7219C85.7619 52.2337 85.8016 52.2255 85.8396 52.2126C85.8784 52.1963 85.9201 52.1866 85.9622 52.1846H86.5564C88.3579 52.2811 90.0618 53.1285 91.6684 54.7264C91.7211 54.7702 91.7632 54.825 91.7922 54.8871C91.8212 54.9487 91.8363 55.0161 91.8363 55.0846C91.8363 55.1528 91.8212 55.2201 91.7922 55.2818C91.7632 55.3438 91.7211 55.3986 91.6684 55.4424C91.5719 55.5357 91.4424 55.5876 91.3079 55.5876C91.173 55.5876 91.0439 55.5357 90.947 55.4424C89.5321 54.0072 88.0531 53.2563 86.5094 53.191H86.1698L85.9765 53.2377H85.8302L85.448 53.3358C85.3328 53.3581 85.2192 53.3894 85.1088 53.4295L84.9625 53.5281L84.8211 53.5748L84.5285 53.7666C84.4275 53.823 84.3315 53.8871 84.2407 53.9585L84.0948 54.1037L84.0004 54.1975C83.5407 54.6563 83.1655 55.1921 82.8921 55.7795C82.8573 55.8813 82.8083 55.9775 82.7462 56.0651C82.7175 56.1418 82.7016 56.2225 82.6987 56.304C82.653 56.3779 82.6195 56.4582 82.5998 56.5426C82.4658 56.928 82.4004 57.3336 82.4065 57.7413V58.1717C82.4139 58.2224 82.4298 58.2715 82.4535 58.3169V58.6025C82.4866 58.6025 82.5054 58.6354 82.5054 58.7007C82.5328 58.7246 82.5496 58.7583 82.5524 58.7944L82.8401 59.37C83.2869 59.9741 83.8243 60.5063 84.4345 60.9476C85.0128 61.4316 85.8159 62.023 86.8441 62.722C87.7433 63.393 88.4348 63.9187 88.9191 64.2996L90.994 63.485C91.8964 63.1354 92.5708 62.864 93.0171 62.6705C93.5684 62.4303 94.1013 62.15 94.6114 61.8324C95.1819 61.4981 95.7161 61.1058 96.2053 60.6621C96.2417 60.604 96.2919 60.5554 96.3516 60.5209C96.4113 60.4868 96.4787 60.4673 96.5478 60.4653C96.6169 60.4629 96.6855 60.4775 96.7476 60.5079C96.8094 60.5379 96.8629 60.5829 96.9034 60.6389C96.9577 60.6767 97.0027 60.727 97.0346 60.785C97.0664 60.843 97.0848 60.9075 97.0873 60.9736C97.0901 61.0397 97.0775 61.1054 97.0505 61.1659C97.0235 61.2263 96.9826 61.2799 96.9316 61.3225ZM88.0559 70.8534C88.1769 70.5565 88.2272 70.236 88.2022 69.9172C88.1487 69.7841 88.0841 69.6555 88.0089 69.5334C87.9664 69.4251 87.9006 69.3274 87.8156 69.2478C87.7494 69.1541 87.6554 69.0231 87.5234 68.8637L87.1413 68.4799C86.9757 68.3639 86.8184 68.2373 86.6696 68.1006C86.3819 67.8759 86.0096 67.6045 85.5612 67.2861C84.7782 67.8361 84.0372 68.443 83.3449 69.1026C82.6423 69.8385 82.1535 70.7492 81.93 71.7382C81.6676 72.5799 81.6676 73.4805 81.93 74.3222C81.9974 74.6269 82.1515 74.9064 82.3738 75.1271C82.5962 75.3478 82.8773 75.5007 83.1847 75.5676C83.6179 75.6244 84.0577 75.5408 84.439 75.3287C84.8513 75.0816 85.2249 74.7758 85.5473 74.4204C86.0247 73.9008 86.4747 73.3572 86.896 72.7913C86.9655 72.6708 87.0477 72.558 87.1413 72.4546C87.3346 72.169 87.4429 71.9865 87.476 71.9865C87.7012 71.6283 87.8892 71.249 88.0371 70.8534H88.0559Z" fill="#401B60"/>
<path opacity="0.21" d="M113.338 59.9322C113.404 59.9541 113.463 59.9915 113.512 60.0405C113.56 60.0896 113.597 60.1493 113.618 60.215C113.639 60.2803 113.644 60.3501 113.633 60.4178C113.622 60.486 113.595 60.5505 113.555 60.606C112.68 62.1938 111.662 63.6996 110.513 65.1048C107.998 68.2665 105.571 70.1184 103.232 70.6615C102.805 70.7771 102.37 70.8571 101.93 70.9005C101.251 70.9938 100.817 71.0595 100.624 71.0923C100.303 71.0923 99.9682 71.0923 99.6146 71.0408C99.2354 70.9589 98.8635 70.8477 98.5018 70.7086C98.1683 70.5861 97.8585 70.4072 97.5867 70.1796C97.122 69.8486 96.7145 69.4454 96.3794 68.9858C95.8412 68.2345 95.4492 67.3895 95.224 66.4954C94.9939 65.6038 94.8799 64.6866 94.8844 63.7661C94.8877 62.8461 95.0017 61.9301 95.224 61.0368C95.4165 60.1509 95.6916 59.284 96.0447 58.4479C96.3721 57.6366 96.793 56.865 97.299 56.1494C97.7522 55.4651 98.2856 54.8363 98.8884 54.2769C99.275 53.954 99.6428 53.6498 99.9968 53.3407C100.255 53.1593 100.529 53.0027 100.817 52.8725C101.12 52.7054 101.435 52.5614 101.76 52.4421C102.067 52.3346 102.383 52.2547 102.704 52.2032C103.183 52.1403 103.668 52.1233 104.151 52.1517L104.297 52.2032H104.491C104.599 52.2373 104.712 52.2531 104.826 52.2502C105.04 52.279 105.252 52.3277 105.458 52.3951C105.88 52.505 106.276 52.6965 106.624 52.9593C106.971 53.2222 107.262 53.5508 107.481 53.926C107.943 54.7572 108.096 55.7231 107.915 56.6553C107.633 58.5453 106.674 60.271 105.213 61.5143C103.541 63.0083 101.426 63.9247 99.1855 64.1263C99.123 64.6987 99.0899 65.2736 99.0866 65.8492C99.0964 66.3494 99.1614 66.8471 99.2799 67.3331C99.3376 67.6024 99.436 67.8613 99.5721 68.101C99.6465 68.2576 99.7434 68.4024 99.8599 68.5314C100.002 68.7022 100.159 68.8592 100.331 68.9995C100.5 69.1399 100.678 69.2681 100.864 69.3837C101.176 69.5626 101.521 69.6758 101.878 69.7159C102.231 69.7825 102.594 69.7662 102.939 69.6693C104.022 69.3869 105.033 68.8815 105.906 68.185C106.842 67.4844 107.714 66.7007 108.509 65.8447C109.274 64.9908 109.99 64.0951 110.655 63.1621C111.362 62.1727 111.833 61.4705 112.069 61.0555C112.256 60.7456 112.424 60.4251 112.574 60.0957C112.603 60.0247 112.648 59.9618 112.708 59.9123C112.766 59.8629 112.837 59.8288 112.912 59.8126C112.988 59.7963 113.066 59.7988 113.14 59.8195C113.214 59.8406 113.282 59.8791 113.338 59.9322ZM99.6146 61.9918C99.5157 62.3755 99.4352 62.7597 99.3694 63.1434C100.826 62.9528 102.221 62.4376 103.449 61.636C104.473 60.9999 105.345 60.1501 106.005 59.1457C106.498 58.3619 106.833 57.4906 106.99 56.5803C107.109 55.872 107 55.145 106.679 54.5017C106.533 54.2278 106.332 53.9869 106.089 53.7926C105.846 53.5987 105.565 53.4563 105.264 53.3735C104.935 53.2798 104.585 53.2798 104.255 53.3735C103.931 53.4388 103.63 53.5873 103.383 53.8043C103.211 53.9455 103.053 54.1021 102.911 54.2725C102.718 54.4923 102.557 54.6842 102.44 54.8436C102.321 55.0026 102.199 55.2602 102.1 55.4193C101.905 55.7105 101.728 56.014 101.572 56.3275C101.473 56.5194 101.232 57.095 100.846 58.0548C100.685 58.467 100.459 59.1083 100.171 59.9695C99.8836 60.8308 99.7091 61.5143 99.6146 61.9918Z" fill="#401B60"/>
<path opacity="0.21" d="M129.108 60.6527C129.172 60.6673 129.233 60.6973 129.284 60.7399C129.335 60.7821 129.374 60.8361 129.4 60.8969C129.426 60.9578 129.437 61.0235 129.432 61.0896C129.427 61.1553 129.407 61.219 129.372 61.2754C129.183 61.7853 128.9 62.4315 128.556 63.2132C128.212 63.9949 127.646 65.1701 126.891 66.7336C126.189 68.2008 125.382 69.617 124.477 70.9703C123.868 71.969 123.066 72.8392 122.119 73.5308C121.954 73.6971 121.757 73.8277 121.539 73.9146C121.421 73.9778 121.29 74.0115 121.157 74.0131C121.115 74.046 121.063 74.0626 121.011 74.0598H120.911C120.813 74.0634 120.716 74.0472 120.624 74.0131C120.403 73.9823 120.199 73.8805 120.044 73.7227C119.924 73.6018 119.812 73.4736 119.709 73.3389C119.57 73.1296 119.456 72.9053 119.369 72.6696C119.263 72.2599 119.183 71.8441 119.129 71.4242C119.068 71.0291 119.037 70.6303 119.035 70.2304C119.018 68.74 119.114 67.2504 119.322 65.7738C119.355 65.362 119.412 64.889 119.492 64.3694C119.572 63.8501 119.652 63.3211 119.733 62.8108C119.813 62.3005 119.869 61.8746 119.902 61.4717C119.997 60.6434 120.063 60.002 120.096 59.557C119.826 59.714 119.568 59.8893 119.322 60.0815L118.818 60.4653C118.606 60.6247 118.389 60.7837 118.162 60.9334C117.936 61.0831 117.728 61.2563 117.535 61.4016C117.194 61.6295 116.84 61.8376 116.474 62.0242C116.041 62.2242 115.589 62.3812 115.125 62.4924C114.868 62.5244 114.61 62.5398 114.352 62.539H113.918C113.737 62.5102 113.56 62.4616 113.39 62.3942C113.064 62.2648 112.769 62.0701 112.522 61.823C112.322 61.6129 112.162 61.3687 112.05 61.1022C111.848 60.6803 111.719 60.2276 111.668 59.7631C111.6 59.3518 111.567 58.9351 111.569 58.5181C111.601 57.7027 111.746 56.8959 112.003 56.1211C112.249 55.3134 112.66 54.5642 113.21 53.9208C113.51 53.5861 113.87 53.3098 114.271 53.1062C114.695 52.9184 115.158 52.8364 115.62 52.8677C115.885 52.8381 116.152 52.8973 116.379 53.0356C116.607 53.1735 116.781 53.3833 116.875 53.6307C117.167 54.3049 116.979 55.2927 116.323 56.6034C115.689 57.867 114.938 59.069 114.078 60.1939C114.078 60.2118 114.083 60.2296 114.091 60.2458C114.099 60.2621 114.111 60.2763 114.125 60.2876H114.271C114.386 60.2621 114.499 60.2308 114.611 60.1939C115.166 60.0418 115.678 59.7627 116.106 59.3793L116.95 58.6629C117.318 58.34 117.582 58.1202 117.742 57.9891C118.129 57.6707 118.469 57.418 118.756 57.2261C119.201 56.9507 119.691 56.7555 120.204 56.6501C120.346 56.6164 120.492 56.601 120.638 56.6034H121.072C121.187 56.6006 121.301 56.6164 121.411 56.6501C121.603 56.7142 121.782 56.8107 121.94 56.9356C122.084 57.048 122.213 57.1766 122.326 57.3194C122.461 57.4906 122.56 57.6865 122.619 57.8954C122.717 58.1737 122.78 58.463 122.807 58.7567C122.843 58.9781 122.861 59.2021 122.859 59.426C122.859 59.7444 122.859 60.1469 122.807 60.6247C122.774 60.9756 122.746 61.3594 122.713 61.7715C122.647 62.3472 122.553 63.0822 122.425 63.9763C122.293 64.7113 122.18 65.4273 122.086 66.1295C121.987 66.5466 121.86 67.2252 121.699 68.1659C121.539 69.1071 121.411 69.8328 121.312 70.3427C121.213 70.853 121.199 71.1901 121.171 71.3492C121.138 71.7005 121.119 72.0047 121.119 72.2574C121.114 72.3568 121.132 72.4562 121.171 72.5479V72.6412H121.072V72.6883H121.218C121.348 72.7187 121.486 72.702 121.605 72.6412C122.601 72.0173 123.774 70.4381 125.123 67.9039C126.363 65.6261 127.474 63.2818 128.452 60.8819C128.473 60.8186 128.509 60.761 128.556 60.7132C128.603 60.6657 128.66 60.6292 128.723 60.6073C128.787 60.585 128.854 60.5777 128.921 60.5854C128.988 60.5935 129.051 60.6162 129.108 60.6527ZM113.649 59.1688C114.322 58.2102 114.919 57.2009 115.432 56.1491C115.947 55.0976 116.125 54.3954 115.965 54.0425C115.93 53.9492 115.817 53.9021 115.625 53.9021C115.344 53.9358 115.077 54.0421 114.852 54.2112C114.635 54.3962 114.441 54.6051 114.271 54.8339C113.948 55.3771 113.735 55.9783 113.644 56.6034C113.516 57.2346 113.485 57.8816 113.55 58.5226C113.553 58.7416 113.586 58.9587 113.649 59.1688Z" fill="#401B60"/>
<path opacity="0.21" d="M142.761 60.5542C143.029 60.746 143.058 60.9846 142.831 61.275C142.66 61.5245 142.474 61.7638 142.275 61.9914C141.848 62.4397 141.373 62.8413 140.86 63.1897C140.252 63.6595 139.554 64.0019 138.808 64.1962C138.524 64.2574 138.233 64.2887 137.941 64.2899C137.859 64.2875 137.777 64.2716 137.7 64.2428C136.616 67.5417 135.432 69.7123 134.149 70.7545C134.125 70.7829 134.096 70.8064 134.063 70.8235C134.03 70.8401 133.993 70.8502 133.956 70.8531C133.754 71.0871 133.509 71.281 133.234 71.4242C133.07 71.5208 132.89 71.5861 132.701 71.6161C132.587 71.6242 132.474 71.6396 132.362 71.6628C132.265 71.6534 132.169 71.6376 132.074 71.6161C131.658 71.5743 131.26 71.4259 130.919 71.1853C130.605 70.9752 130.328 70.716 130.098 70.4174C129.71 69.9176 129.386 69.372 129.131 68.7931C128.892 68.2779 128.683 67.7498 128.504 67.211C128.163 66.1985 127.922 65.156 127.783 64.098C127.618 63.1686 127.504 62.2308 127.443 61.2892C127.349 59.8706 127.349 58.4476 127.443 57.029L127.542 55.3998C127.604 55.1098 127.844 54.9037 128.264 54.7776C128.723 54.6457 129.202 54.5966 129.679 54.6323C130.14 54.6473 130.592 54.7626 131.004 54.9694C131.358 55.1613 131.537 55.3812 131.537 55.6388C131.504 55.7564 131.487 55.8773 131.485 55.999C131.484 56.1195 131.469 56.2388 131.438 56.3548C131.371 56.9961 131.31 57.6188 131.244 58.2273C131.084 60.3339 131.004 62.2174 131.004 63.8777C130.995 64.8874 131.06 65.8967 131.197 66.8971C131.271 67.7335 131.467 68.555 131.777 69.3363C131.782 69.3874 131.798 69.4369 131.824 69.4811C131.838 69.4929 131.849 69.5075 131.857 69.5233C131.866 69.5395 131.87 69.557 131.871 69.5748C131.913 69.6438 131.962 69.7083 132.018 69.7667C132.079 69.8653 132.145 69.959 132.211 70.0572L132.452 70.1975C132.528 70.2275 132.61 70.245 132.692 70.249C132.826 70.2401 132.957 70.2068 133.079 70.1509C133.182 70.1476 133.282 70.1152 133.366 70.0572L133.466 69.959L133.513 70.0056C134.641 69.0694 135.742 67.0269 136.814 63.8777C135.817 63.1163 135.319 61.5557 135.319 59.1964C135.29 57.6813 135.536 56.1734 136.045 54.7447C136.653 53.1809 137.46 52.404 138.455 52.404C138.686 52.4016 138.911 52.4758 139.095 52.615C139.278 52.7541 139.41 52.9501 139.469 53.1716C139.7 54.4088 139.708 55.6769 139.493 56.9166C139.253 58.6281 138.907 60.3229 138.455 61.9914C138.327 62.4595 138.2 62.8855 138.068 63.3301C138.265 63.3309 138.461 63.2993 138.648 63.2364C139.274 63.0721 139.857 62.7788 140.36 62.3752C140.793 62.0681 141.197 61.7237 141.568 61.3452C141.749 61.1408 141.918 60.9249 142.072 60.6994C142.105 60.6418 142.15 60.5923 142.204 60.5534C142.257 60.5144 142.319 60.4872 142.384 60.4734C142.449 60.4596 142.516 60.4601 142.581 60.4738C142.646 60.4876 142.707 60.5152 142.761 60.5542ZM137.139 62.8056C138.108 59.613 138.606 56.9604 138.634 54.8477C138.681 54.3447 138.615 53.8381 138.441 53.3634C137.894 53.3979 137.411 53.9565 136.993 55.0396C136.521 56.3613 136.292 57.7567 136.319 59.1591C136.319 60.888 136.592 62.1038 137.139 62.8056Z" fill="#401B60"/>
<path opacity="0.21" d="M159.498 59.9322C159.564 59.9541 159.623 59.9915 159.672 60.0405C159.72 60.0896 159.757 60.1493 159.778 60.215C159.799 60.2803 159.804 60.3501 159.793 60.4178C159.782 60.486 159.755 60.5505 159.715 60.606C158.842 62.1938 157.825 63.6996 156.678 65.1048C154.162 68.2665 151.734 70.1188 149.392 70.6615C148.965 70.778 148.53 70.8579 148.09 70.9005C147.416 70.9942 146.982 71.0595 146.788 71.0923C146.468 71.0923 146.128 71.0923 145.774 71.0408C145.397 70.9589 145.026 70.8477 144.666 70.7086C144.323 70.5897 144.003 70.4104 143.723 70.1796C143.261 69.8474 142.855 69.4446 142.521 68.9858C141.981 68.2345 141.587 67.3899 141.36 66.4954C141.134 65.603 141.022 64.6862 141.026 63.7661C141.029 62.8465 141.142 61.9305 141.36 61.0368C141.553 60.1509 141.828 59.284 142.181 58.4483C142.51 57.6374 142.931 56.8662 143.435 56.1494C143.89 55.4651 144.425 54.8363 145.029 54.2769C145.411 53.954 145.784 53.6498 146.138 53.3407C146.395 53.1585 146.67 53.0015 146.958 52.8725C147.26 52.7046 147.576 52.5606 147.902 52.4421C148.215 52.333 148.539 52.2531 148.868 52.2032C149.348 52.1403 149.833 52.1233 150.316 52.1517L150.458 52.2032H150.693C150.803 52.2369 150.918 52.2527 151.033 52.2502C151.246 52.279 151.456 52.3277 151.66 52.3951C152.083 52.5034 152.48 52.6944 152.828 52.9573C153.175 53.2202 153.466 53.5496 153.683 53.926C154.148 54.7564 154.301 55.7231 154.117 56.6553C153.84 58.5453 152.881 60.2718 151.42 61.5143C149.746 63.0088 147.63 63.9251 145.388 64.1268C145.327 64.6987 145.295 65.274 145.293 65.8492C145.299 66.3498 145.364 66.8479 145.487 67.3331C145.543 67.602 145.64 67.8609 145.774 68.101C145.849 68.2576 145.946 68.4024 146.062 68.5318C146.204 68.7018 146.362 68.8588 146.534 69C146.701 69.1395 146.877 69.2681 147.062 69.3837C147.374 69.5618 147.719 69.675 148.076 69.7159C148.428 69.7825 148.792 69.7662 149.137 69.6693C150.22 69.3882 151.231 68.8823 152.103 68.1854C153.042 67.4868 153.914 66.7031 154.706 65.8447C155.473 64.9908 156.191 64.0955 156.857 63.1621C157.56 62.1743 158.036 61.4721 158.272 61.0555C158.508 60.6389 158.682 60.3208 158.781 60.0961C158.812 60.0328 158.856 59.9773 158.911 59.9339C158.967 59.89 159.031 59.8592 159.1 59.8434C159.169 59.8276 159.24 59.8276 159.309 59.843C159.378 59.858 159.442 59.8888 159.498 59.9322ZM145.774 61.9918C145.68 62.3759 145.595 62.7597 145.534 63.1434C146.989 62.952 148.382 62.4368 149.609 61.636C150.634 61.0011 151.506 60.1513 152.165 59.1457C152.661 58.3631 152.997 57.4918 153.155 56.5803C153.269 55.8716 153.159 55.1454 152.839 54.5017C152.693 54.2278 152.492 53.9865 152.249 53.7926C152.006 53.5982 151.725 53.4559 151.424 53.3735C151.093 53.2798 150.742 53.2798 150.41 53.3735C150.088 53.4396 149.789 53.5881 149.543 53.8043C149.369 53.9431 149.211 54.1 149.071 54.2725C148.878 54.4923 148.712 54.6842 148.599 54.8436C148.486 55.0026 148.359 55.2602 148.265 55.4193C148.068 55.7105 147.89 56.014 147.732 56.3275C147.637 56.5178 147.397 57.0938 147.01 58.0548C146.85 58.467 146.624 59.1083 146.331 59.9695C146.039 60.8308 145.869 61.5143 145.774 61.9918Z" fill="#401B60"/>
</g>
<g opacity="0.82">
<path opacity="0.82" d="M64.6974 61.1212L65.169 61.3131C65.4943 61.4441 65.5887 61.6502 65.4612 61.9358C63.3139 66.951 61.2279 70.3058 59.2033 72.0006C58.9143 72.2599 58.6086 72.5008 58.2886 72.7215C57.9527 73.0079 57.5799 73.2489 57.1802 73.4379C56.9869 73.5032 56.8218 73.5503 56.7086 73.5827L56.6142 73.6298H56.1425C56.0678 73.6314 55.9934 73.6156 55.9259 73.5827C55.7764 73.5624 55.63 73.5215 55.4919 73.461C55.422 73.4318 55.357 73.3921 55.2986 73.3442C55.2258 73.3077 55.1605 73.2586 55.1053 73.199L54.959 73.0537L54.8127 72.9134C54.7407 72.8103 54.6602 72.7134 54.5723 72.6233C54.3778 72.3309 54.2196 72.0165 54.1007 71.6871C53.9217 71.2842 53.7766 70.868 53.6667 70.4417C53.4734 69.6413 53.3275 68.972 53.233 68.4288C53.1999 68.1104 53.1574 67.7688 53.1104 67.3988C53.063 67.0289 53.0209 66.6966 52.9923 66.3924C52.9641 66.0881 52.9171 65.7466 52.8697 65.3624C52.8227 64.9787 52.7802 64.6464 52.752 64.3608C52.7189 63.9442 52.6388 63.3215 52.5068 62.4883C52.4455 62.2636 52.3793 61.9918 52.3135 61.6737C52.2473 61.3553 52.186 61.1168 52.1247 60.8592C51.8982 60.2551 51.7192 59.8199 51.5917 59.5671C51.3747 59.1347 51.0772 58.7469 50.7147 58.4248C50.5545 58.2658 50.375 58.1064 50.1817 57.9567C49.7526 58.1928 49.3006 58.3855 48.833 58.5323C48.1791 58.7639 47.4974 58.9088 46.8051 58.9631C46.6277 58.9684 46.4507 58.9526 46.277 58.9165C46.0948 58.9181 45.9137 58.8844 45.7441 58.8179C45.5733 58.7944 45.411 58.7282 45.2725 58.626C45.1253 58.5238 45.0223 58.37 44.9847 58.1956C44.9189 58.1453 44.8666 58.08 44.8327 58.0045C44.7988 57.9295 44.7849 57.8467 44.7914 57.7648C44.8115 57.5023 44.9034 57.25 45.0583 57.0362C45.2132 56.8225 45.4241 56.6549 45.6685 56.5523C46.311 56.203 47.0352 56.0286 47.7671 56.0468C48.1211 56.0468 48.569 56.0468 49.1158 55.9998L49.6488 55.3775C50.2573 54.6424 50.8373 53.8794 51.3845 53.0786C51.5762 52.8259 52.1075 51.9801 52.9784 50.5416C54.1395 48.6159 55.1698 46.616 56.0624 44.5541C56.53 43.5602 56.933 42.5375 57.2697 41.4925C57.3081 41.4159 57.3396 41.336 57.3641 41.254L57.463 40.9636C57.4917 40.8857 57.5154 40.8058 57.5337 40.725C57.5337 40.6593 57.5763 40.5798 57.6094 40.4861C57.6425 40.3925 57.6613 40.3036 57.6801 40.224C57.6878 40.1352 57.6878 40.0459 57.6801 39.9572C57.8272 39.4912 57.9236 39.011 57.9678 38.5247C58.1313 37.734 58.1313 36.9186 57.9678 36.1278C57.8909 35.7176 57.7303 35.3274 57.4961 34.9809L57.4491 34.8826L57.3498 34.789C57.3081 34.7213 57.2607 34.6571 57.2084 34.5971C57.1655 34.5568 57.1161 34.5236 57.0621 34.4988L56.9681 34.3583C56.3902 33.9118 55.7371 33.571 55.0391 33.3518C54.6524 33.2255 54.3929 33.1459 54.2658 33.1131C54.1228 33.0862 53.9777 33.0706 53.8318 33.0663C53.721 33.0335 53.6029 33.0335 53.4922 33.0663C52.9613 33.0889 52.4455 33.2504 51.9976 33.5344C50.713 34.3943 49.5531 35.4243 48.5502 36.596C47.1966 38.112 45.9623 39.7286 44.8576 41.4317C43.8008 43.0953 42.8812 44.8409 42.1079 46.6513C41.8881 48.0277 41.6633 49.3526 41.4336 50.626C40.7043 55.201 40.195 58.8759 39.9058 61.6502C39.7454 63.2794 39.648 64.5714 39.6133 65.5263C39.6088 65.9263 39.6261 66.3267 39.6652 66.7246C39.6563 66.9023 39.6722 67.0804 39.7124 67.2536L39.6133 67.3473C39.5775 67.3522 39.5443 67.3684 39.5191 67.3944C39.5048 67.4065 39.4932 67.4216 39.4851 67.4386C39.477 67.4552 39.4725 67.4739 39.4719 67.4925V68.1152H39.2785C39.2248 68.0901 39.1755 68.0572 39.1323 68.0167C39.0605 67.981 38.9951 67.9335 38.939 67.8763C38.8304 67.7282 38.7342 67.5716 38.6513 67.4082C38.6171 67.2767 38.5681 67.1498 38.5051 67.0289C38.4323 66.7623 38.3833 66.4897 38.3589 66.2143C38.2527 65.7243 38.1724 65.229 38.1184 64.7304C38.0241 63.8379 37.9439 62.8315 37.8779 61.7111C37.8119 59.9229 37.8276 57.9441 37.9251 55.775C38.0256 52.4547 38.2992 48.8954 38.7456 45.0972C39.038 42.4787 39.3917 39.9088 39.8067 37.3871L40.2783 34.466C40.3281 34.1397 40.4794 33.837 40.7111 33.6002C40.9427 33.3635 41.2431 33.2047 41.5705 33.1459C41.8991 33.0649 42.2416 33.0552 42.5743 33.1174C42.9073 33.1796 43.2229 33.3123 43.4991 33.5063C43.7766 33.673 43.9941 33.9228 44.1195 34.2197C44.2446 34.5167 44.272 34.8455 44.1972 35.1588C44.1972 35.2524 43.9078 36.8644 43.3295 39.9946C43.1378 41.0463 42.9445 42.0714 42.7496 43.0702C43.9695 40.8719 45.3902 38.7893 46.9939 36.8488C48.6005 34.9014 50.1127 33.5282 51.5304 32.7292C52.0793 32.3689 52.6805 32.0942 53.3131 31.9147C53.4848 31.847 53.6634 31.7983 53.8461 31.7695L54.3177 31.7227L54.8221 31.6993H55.2937C56.2983 31.6217 57.3069 31.7822 58.2367 32.1675C58.4382 32.2214 58.6315 32.3017 58.8117 32.4062C58.9339 32.4962 59.0635 32.5761 59.1988 32.645C59.2977 32.7433 59.359 32.7901 59.3921 32.7901C59.4289 32.8273 59.4701 32.8603 59.5147 32.8884C59.5617 32.9165 59.5854 32.9493 59.5854 32.982L59.8024 33.1505L60.019 33.3659C60.1183 33.4595 60.1796 33.525 60.2123 33.5578C60.2642 33.6468 60.3296 33.7273 60.4061 33.7966L60.5994 34.0353C60.6366 34.0797 60.668 34.1284 60.6934 34.1804C60.7187 34.2324 60.7518 34.2798 60.7927 34.3209C60.854 34.4192 60.9672 34.6111 61.1274 34.8967C61.4916 35.6028 61.7372 36.3635 61.8537 37.1484C61.9432 37.6696 61.9906 38.1972 61.9951 38.726C62.0261 39.3984 61.9943 40.0722 61.9007 40.7388C61.868 40.9307 61.8018 41.2491 61.7073 41.6751C61.6133 42.101 61.5614 42.5083 61.514 42.6864C61.185 43.95 60.7494 45.1836 60.2123 46.3751C59.198 48.6898 57.8668 50.8544 56.2558 52.8072C55.5307 53.6924 54.7428 54.5244 53.898 55.2976C53.4264 55.7097 52.9829 56.0797 52.5963 56.3977C52.6482 56.4241 52.6968 56.4553 52.7426 56.4914C53.1864 56.7008 53.6054 56.9583 53.9924 57.2593C54.6622 57.7587 55.2348 58.3757 55.6807 59.0804C55.901 59.4483 56.0947 59.8316 56.2607 60.2272C56.4384 60.6182 56.5958 61.0182 56.7323 61.4255C56.9497 62.21 57.1075 63.0096 57.2039 63.8177C57.3645 65.3145 57.3645 66.824 57.2039 68.3209C57.197 68.4653 57.1815 68.6093 57.1565 68.7517C57.1234 68.9436 57.0907 69.1732 57.0576 69.4446C57.0245 69.716 56.9914 69.9456 56.9632 70.1374C56.9301 70.4883 56.9068 70.793 56.888 71.0502C56.8688 71.3078 56.888 71.4481 56.888 71.481L56.8406 71.5276L56.7936 71.5747L56.6943 71.6729H56.6473L56.8406 71.7666C57.1287 71.829 57.4287 71.8128 57.7083 71.7195C58.0213 71.6112 58.3144 71.453 58.5759 71.2514C60.4625 69.6912 62.4401 66.4658 64.509 61.5752L64.6974 61.1212ZM48.0549 57.0533H47.7671C47.3057 57.0375 46.8459 57.119 46.4185 57.2918C46.0649 57.4512 45.8524 57.6102 45.7911 57.7599C45.8504 57.7928 45.917 57.8106 45.9844 57.8114C46.2264 57.8398 46.4712 57.8224 46.7062 57.7599C47.2036 57.6281 47.6646 57.3867 48.0549 57.0533Z" fill="black"/>
<path opacity="0.82" d="M81.0002 60.2125L81.4719 60.4515C81.5372 60.473 81.5969 60.5095 81.6456 60.5582C81.6942 60.6068 81.7302 60.6661 81.7514 60.7314C81.7727 60.7967 81.778 60.8661 81.7669 60.9338C81.7563 61.0011 81.7293 61.0656 81.6885 61.1208C80.8135 62.7102 79.7954 64.2172 78.647 65.6245C76.1318 68.7858 73.7046 70.6364 71.3656 71.1763C70.9402 71.2964 70.5045 71.3763 70.0639 71.4149L68.7578 71.6071C68.4369 71.6071 68.0973 71.6071 67.7483 71.5601C67.3694 71.4781 66.9971 71.367 66.6354 71.2278C66.3019 71.1053 65.9925 70.9264 65.7207 70.6989C65.2548 70.3674 64.8469 69.9626 64.5134 69.5005C63.9752 68.7509 63.5833 67.9075 63.3577 67.0147C63.128 66.1214 63.0139 65.2026 63.0184 64.2809C63.0217 63.3609 63.1357 62.4445 63.3577 61.5516C63.551 60.6669 63.8256 59.802 64.1783 58.9676C64.5057 58.1558 64.9266 57.3843 65.433 56.6691C65.8875 55.9856 66.4208 55.3572 67.022 54.7966L68.1304 53.8883C68.3871 53.7049 68.6621 53.5484 68.9511 53.4202C69.2539 53.253 69.569 53.109 69.8943 52.9894C70.2 52.8786 70.516 52.7975 70.8372 52.746C71.3174 52.6847 71.8021 52.6689 72.2852 52.6993L72.4311 52.746H72.6248C72.7327 52.7817 72.8459 52.7991 72.9596 52.7975C73.1721 52.8275 73.3817 52.8741 73.5869 52.9378C74.0103 53.0478 74.408 53.2396 74.7562 53.5033C75.1044 53.767 75.3962 54.0968 75.6144 54.4733C76.0771 55.3045 76.2308 56.2703 76.0485 57.2025C75.7673 59.0929 74.8077 60.8182 73.3462 62.0619C71.675 63.5564 69.56 64.4716 67.3191 64.6691C67.257 65.2415 67.2239 65.8163 67.2202 66.392C67.23 66.8938 67.2946 67.3927 67.4135 67.8807C67.4708 68.1485 67.5693 68.4061 67.7058 68.6438C67.7781 68.8016 67.8754 68.9468 67.9935 69.0742C68.1329 69.2474 68.291 69.4044 68.4651 69.5423C68.6323 69.6827 68.8105 69.8097 68.9981 69.9216C69.3091 70.1021 69.6544 70.2169 70.012 70.2587C70.3647 70.3236 70.7277 70.3074 71.073 70.2121C72.1552 69.9281 73.1659 69.4226 74.0393 68.7278C74.9773 68.0284 75.8486 67.2447 76.6427 66.3875C77.4086 65.536 78.1251 64.6419 78.7884 63.7097C79.4958 62.7171 79.9675 62.0149 80.2033 61.6031C80.3896 61.2928 80.558 60.9723 80.7076 60.6433L81.0002 60.2125ZM67.7389 62.511C67.64 62.8952 67.5599 63.2789 67.4937 63.6582C68.9515 63.4716 70.3472 62.956 71.5728 62.1508C72.5983 61.5159 73.4704 60.6661 74.1288 59.6604C74.6225 58.8787 74.9577 58.009 75.1146 57.0995C75.2323 56.39 75.1236 55.6614 74.8036 55.0164C74.6565 54.7438 74.4554 54.5037 74.2122 54.3106C73.969 54.1175 73.6887 53.9755 73.3887 53.8928C73.0597 53.7946 72.7086 53.7946 72.3796 53.8928C72.0555 53.9581 71.7547 54.1065 71.507 54.3236C71.335 54.4643 71.1772 54.6209 71.0354 54.7917C70.8405 55.0164 70.6831 55.2083 70.5638 55.3677C70.435 55.5921 70.3218 55.7844 70.2241 55.9434C70.0288 56.2346 69.8522 56.5381 69.6961 56.8516C69.5972 57.0435 69.3565 57.6192 68.9699 58.5741C68.8097 58.9907 68.5832 59.6276 68.2955 60.4888C68.0078 61.3504 67.8333 62.0335 67.7389 62.511Z" fill="black"/>
<path opacity="0.82" d="M97.6427 61.8425C97.1187 62.3545 96.5363 62.804 95.9074 63.1812C95.3511 63.5329 94.7712 63.8457 94.1716 64.1175C93.7 64.3236 92.9975 64.5856 92.0967 64.9041C91.3578 65.1945 90.8109 65.4188 90.4558 65.5783C90.5915 65.7422 90.7361 65.8983 90.8894 66.0464C91.1489 66.332 91.361 66.6034 91.5637 66.861C91.773 67.1535 91.9667 67.4565 92.1441 67.7692C92.2949 68.1279 92.4241 68.495 92.5307 68.869C92.5953 69.1375 92.6443 69.4097 92.6766 69.6836C92.7089 70.0527 92.6917 70.4243 92.6251 70.7886C92.5009 71.5885 92.1764 72.3451 91.6819 72.9889C91.3014 73.5317 90.8457 74.0189 90.3283 74.4351C90.3001 74.4679 90.2012 74.5616 90.0405 74.7206L89.8002 74.9125C89.6592 74.9709 89.5284 75.0517 89.4132 75.1515C88.7368 75.6285 88.0093 76.0305 87.2442 76.3498C86.7121 76.5944 86.1637 76.8021 85.6029 76.9725C85.0042 77.123 84.3838 77.1721 83.7683 77.1177C83.2758 77.0191 82.8226 76.781 82.4633 76.4321C82.1045 76.0833 81.8548 75.6383 81.7452 75.1515C81.4187 74.0992 81.4187 72.9735 81.7452 71.9212C82.0117 70.8206 82.559 69.8065 83.3347 68.9769C83.9955 68.351 84.6879 67.7587 85.4096 67.2025C85.1501 67.0155 84.9899 66.9032 84.938 66.8703C84.0004 66.1989 83.0984 65.4805 82.2357 64.7166C81.7828 64.2688 81.3635 63.7885 80.9814 63.2798C80.5523 62.7362 80.1955 62.1399 79.9204 61.5054C79.7275 60.9655 79.6131 60.4012 79.5808 59.8297C79.5489 59.6406 79.5489 59.4475 79.5808 59.2585V58.968C79.582 58.8707 79.5992 58.7741 79.6327 58.6829C79.6266 58.5835 79.6429 58.4845 79.6797 58.3924C79.6793 58.2954 79.6952 58.1989 79.7267 58.1068C79.7565 57.9259 79.8056 57.7486 79.873 57.5778C80.0782 56.9186 80.37 56.289 80.7407 55.7053C80.8281 55.5982 80.9082 55.4854 80.9814 55.3682C81.0709 55.2814 81.1514 55.1857 81.2217 55.0826C81.2879 55.0173 81.4011 54.8907 81.5613 54.6989C82.1891 54.0612 82.9554 53.5744 83.8014 53.2758L84.0421 53.1821L84.2354 53.1306L84.6691 52.9902L85.1031 52.892H85.1975C85.242 52.8661 85.2919 52.8499 85.3434 52.845H85.5367C85.6123 52.8081 85.6937 52.7841 85.7774 52.7748C85.8412 52.7606 85.9058 52.7509 85.9708 52.7468H86.4048C86.4436 52.7545 86.4837 52.7545 86.5225 52.7468C86.5634 52.7415 86.6046 52.7415 86.6451 52.7468H87.2724C89.074 52.8434 90.7778 53.6892 92.3844 55.2842C92.4379 55.328 92.4809 55.3832 92.5103 55.4453C92.5397 55.5077 92.5552 55.5755 92.5552 55.6445C92.5552 55.7134 92.5397 55.7812 92.5103 55.8436C92.4809 55.9061 92.4379 55.9609 92.3844 56.0051C92.2859 56.0947 92.1572 56.1446 92.0235 56.1446C91.8899 56.1446 91.7611 56.0947 91.6631 56.0051C90.2482 54.5695 88.7691 53.819 87.225 53.7533H86.8858L86.6925 53.7999H86.5556L86.169 53.8985C86.0533 53.9208 85.9397 53.952 85.8293 53.9922L85.683 54.0904L85.5416 54.137L85.2494 54.3289C85.1485 54.3853 85.052 54.4494 84.9617 54.5212L84.8154 54.6615L84.721 54.7597C84.2612 55.2169 83.886 55.7511 83.613 56.3373C83.5791 56.4408 83.5296 56.5385 83.4667 56.6278C83.4377 56.704 83.4217 56.7848 83.4193 56.8663C83.3735 56.9401 83.3404 57.0209 83.3204 57.1052C83.1863 57.4902 83.1209 57.8959 83.127 58.3036V58.734C83.134 58.7843 83.1516 58.8321 83.1789 58.8747V59.1648C83.2071 59.1648 83.226 59.1976 83.226 59.2585C83.2403 59.2707 83.2521 59.2857 83.2599 59.3027C83.268 59.3197 83.2725 59.338 83.2734 59.3567L83.5611 59.9278C84.0057 60.5347 84.5436 61.0685 85.155 61.5103C85.7349 61.9784 86.5368 62.5821 87.5647 63.2798C88.4654 63.9536 89.1586 64.4781 89.6396 64.8619L91.715 64.0473C92.617 63.698 93.2929 63.4262 93.7425 63.2327C94.291 62.9898 94.8219 62.7098 95.3319 62.3951C95.9016 62.0592 96.4354 61.6669 96.9258 61.2247C96.9618 61.1659 97.0117 61.1172 97.0713 61.0823C97.131 61.0474 97.198 61.028 97.2671 61.0251C97.3362 61.0223 97.4048 61.0365 97.4674 61.0665C97.5295 61.0965 97.583 61.1412 97.6239 61.1963C97.6705 61.2361 97.7085 61.2848 97.7351 61.3395C97.7616 61.3947 97.7759 61.4543 97.778 61.5152C97.7796 61.5764 97.7686 61.6369 97.7453 61.6933C97.722 61.7496 97.6868 61.8004 97.6427 61.8425ZM88.7675 71.3691C88.8843 71.0811 88.9346 70.7707 88.9134 70.4608C88.8606 70.3273 88.7961 70.1987 88.72 70.077C88.6775 69.9687 88.6117 69.8714 88.5267 69.7915C88.4609 69.6929 88.3665 69.5667 88.239 69.4077L87.8524 69.0235C87.6856 68.9079 87.5279 68.7793 87.3808 68.6398C87.093 68.4199 86.7252 68.1717 86.2728 67.8252C85.4909 68.379 84.7504 68.9874 84.056 69.6462C83.3567 70.3841 82.8683 71.294 82.6415 72.2818C82.3787 73.1236 82.3787 74.0241 82.6415 74.8659C82.7102 75.1701 82.8651 75.4484 83.087 75.6687C83.3089 75.8894 83.5893 76.0427 83.8958 76.1113C84.3286 76.1636 84.7675 76.08 85.1501 75.8723C85.5653 75.618 85.9389 75.3024 86.2585 74.9361C86.7375 74.418 87.1891 73.8757 87.6121 73.3118C87.6787 73.1905 87.7592 73.0773 87.8524 72.9747C88.0457 72.6891 88.1544 72.5301 88.1871 72.5066C88.4188 72.1479 88.6134 71.7666 88.7675 71.3691Z" fill="black"/>
<path opacity="0.82" d="M113.611 60.2125L114.083 60.4515C114.148 60.473 114.208 60.5095 114.257 60.5582C114.305 60.6068 114.341 60.6661 114.362 60.7314C114.384 60.7967 114.389 60.8661 114.378 60.9338C114.367 61.0011 114.34 61.0656 114.3 61.1208C113.425 62.7102 112.406 64.2172 111.258 65.6245C108.743 68.7858 106.316 70.6364 103.977 71.1763C103.551 71.2972 103.116 71.3771 102.675 71.4149L101.369 71.6071C101.048 71.6071 100.713 71.6071 100.359 71.5601C99.9805 71.4777 99.6086 71.3666 99.2465 71.2278C98.913 71.1053 98.6036 70.9264 98.3314 70.6989C97.8667 70.3662 97.4593 69.9618 97.1245 69.5005C96.5879 68.7497 96.1964 67.9067 95.9687 67.0147C95.7391 66.1214 95.625 65.2026 95.6295 64.2809C95.6328 63.3609 95.7468 62.4445 95.9687 61.5516C96.1621 60.6673 96.4367 59.802 96.7894 58.9676C97.1188 58.1567 97.5394 57.3855 98.0441 56.6691C98.4986 55.9856 99.0319 55.3572 99.6331 54.7966C100.02 54.4781 100.388 54.1739 100.746 53.8883C101.001 53.7053 101.275 53.5484 101.562 53.4202C101.872 53.2518 102.196 53.1078 102.529 52.9894C102.834 52.8786 103.15 52.7971 103.472 52.746C103.951 52.6847 104.434 52.6689 104.915 52.6993L105.061 52.746H105.255C105.364 52.7821 105.479 52.7995 105.594 52.7975C105.806 52.8279 106.017 52.875 106.221 52.9378C106.644 53.0482 107.041 53.2409 107.388 53.5041C107.735 53.7678 108.026 54.0972 108.244 54.4733C108.707 55.3045 108.861 56.2707 108.678 57.2025C108.399 59.0933 107.439 60.8198 105.976 62.0619C104.305 63.5564 102.19 64.4716 99.949 64.6691C99.8869 65.2415 99.8538 65.8163 99.8501 66.392C99.8599 66.8938 99.9249 67.3927 100.043 67.8807C100.101 68.1485 100.199 68.4061 100.336 68.6438C100.408 68.8016 100.505 68.9468 100.623 69.0746C100.765 69.245 100.923 69.402 101.095 69.5427C101.263 69.6827 101.441 69.8097 101.628 69.9216C101.939 70.1021 102.284 70.2169 102.642 70.2587C102.995 70.3236 103.358 70.3074 103.703 70.2121C104.786 69.9281 105.796 69.4227 106.669 68.7282C107.609 68.0308 108.481 67.2471 109.273 66.3875C110.04 65.5372 110.757 64.6432 111.418 63.7097C112.126 62.7171 112.597 62.0149 112.833 61.6031C113.02 61.2928 113.188 60.9723 113.338 60.6433L113.611 60.2125ZM100.345 62.5114C100.246 62.8952 100.166 63.2789 100.105 63.6582C101.561 63.4708 102.955 62.9552 104.179 62.1508C105.204 61.5159 106.077 60.6661 106.735 59.6604C107.23 58.8787 107.567 58.009 107.726 57.0995C107.84 56.3896 107.729 55.6618 107.41 55.0164C107.263 54.7438 107.062 54.5037 106.818 54.3106C106.575 54.1175 106.295 53.9755 105.995 53.8932C105.666 53.7946 105.315 53.7946 104.986 53.8932C104.663 53.956 104.363 54.1049 104.118 54.3236C103.945 54.4631 103.787 54.6201 103.646 54.7917C103.452 55.0164 103.294 55.2083 103.175 55.3677C103.049 55.5925 102.936 55.7844 102.835 55.9434C102.64 56.2346 102.463 56.5381 102.307 56.8516C102.208 57.0435 101.968 57.6192 101.581 58.5741C101.421 58.9911 101.199 59.6276 100.907 60.4888C100.614 61.3504 100.439 62.0336 100.345 62.5114Z" fill="black"/>
<path opacity="0.82" d="M129.381 60.9813L129.852 61.1731C129.917 61.1873 129.978 61.2166 130.03 61.2591C130.081 61.3013 130.122 61.3549 130.148 61.4157C130.174 61.4766 130.186 61.5427 130.181 61.6088C130.176 61.675 130.156 61.739 130.121 61.7958C129.926 62.3074 129.653 62.9536 129.301 63.7337C128.948 64.5138 128.394 65.6873 127.636 67.254C126.934 68.7144 126.128 70.1224 125.222 71.4672C124.613 72.4659 123.811 73.3361 122.863 74.0277C122.697 74.19 122.502 74.3202 122.288 74.4119C122.169 74.4727 122.036 74.5052 121.901 74.5052C121.882 74.5234 121.859 74.5372 121.833 74.5457C121.809 74.5547 121.782 74.5583 121.755 74.5567H121.661C121.561 74.562 121.461 74.5445 121.368 74.5052C121.148 74.4776 120.944 74.377 120.788 74.22C120.694 74.1214 120.581 73.9953 120.454 73.8358C120.316 73.6257 120.202 73.4014 120.114 73.1665C120.009 72.7568 119.928 72.341 119.874 71.9211C119.813 71.5248 119.781 71.124 119.779 70.7228C119.762 69.234 119.859 67.7457 120.067 66.2711C120.1 65.8589 120.157 65.3863 120.237 64.8667C120.317 64.347 120.397 63.8225 120.477 63.3122C120.558 62.8023 120.614 62.3759 120.647 61.9691C120.741 61.1403 120.807 60.5038 120.84 60.0543C120.571 60.2125 120.312 60.3894 120.067 60.5833L119.562 60.9671L118.912 61.4352C118.685 61.5942 118.473 61.7536 118.284 61.9033C117.944 62.1329 117.59 62.3406 117.223 62.526C116.581 62.8988 115.845 63.0826 115.101 63.055H114.662C114.482 63.0254 114.304 62.9767 114.134 62.9098C113.807 62.7804 113.512 62.5844 113.267 62.3341C113.067 62.126 112.907 61.8831 112.795 61.6178C112.59 61.1947 112.46 60.7407 112.408 60.2742C112.34 59.8641 112.307 59.4491 112.309 59.0337C112.34 58.2183 112.486 57.4119 112.743 56.6371C112.988 55.8282 113.399 55.0789 113.951 54.4367C114.25 54.1017 114.61 53.8254 115.012 53.6222C115.435 53.434 115.898 53.352 116.36 53.3832C116.625 53.3524 116.893 53.4104 117.121 53.5492C117.348 53.6875 117.522 53.898 117.614 54.1463C117.907 54.816 117.718 55.8083 117.063 57.1145C116.43 58.3802 115.678 59.5838 114.818 60.7095C114.823 60.7452 114.839 60.778 114.865 60.8032H115.012L115.351 60.7095C115.905 60.5549 116.417 60.2762 116.846 59.8949C117.039 59.7359 117.318 59.4925 117.69 59.1741C118.063 58.8556 118.322 58.6313 118.483 58.5047C118.869 58.1863 119.209 57.9291 119.497 57.7368C119.942 57.4658 120.432 57.2727 120.944 57.166C121.086 57.1307 121.232 57.1133 121.378 57.1145H121.812C121.927 57.1133 122.042 57.1307 122.151 57.166C122.344 57.2281 122.523 57.3251 122.679 57.4512C122.826 57.5611 122.956 57.6901 123.066 57.8354C123.196 58.0122 123.288 58.2126 123.34 58.4252C123.44 58.7031 123.505 58.9923 123.533 59.2864C123.566 59.5083 123.581 59.7318 123.58 59.9558C123.58 60.2742 123.58 60.6722 123.533 61.1545C123.5 61.5054 123.467 61.8891 123.434 62.3013C123.368 62.8769 123.274 63.612 123.147 64.5061C123.015 65.2362 122.906 65.9575 122.807 66.6597C122.713 67.0763 122.581 67.755 122.42 68.6957C122.26 69.6368 122.133 70.3626 122.033 70.8725C121.934 71.3828 121.92 71.7199 121.892 71.8793C121.859 72.2302 121.845 72.5345 121.845 72.7872C121.839 72.8862 121.855 72.9856 121.892 73.0777V73.1714H121.793V73.218H121.939C122.07 73.2484 122.207 73.2318 122.326 73.1714C123.322 72.5471 124.495 70.9662 125.844 68.4292C127.084 66.1518 128.196 63.8075 129.173 61.4072C129.315 61.1216 129.381 60.9813 129.381 60.9813ZM114.38 59.6892C115.053 58.7299 115.65 57.7202 116.167 56.6695C116.683 55.618 116.858 54.9158 116.695 54.5629C116.662 54.4696 116.549 54.4181 116.356 54.4181C116.078 54.4469 115.813 54.5471 115.587 54.7081C115.37 54.8923 115.175 55.1012 115.007 55.3308C114.682 55.8736 114.469 56.4752 114.38 57.1003C114.252 57.7303 114.22 58.3757 114.285 59.015C114.284 59.243 114.316 59.4698 114.38 59.6892Z" fill="black"/>
<path opacity="0.82" d="M143.081 60.789L143.491 61.0746C143.764 61.2664 143.788 61.5054 143.562 61.7954C143.434 61.9828 143.25 62.2262 143.01 62.5118C142.58 62.9568 142.105 63.3584 141.595 63.7101C140.987 64.1799 140.289 64.5223 139.543 64.7166C139.258 64.7778 138.967 64.8091 138.676 64.8103C138.594 64.8079 138.512 64.792 138.435 64.7632C137.341 68.0495 136.151 70.2202 134.865 71.2749C134.841 71.3029 134.812 71.326 134.778 71.3418C134.745 71.3581 134.709 71.367 134.672 71.3686C134.471 71.6055 134.227 71.801 133.95 71.9446C133.786 72.04 133.605 72.1053 133.417 72.1365C133.305 72.1422 133.193 72.1576 133.083 72.1832C132.984 72.1742 132.887 72.1588 132.79 72.1365C132.374 72.0939 131.976 71.9459 131.635 71.7057C131.322 71.4944 131.045 71.2351 130.814 70.9382C130.427 70.4356 130.102 69.8888 129.847 69.3091C129.61 68.7951 129.4 68.2681 129.221 67.7315C128.879 66.7193 128.638 65.6768 128.499 64.6184C128.334 63.689 128.221 62.7512 128.159 61.8096C128.065 60.3894 128.065 58.9647 128.159 57.5449L128.258 55.9158C128.32 55.6302 128.565 55.4476 128.98 55.298C129.438 55.1641 129.918 55.1146 130.395 55.1527C130.855 55.1686 131.307 55.2817 131.72 55.485C132.074 55.6768 132.253 55.9016 132.253 56.1592C132.222 56.2752 132.206 56.3949 132.206 56.5149C132.204 56.6366 132.186 56.7579 132.154 56.8756C132.092 57.5121 132.026 58.1392 131.96 58.7481C131.8 60.8547 131.72 62.7378 131.72 64.3981C131.711 65.4066 131.776 66.4139 131.913 67.413C131.987 68.2511 132.183 69.0738 132.493 69.8567C132.498 69.9078 132.514 69.9573 132.54 70.0019C132.554 70.0133 132.566 70.0275 132.574 70.0437C132.582 70.0599 132.587 70.0774 132.587 70.0952C132.631 70.1634 132.679 70.2279 132.734 70.2875L132.927 70.5727C133.011 70.6153 133.091 70.664 133.168 70.7179C133.245 70.7467 133.326 70.7625 133.408 70.765C133.542 70.7585 133.673 70.7264 133.795 70.6713C133.898 70.6684 133.999 70.6344 134.082 70.5727L134.182 70.4794L134.229 70.526C135.354 69.5898 136.454 67.5473 137.53 64.3981C136.53 63.6306 136.032 62.0701 136.035 59.7168C136.005 58.2005 136.25 56.691 136.756 55.2602C137.365 53.6968 138.171 52.9196 139.166 52.9196C139.397 52.9167 139.623 52.9906 139.807 53.1297C139.991 53.2688 140.122 53.4652 140.18 53.6875C140.406 54.9256 140.406 56.1941 140.18 57.4325C139.943 59.144 139.597 60.8393 139.143 62.507L138.761 63.846C138.956 63.8464 139.151 63.8148 139.336 63.7523C139.961 63.586 140.543 63.2927 141.048 62.8907C141.481 62.5852 141.886 62.2404 142.255 61.8611C142.437 61.6551 142.607 61.4397 142.765 61.2149C142.981 60.9155 143.081 60.789 143.081 60.789ZM137.869 63.3264C138.835 60.1334 139.333 57.4808 139.364 55.3681C139.414 54.8651 139.348 54.3576 139.171 53.8842C138.624 53.9183 138.142 54.4769 137.723 55.56C137.251 56.8817 137.022 58.2771 137.049 59.6795C137.049 61.4084 137.322 62.6242 137.869 63.3264Z" fill="black"/>
<path opacity="0.82" d="M159.771 60.2129L160.242 60.4515C160.308 60.473 160.367 60.5095 160.416 60.5582C160.465 60.6068 160.501 60.6661 160.522 60.7314C160.543 60.7967 160.548 60.8661 160.538 60.9338C160.527 61.0015 160.5 61.0656 160.459 61.1208C159.586 62.7102 158.57 64.2172 157.422 65.6245C154.907 68.7858 152.478 70.6364 150.136 71.1763C149.711 71.2972 149.275 71.3771 148.834 71.4153L147.533 71.6071C147.212 71.6071 146.873 71.6071 146.519 71.5601C146.142 71.4781 145.771 71.367 145.411 71.2278C145.076 71.1057 144.765 70.9264 144.491 70.6989C144.028 70.3662 143.622 69.9614 143.288 69.5005C142.749 68.7509 142.355 67.9079 142.129 67.0147C141.903 66.121 141.79 65.2026 141.794 64.2809C141.798 63.3613 141.91 62.4453 142.129 61.5516C142.322 60.6673 142.596 59.802 142.949 58.9676C143.278 58.1567 143.699 57.3855 144.203 56.6691C144.66 55.9856 145.195 55.3572 145.797 54.7966C146.18 54.4781 146.552 54.1739 146.906 53.8883C147.162 53.7041 147.437 53.5471 147.726 53.4202C148.028 53.2518 148.344 53.1078 148.669 52.9894C148.975 52.8786 149.291 52.7971 149.613 52.746C150.093 52.6847 150.577 52.6689 151.061 52.6993L151.202 52.746H151.395C151.505 52.7812 151.62 52.7987 151.735 52.7975C151.947 52.8275 152.157 52.8746 152.362 52.9378C152.785 53.0482 153.182 53.2409 153.529 53.5041C153.876 53.7678 154.167 54.0972 154.385 54.4737C154.85 55.3036 155.004 56.2707 154.819 57.2025C154.541 59.0929 153.583 60.8194 152.122 62.0619C150.449 63.5576 148.332 64.4728 146.09 64.6695C146.029 65.2415 145.998 65.8167 145.996 66.392C146.001 66.8942 146.066 67.3939 146.189 67.8807C146.245 68.1485 146.341 68.4057 146.477 68.6438C146.549 68.8016 146.646 68.9472 146.764 69.0746C146.905 69.2458 147.063 69.4028 147.236 69.5427C147.402 69.6827 147.578 69.8092 147.764 69.9216C148.075 70.1017 148.42 70.2161 148.778 70.2587C149.131 70.3236 149.494 70.3074 149.839 70.2121C150.921 69.9285 151.932 69.4227 152.805 68.7282C153.745 68.0308 154.617 67.2471 155.409 66.3875C156.176 65.5364 156.894 64.6424 157.559 63.7097C158.266 62.7171 158.738 62.0149 158.974 61.6031C159.214 61.1865 159.384 60.8681 159.483 60.6433L159.771 60.2129ZM146.505 62.5114C146.41 62.8952 146.326 63.2789 146.265 63.6582C147.721 63.4708 149.114 62.9552 150.339 62.1508C151.365 61.5175 152.238 60.6669 152.895 59.6604C153.391 58.8795 153.728 58.0094 153.885 57.0995C154 56.3896 153.889 55.6618 153.569 55.0164C153.423 54.7438 153.222 54.5033 152.979 54.3102C152.735 54.1171 152.455 53.9751 152.155 53.8932C151.824 53.7946 151.471 53.7946 151.141 53.8932C150.818 53.9573 150.518 54.1061 150.273 54.3236C150.1 54.4631 149.942 54.6201 149.801 54.7917C149.608 55.0164 149.443 55.2083 149.33 55.3677C149.217 55.5268 149.089 55.7844 148.995 55.9434C148.798 56.2346 148.62 56.5381 148.462 56.8516C148.368 57.0435 148.127 57.6192 147.74 58.5745C147.58 58.9911 147.354 59.6276 147.061 60.4888C146.769 61.3504 146.599 62.034 146.505 62.5114Z" fill="black"/>
</g>
<path d="M162.832 72.8432C161.53 72.8432 160.587 72.197 160.002 70.905C159.392 69.3493 159.113 67.6857 159.181 66.0176C159.189 64.7462 159.28 63.4761 159.455 62.2166C159.64 60.8681 159.823 59.5749 160.002 58.3356C160.181 57.0967 160.363 55.9718 160.549 54.9605C160.703 54.2064 160.795 53.4405 160.822 52.6714C160.822 52.3622 160.77 52.2032 160.667 52.1282C160.563 52.0535 160.511 51.9505 160.511 51.899C160.511 51.6929 160.837 51.5104 161.487 51.3558C162.219 51.1895 162.968 51.1112 163.718 51.1217C164.311 51.1165 164.902 51.1952 165.473 51.3558C166.019 51.512 166.293 51.8239 166.293 52.2921C166.189 53.2251 166.007 54.1476 165.746 55.0493C165.384 56.5255 164.968 58.1798 164.496 60.0118C164.025 61.8438 163.608 63.6287 163.246 65.3669C162.937 66.678 162.754 68.0151 162.7 69.3602C162.7 70.1886 162.855 70.6007 163.171 70.6007C163.487 70.6007 164.034 70.0482 164.656 69.0888C165.343 68.0297 165.972 66.936 166.543 65.8119C167.17 64.5994 167.726 63.4197 168.222 62.2819C168.717 61.1444 169.042 60.372 169.203 59.9416C169.283 59.7704 169.403 59.6207 169.552 59.5039C169.701 59.3871 169.875 59.3067 170.061 59.269C170.248 59.2313 170.44 59.237 170.623 59.2865C170.807 59.336 170.976 59.4268 171.117 59.553C171.234 59.6609 171.326 59.7935 171.387 59.9404C171.447 60.0876 171.474 60.2463 171.466 60.4049C171.388 60.8089 171.257 61.2008 171.075 61.5703C170.815 62.193 170.528 62.8392 170.217 63.5086L169.316 65.4513C169.145 65.8496 168.949 66.2375 168.731 66.6123C168.152 67.7453 167.5 68.8398 166.779 69.8892C166.319 70.5626 165.795 71.1898 165.213 71.7617C164.85 72.1345 164.411 72.4266 163.926 72.6185C163.575 72.7516 163.206 72.8274 162.832 72.8432ZM161.27 45.3171C161.255 44.8871 161.326 44.4588 161.48 44.0568C161.634 43.6547 161.867 43.2872 162.167 42.9765C162.476 42.6625 162.848 42.4171 163.259 42.2556C163.67 42.0946 164.111 42.0211 164.553 42.0402C165.245 42.0041 165.923 42.2414 166.439 42.7002C166.679 42.9375 166.865 43.2223 166.986 43.5363C167.107 43.8499 167.16 44.1857 167.142 44.5212C167.146 44.9577 167.061 45.3906 166.893 45.7942C166.724 46.1974 166.476 46.5629 166.162 46.8688C165.848 47.1747 165.475 47.4148 165.066 47.5742C164.657 47.7341 164.219 47.8099 163.779 47.7982C162.1 47.784 161.27 46.9601 161.27 45.3171Z" fill="#F2F2F2"/>
<path d="M162.831 73.358C162.114 73.371 161.41 73.1612 160.818 72.7588C160.227 72.356 159.776 71.78 159.53 71.1106C158.883 69.492 158.576 67.7587 158.63 66.0176C158.636 64.7223 158.729 63.429 158.908 62.1463C159.092 60.7979 159.271 59.501 159.455 58.2605C159.639 57.02 159.823 55.8732 160.006 54.8668C160.153 54.1431 160.241 53.4088 160.27 52.6713C160.275 52.6105 160.275 52.5496 160.27 52.4888C160.183 52.4158 160.111 52.3257 160.059 52.2243C160.007 52.1229 159.976 52.0121 159.969 51.899C159.969 51.1777 160.912 50.9627 161.341 50.8503C162.114 50.6767 162.906 50.5931 163.699 50.6021C164.337 50.5996 164.971 50.6844 165.586 50.8548C165.919 50.9128 166.221 51.0852 166.441 51.342C166.659 51.5984 166.781 51.9229 166.783 52.2592C166.783 52.5168 166.722 53.0973 166.222 55.1382C165.854 56.6144 165.436 58.2699 164.968 60.1051C164.496 61.9447 164.081 63.7426 163.723 65.4371C163.422 66.7145 163.244 68.0167 163.19 69.3273C163.185 69.5359 163.201 69.7444 163.237 69.95C163.607 69.606 163.925 69.2101 164.18 68.7748C164.85 67.7359 165.467 66.6642 166.029 65.5636C166.637 64.3791 167.198 63.223 167.694 62.062C168.188 60.901 168.509 60.1894 168.66 59.7586L168.693 59.6885C168.811 59.4495 168.983 59.241 169.196 59.0792C169.409 58.9173 169.657 58.807 169.92 58.7558C170.183 58.7051 170.455 58.7157 170.713 58.7867C170.972 58.8573 171.21 58.9867 171.409 59.1643C171.582 59.3213 171.718 59.5132 171.81 59.7274C171.901 59.9416 171.944 60.1724 171.938 60.4048C171.875 60.8807 171.728 61.3415 171.504 61.7671C171.23 62.4271 170.938 63.0822 170.636 63.7284L170.561 63.8874L169.74 65.6667C169.561 66.0804 169.358 66.4837 169.132 66.8743C168.547 68.0288 167.885 69.144 167.151 70.2121C166.67 70.9078 166.124 71.5564 165.519 72.1499C165.103 72.5759 164.598 72.9053 164.039 73.1146C163.652 73.2606 163.245 73.343 162.831 73.358ZM161.186 51.9691C161.287 52.1886 161.334 52.4296 161.322 52.6713C161.293 53.4717 161.199 54.2688 161.039 55.0542C160.86 56.0464 160.676 57.1746 160.497 58.4106C160.318 59.6463 160.134 60.9432 159.95 62.2818C159.777 63.5228 159.687 64.7742 159.681 66.0269C159.628 67.6264 159.905 69.2194 160.497 70.7082C160.968 71.8226 161.732 72.3418 162.831 72.3418C163.136 72.3337 163.437 72.2769 163.723 72.1735C164.136 72.0067 164.509 71.7548 164.817 71.4339C165.372 70.8875 165.874 70.2904 166.316 69.6503C167.025 68.613 167.665 67.5311 168.231 66.4107L168.259 66.364C168.465 66.0123 168.648 65.648 168.806 65.2732C169.07 64.702 169.344 64.1077 169.632 63.4944L169.707 63.3305C169.999 62.6985 170.287 62.0526 170.556 61.4064C170.705 61.0941 170.823 60.7679 170.91 60.4328C170.919 60.3464 170.908 60.2588 170.876 60.1773C170.845 60.0961 170.796 60.0231 170.731 59.9647C170.65 59.8913 170.554 59.8377 170.449 59.8085C170.344 59.7797 170.234 59.7757 170.127 59.7972C170.02 59.8187 169.92 59.8649 169.835 59.9323C169.749 59.9996 169.681 60.086 169.637 60.1846C169.471 60.6198 169.165 61.3736 168.665 62.4972C168.165 63.6209 167.59 64.8379 166.967 66.0549C166.398 67.1891 165.768 68.2921 165.081 69.3602C164.345 70.4928 163.775 71.0311 163.232 71.1062H163.157C162.501 71.1062 162.171 70.5115 162.171 69.346C162.223 67.9643 162.41 66.5912 162.728 65.2452C163.086 63.5317 163.511 61.7249 163.982 59.871C164.453 58.0171 164.869 56.3835 165.232 54.909C165.483 54.0482 165.662 53.1683 165.765 52.2779C165.765 52.1562 165.765 51.9736 165.322 51.8474C164.796 51.7022 164.254 51.6296 163.708 51.632C163 51.6235 162.292 51.6974 161.6 51.8519C161.412 51.899 161.28 51.9363 161.186 51.9691ZM163.77 48.3036C161.822 48.3036 160.747 47.2363 160.747 45.3029C160.734 44.8084 160.82 44.3168 161 43.8555C161.179 43.3943 161.449 42.9728 161.794 42.6158C162.151 42.2528 162.582 41.968 163.057 41.7802C163.532 41.5924 164.041 41.5055 164.553 41.525C165.373 41.4918 166.174 41.779 166.783 42.3254C167.075 42.6114 167.303 42.955 167.453 43.3343C167.602 43.7131 167.67 44.1192 167.651 44.5257C167.656 45.0295 167.558 45.5289 167.363 45.9946C167.169 46.4599 166.882 46.8814 166.52 47.2343C166.157 47.5868 165.727 47.8635 165.254 48.0472C164.782 48.231 164.277 48.3182 163.77 48.3036ZM164.553 42.5595C164.182 42.54 163.811 42.5984 163.464 42.7315C163.118 42.8649 162.804 43.0694 162.544 43.3322C162.292 43.5943 162.096 43.9034 161.966 44.2421C161.837 44.5805 161.776 44.9411 161.789 45.3029C161.789 46.6793 162.383 47.2692 163.77 47.2692C164.139 47.2797 164.506 47.2164 164.85 47.0834C165.194 46.9499 165.507 46.7495 165.771 46.4935C166.035 46.2376 166.244 45.9313 166.387 45.5934C166.529 45.2551 166.602 44.892 166.599 44.5257C166.618 44.2608 166.58 43.9943 166.488 43.7452C166.395 43.4957 166.25 43.2685 166.062 43.0791C165.646 42.7177 165.104 42.5311 164.553 42.5595Z" fill="#FBB03B"/>
<path d="M172.99 44.5257C172.681 44.5196 172.387 44.3954 172.169 44.1788C171.951 43.9626 171.826 43.6709 171.82 43.3647C171.827 43.0588 171.952 42.7667 172.17 42.5501C172.388 42.3331 172.681 42.2073 172.99 42.1992H175.494C175.701 40.8041 175.869 39.615 175.998 38.6319C176.098 37.9882 176.164 37.3398 176.196 36.6892C176.196 36.4317 176.116 36.2772 175.96 36.2211C175.805 36.1649 175.805 36.0385 175.805 35.987C175.805 35.781 176.144 35.5985 176.819 35.444C177.564 35.2833 178.325 35.2064 179.087 35.2146C179.666 35.2101 180.244 35.2746 180.808 35.4065C181.327 35.5376 181.586 35.8091 181.586 36.2211C181.6 36.8885 181.523 37.5546 181.356 38.2013C181.143 39.2592 180.884 40.5932 180.572 42.1943H182.134C182.295 42.1862 182.455 42.2134 182.605 42.2742C182.754 42.3347 182.888 42.4276 182.997 42.5456C183.201 42.7675 183.313 43.0592 183.308 43.3602C183.311 43.6608 183.2 43.9517 182.997 44.1748C182.887 44.2908 182.752 44.3825 182.604 44.4421C182.454 44.5017 182.294 44.5289 182.134 44.5208H180.106C179.688 46.5901 179.244 48.8528 178.776 51.3087C178.307 53.765 177.877 56.1572 177.484 58.4852C177.094 60.8105 176.768 62.9183 176.508 64.8099C176.284 66.2605 176.154 67.7241 176.116 69.1914C176.116 70.1277 176.248 70.563 176.508 70.5114C176.869 70.5114 177.364 70.0323 177.993 69.0742C178.679 68.0154 179.309 66.9217 179.879 65.7973C180.502 64.5851 181.077 63.4055 181.596 62.2676C182.115 61.1301 182.459 60.3578 182.615 59.927C182.695 59.7562 182.815 59.6065 182.964 59.4896C183.113 59.3728 183.287 59.2925 183.473 59.2548C183.66 59.2166 183.852 59.2227 184.035 59.2722C184.219 59.3213 184.388 59.4126 184.529 59.5387C184.647 59.6462 184.74 59.7785 184.8 59.9257C184.86 60.073 184.887 60.2316 184.878 60.3906C184.803 60.7947 184.673 61.1869 184.491 61.5561C184.227 62.1788 183.945 62.825 183.629 63.4943C183.313 64.1637 183.016 64.8143 182.732 65.437C182.559 65.835 182.362 66.2224 182.143 66.598C181.566 67.7318 180.914 68.8267 180.191 69.875C179.731 70.5467 179.209 71.1739 178.63 71.7475C178.264 72.1195 177.824 72.4111 177.338 72.6038C176.999 72.7219 176.644 72.7868 176.286 72.7961C175.671 72.8257 175.064 72.6602 174.55 72.3235C174.037 71.9868 173.646 71.4964 173.433 70.9236C172.846 69.4709 172.567 67.914 172.612 66.3498C172.612 65.2638 172.689 63.8408 172.843 62.0806C172.997 60.3204 173.207 58.4479 173.471 56.463C173.731 54.4688 174.017 52.4247 174.329 50.3307C174.64 48.2362 174.926 46.2842 175.187 44.4741L172.99 44.5257Z" fill="#F2F2F2"/>
<path d="M176.277 73.358C175.563 73.3876 174.857 73.1946 174.259 72.8055C173.661 72.4169 173.201 71.8522 172.943 71.1906C172.327 69.6637 172.033 68.0272 172.08 66.3831C172.08 65.2923 172.16 63.8412 172.315 62.0717C172.471 60.3023 172.688 58.3969 172.943 56.4258C173.197 54.4551 173.49 52.3907 173.806 50.2889C174.086 48.4164 174.343 46.6623 174.579 45.0271H172.99C172.655 45.0291 172.327 44.9318 172.047 44.7472C171.768 44.563 171.551 44.2997 171.423 43.9923C171.295 43.6844 171.263 43.3456 171.331 43.0195C171.398 42.6937 171.562 42.3952 171.801 42.1619C171.956 42.0045 172.141 41.8792 172.345 41.7932C172.549 41.7072 172.768 41.6625 172.99 41.6613H175.041C175.22 40.4565 175.368 39.4173 175.485 38.5434C175.579 37.9228 175.642 37.2978 175.673 36.6709L175.593 36.5913C175.505 36.5167 175.431 36.4253 175.379 36.3224C175.326 36.2195 175.295 36.1072 175.287 35.9921C175.287 35.2712 176.281 35.0558 176.701 34.9482C177.476 34.7783 178.266 34.695 179.059 34.7001C179.68 34.6951 180.3 34.7658 180.903 34.9107C181.22 34.9483 181.512 35.0968 181.728 35.3293C181.944 35.5618 182.07 35.8632 182.082 36.1794C182.116 36.8915 182.043 37.6045 181.865 38.2953C181.686 39.2315 181.466 40.3566 181.205 41.6707H182.148C182.382 41.663 182.615 41.706 182.831 41.7964C183.047 41.8869 183.24 42.0228 183.398 42.1948C183.69 42.5157 183.852 42.9327 183.852 43.3651C183.852 43.7975 183.69 44.2146 183.398 44.5354C183.24 44.7074 183.047 44.8433 182.831 44.9338C182.615 45.0247 182.382 45.0673 182.148 45.06H180.545C180.163 46.9605 179.753 49.0529 179.3 51.4264C178.828 53.8701 178.399 56.2809 178.012 58.5887C177.626 60.8965 177.3 63.0218 177.041 64.8992C176.812 66.3198 176.675 67.7538 176.63 69.1919C176.628 69.4235 176.641 69.6548 176.668 69.8848C177.012 69.5651 177.308 69.1976 177.546 68.7939C178.22 67.7571 178.836 66.6853 179.394 65.5827C180.012 64.384 180.587 63.2044 181.106 62.0717C181.625 60.9387 181.959 60.1708 182.106 59.7777L182.139 59.7076C182.257 59.4686 182.429 59.2601 182.642 59.0983C182.855 58.9364 183.103 58.826 183.366 58.7749C183.629 58.7242 183.9 58.7348 184.159 58.8054C184.417 58.8764 184.656 59.0058 184.855 59.183C185.028 59.3404 185.164 59.5323 185.255 59.7465C185.346 59.9603 185.39 60.1915 185.384 60.4239C185.321 60.899 185.176 61.3598 184.954 61.7862C184.681 62.432 184.388 63.092 184.086 63.7475L183.926 64.0891L183.186 65.6809C183.007 66.0967 182.804 66.5016 182.577 66.8934C181.993 68.0471 181.332 69.1607 180.597 70.2263C180.118 70.9257 179.572 71.5764 178.965 72.169C178.549 72.595 178.043 72.9244 177.484 73.1333C177.097 73.2733 176.689 73.3491 176.277 73.358ZM172.976 42.7144C172.891 42.7144 172.807 42.7327 172.73 42.7672C172.653 42.8021 172.584 42.8528 172.528 42.9156C172.462 42.9745 172.409 43.0467 172.374 43.1274C172.339 43.2085 172.322 43.2957 172.325 43.3838C172.336 43.5517 172.408 43.7095 172.528 43.8284C172.648 43.9472 172.807 44.019 172.976 44.03H175.768L175.688 44.6012C175.423 46.4141 175.137 48.3677 174.829 50.4621C174.513 52.5545 174.225 54.6145 173.966 56.5803C173.707 58.5466 173.495 60.4191 173.344 62.1979C173.193 63.9767 173.112 65.3531 173.112 66.4111C173.067 67.906 173.332 69.3943 173.891 70.7833C174.061 71.2608 174.383 71.6705 174.809 71.9508C175.234 72.2311 175.739 72.367 176.249 72.3378C176.551 72.3289 176.851 72.2721 177.135 72.169C177.55 72.0019 177.924 71.7496 178.234 71.4295C178.788 70.8831 179.288 70.286 179.729 69.6458C180.438 68.609 181.078 67.5267 181.644 66.4066L181.672 66.3596C181.878 66.0079 182.06 65.6436 182.219 65.2688C182.455 64.754 182.691 64.2201 182.96 63.6725L183.12 63.326C183.417 62.6847 183.705 62.0389 183.974 61.402C184.125 61.0892 184.242 60.7615 184.322 60.4239C184.332 60.3371 184.321 60.2495 184.29 60.1684C184.259 60.0868 184.208 60.0138 184.143 59.9558C184.063 59.8824 183.967 59.8288 183.862 59.7996C183.757 59.7704 183.646 59.7664 183.539 59.7879C183.432 59.8094 183.332 59.856 183.247 59.9234C183.162 59.9907 183.094 60.0771 183.049 60.1757C182.884 60.6065 182.554 61.3647 182.035 62.5163C181.516 63.668 180.927 64.857 180.304 66.0647C179.733 67.1977 179.104 68.3011 178.418 69.3696C177.682 70.4977 177.102 71.0129 176.532 71.0409C176.438 71.0535 176.342 71.0462 176.251 71.0198C176.16 70.993 176.075 70.9476 176.004 70.8863C175.697 70.6429 175.574 70.1517 175.574 69.2057C175.61 67.7149 175.743 66.2281 175.97 64.754C176.23 62.8814 176.56 60.7327 176.946 58.4155C177.333 56.0984 177.772 53.6827 178.239 51.2297C178.71 48.6785 179.182 46.4546 179.569 44.4324L179.654 44.0207H182.111C182.198 44.0292 182.286 44.0174 182.367 43.9866C182.449 43.9557 182.523 43.9067 182.582 43.8426C182.702 43.7164 182.768 43.5485 182.766 43.3744C182.767 43.2008 182.702 43.0333 182.582 42.9063C182.523 42.8426 182.449 42.7931 182.367 42.7623C182.286 42.7315 182.198 42.7201 182.111 42.7286H179.932L180.055 42.1153L180.833 38.1174C180.99 37.5374 181.069 36.9392 181.068 36.3385V36.2402C181.068 36.1512 181.068 36.0249 180.681 35.9265C180.159 35.8044 179.624 35.7447 179.088 35.7487C178.365 35.7419 177.643 35.8157 176.937 35.9687C176.772 36.0061 176.645 36.0436 176.55 36.0717C176.667 36.2617 176.724 36.4815 176.715 36.7037C176.686 37.3761 176.619 38.0465 176.517 38.7119C176.385 39.6997 176.216 40.8886 176.008 42.2885L175.942 42.7286L172.976 42.7144Z" fill="#FBB03B"/>
<path d="M63.9669 62.4461L64.4386 62.638C64.7594 62.7641 64.8583 62.9751 64.7308 63.2607C62.5741 68.2726 60.4832 71.6246 58.4585 73.3158C58.1704 73.5746 57.8647 73.8139 57.5439 74.0322C57.2075 74.3214 56.8331 74.564 56.431 74.753C56.2422 74.8187 56.0771 74.8654 55.9594 74.8982L55.8649 74.9449H55.3933C55.3169 74.9449 55.2413 74.9291 55.1718 74.8982C55.0222 74.8763 54.8767 74.8354 54.7378 74.7765C54.6687 74.7465 54.6049 74.7055 54.5494 74.6548C54.4766 74.62 54.4112 74.5725 54.356 74.5145L54.2097 74.3693L54.0634 74.224C53.9903 74.1234 53.9097 74.0277 53.8231 73.9384C53.629 73.646 53.4708 73.3316 53.3515 73.0022C53.1716 72.6002 53.0266 72.1836 52.9174 71.7572C52.7241 70.9613 52.5778 70.292 52.4838 69.7488C52.4507 69.4303 52.4082 69.0839 52.3612 68.7188C52.3138 68.3537 52.2713 68.0166 52.2431 67.7124C52.2149 67.4081 52.1675 67.0666 52.1205 66.6824C52.0735 66.2986 52.031 65.9664 51.9979 65.676C51.9697 65.2642 51.8847 64.6415 51.7576 63.8034C51.6963 63.5836 51.63 63.3353 51.5638 62.9937C51.498 62.6518 51.4367 62.4319 51.3705 62.1792C51.149 61.5707 50.97 61.1399 50.8425 60.8823C50.6226 60.4665 50.3288 60.0941 49.9748 59.7821C49.8142 59.6231 49.6352 59.4641 49.4419 59.314C49.0123 59.5493 48.5603 59.742 48.0932 59.89C47.4385 60.1192 46.7572 60.264 46.0652 60.3208C45.8879 60.3233 45.7109 60.3079 45.5372 60.2738C45.3545 60.2754 45.1739 60.2421 45.0043 60.1756C44.8334 60.1509 44.6716 60.0847 44.5326 59.9837C44.3863 59.8803 44.2837 59.7269 44.2449 59.5529C44.1787 59.503 44.1264 59.4373 44.0929 59.3623C44.059 59.2868 44.0447 59.2045 44.0516 59.1221C44.072 58.8568 44.166 58.6021 44.3234 58.3862C44.4807 58.1708 44.6953 58.0025 44.943 57.9003C45.5867 57.555 46.3101 57.3822 47.0416 57.3997C47.3951 57.3997 47.8431 57.3997 48.3903 57.3526C48.5505 57.1607 48.7299 56.9502 48.9233 56.7299C49.533 55.9965 50.1113 55.2306 50.6586 54.4315C50.8519 54.1743 51.3799 53.3268 52.2525 51.8945C53.4128 49.9684 54.4431 47.9681 55.3369 45.9069C55.8032 44.911 56.2066 43.8867 56.5442 42.8405C56.5838 42.7647 56.6157 42.6848 56.6382 42.602L56.7375 42.3164C56.7657 42.2182 56.7939 42.1383 56.8082 42.0775C56.8221 42.0166 56.8507 41.9327 56.8789 41.839C56.9071 41.7452 56.9353 41.6515 56.9541 41.572C56.9623 41.4848 56.9623 41.3972 56.9541 41.31C57.0992 40.8418 57.1957 40.3603 57.2418 39.8728C57.4057 39.0837 57.4057 38.2697 57.2418 37.4806C57.165 37.069 57.0048 36.6772 56.7702 36.329L56.7232 36.2354L56.6243 36.1371C56.5814 36.0702 56.534 36.0061 56.4829 35.9452C56.4379 35.9082 56.3889 35.8768 56.3366 35.8515L56.2422 35.7064C55.663 35.2605 55.0083 34.9211 54.3086 34.7046C53.922 34.5736 53.6674 34.494 53.5399 34.4612C53.3964 34.4367 53.2517 34.4211 53.1062 34.4144C52.9955 34.3816 52.8774 34.3816 52.7666 34.4144C52.2349 34.4346 51.7187 34.5963 51.2716 34.8825C49.9875 35.7424 48.8276 36.7725 47.8243 37.9441C46.4682 39.458 45.2336 41.0747 44.1317 42.7797C43.0777 44.4384 42.1614 46.1795 41.3918 47.9855C41.1654 49.3571 40.9202 50.6819 40.7174 51.9598C39.9785 56.5259 39.4645 60.1975 39.1753 62.9751C39.0102 64.5993 38.9159 65.8962 38.8829 66.8512C38.8785 67.2511 38.8958 67.6511 38.9347 68.0495C38.9255 68.2255 38.9414 68.402 38.9819 68.5736L38.8829 68.6722C38.8648 68.673 38.847 68.6778 38.8308 68.6855C38.8146 68.6937 38.8002 68.705 38.7885 68.7188C38.7749 68.7306 38.7636 68.7448 38.7555 68.761C38.7474 68.7772 38.7426 68.7947 38.7414 68.8125V69.4352H38.5481C38.4939 69.4133 38.4443 69.3813 38.4018 69.3415C38.3299 69.3038 38.2646 69.2547 38.2085 69.1963C38.0987 69.049 38.0024 68.8924 37.9208 68.7281C37.8867 68.5951 37.8377 68.4665 37.7747 68.3444C37.7013 68.0779 37.6524 67.8053 37.6285 67.5298C37.5214 67.0398 37.4412 66.5445 37.3879 66.0459C37.2936 65.1518 37.2134 64.1499 37.1474 63.031C37.0814 61.2429 37.0971 59.2629 37.1946 57.0906C37.2952 53.7731 37.5687 50.2154 38.0152 46.4172C38.3044 43.7959 38.6581 41.2256 39.0762 38.7071L39.5478 35.786C39.604 35.4675 39.7562 35.1734 39.9844 34.9427C40.2126 34.712 40.506 34.5555 40.8259 34.494C41.1548 34.4117 41.4981 34.4008 41.8316 34.4622C42.1655 34.5236 42.4818 34.6558 42.7593 34.8497C43.0364 35.017 43.253 35.2668 43.3785 35.5636C43.504 35.8604 43.5313 36.1889 43.4574 36.5022C43.4574 36.6021 43.168 38.2141 42.5897 41.338C42.3964 42.3915 42.2031 43.4166 42.0094 44.4043C43.2285 42.2036 44.6491 40.1196 46.2541 38.1781C47.8602 36.2307 49.3728 34.8591 50.7906 34.0633C51.3476 33.6971 51.9586 33.4191 52.6015 33.2394C52.7732 33.1717 52.9518 33.1231 53.1344 33.0943L53.6061 33.0474H54.1104C54.3511 33.0474 54.5069 33.024 54.5821 33.024C55.585 32.9464 56.592 33.1069 57.5202 33.4922C57.7237 33.5449 57.9191 33.6252 58.1001 33.7309C58.2223 33.821 58.3519 33.9008 58.4871 33.9697C58.5811 34.068 58.6473 34.1148 58.6804 34.1148C58.7156 34.1508 58.7552 34.1822 58.7982 34.2084C58.8501 34.2412 58.8738 34.274 58.8738 34.3067C59.0009 34.4004 59.0716 34.4565 59.0908 34.4752L59.3074 34.6906L59.5011 34.8825C59.5538 34.9706 59.6188 35.051 59.6944 35.1213L59.8877 35.36C59.9241 35.4034 59.9556 35.4505 59.9821 35.5005C60.0071 35.5537 60.0406 35.6027 60.081 35.6456C60.1424 35.7439 60.2556 35.9311 60.4158 36.2214C60.7807 36.9273 61.0264 37.688 61.142 38.4731C61.2319 38.9943 61.2793 39.5219 61.2834 40.0507C61.3145 40.723 61.2826 41.3968 61.1894 42.0637C61.1563 42.2556 61.0901 42.574 60.9957 42.9999C60.9017 43.4259 60.8355 43.8145 60.8024 44.0064C60.4705 45.2692 60.0349 46.5028 59.5011 47.6951C58.4835 50.0025 57.1523 52.1602 55.5441 54.1086C54.8215 54.9957 54.0336 55.8281 53.1864 56.5989C52.7147 57.0155 52.2713 57.3806 51.8847 57.6991C51.937 57.7238 51.9848 57.7571 52.0261 57.7976C52.4732 58.0037 52.8941 58.2617 53.2808 58.5651C53.9494 59.0641 54.5216 59.6795 54.9691 60.3817C55.1886 60.7516 55.3823 61.1366 55.549 61.5329C55.7288 61.922 55.8862 62.3203 56.0207 62.7268C56.2385 63.513 56.3962 64.3142 56.4923 65.1234C56.6529 66.6191 56.6529 68.127 56.4923 69.6222C56.4858 69.767 56.4686 69.911 56.4404 70.053C56.4122 70.2449 56.3791 70.479 56.346 70.7504C56.3129 71.0222 56.2798 71.2513 56.2516 71.4432C56.2185 71.7945 56.1952 72.0988 56.1764 72.3515C56.1572 72.6042 56.1764 72.7543 56.1764 72.7823L56.129 72.8338L56.082 72.8805L55.9827 72.9742H55.9025L56.0959 73.0724C56.3844 73.1328 56.6836 73.1166 56.9639 73.0257C57.2774 72.9186 57.5704 72.7604 57.8316 72.5576C59.7177 70.997 61.6954 67.7732 63.7642 62.8858L63.9669 62.4461ZM47.3244 58.3777H47.0367C46.5737 58.3623 46.1127 58.4438 45.6831 58.6167C45.3312 58.7757 45.1236 58.9319 45.0607 59.0848C45.1187 59.1156 45.1837 59.1314 45.2495 59.1314C45.4923 59.1643 45.7391 59.1481 45.9757 59.0848C46.4719 58.9497 46.9321 58.7087 47.3244 58.3777Z" fill="#FBB03B"/>
<path d="M80.2699 61.5375L80.7415 61.7764C80.8069 61.7979 80.8666 61.8344 80.9152 61.8831C80.9639 61.9318 81.0002 61.991 81.0211 62.0563C81.0423 62.1217 81.0476 62.191 81.0366 62.2588C81.026 62.3261 80.999 62.3902 80.9585 62.4458C80.0868 64.0343 79.07 65.5402 77.9215 66.9445C75.406 70.1091 72.9792 71.9613 70.6398 72.5013C70.2119 72.6173 69.775 72.6972 69.3336 72.7398L68.0319 72.9321C67.7115 72.9321 67.3719 72.9321 67.0179 72.885C66.6407 72.8011 66.27 72.6883 65.91 72.5479C65.5765 72.4275 65.2667 72.2502 64.9949 72.0238C64.5302 71.6912 64.1227 71.2867 63.7876 70.8255C63.2477 70.075 62.8554 69.23 62.6322 68.3347C62.4021 67.4431 62.2881 66.5259 62.2926 65.6059C62.2959 64.6858 62.4099 63.7694 62.6322 62.8766C62.8223 61.9931 63.0953 61.1298 63.448 60.297C63.7782 59.4869 64.1992 58.7157 64.7027 57.9985C65.1592 57.3154 65.6942 56.687 66.2966 56.126L67.405 55.2177C67.6625 55.036 67.9371 54.879 68.2252 54.7496C68.5363 54.5825 68.8595 54.4384 69.1922 54.3192C69.4987 54.2117 69.8142 54.1318 70.1355 54.0802C70.6153 54.019 71.1 54.0032 71.5831 54.0336L71.7294 54.0802H71.937C72.0449 54.1143 72.1581 54.1301 72.2717 54.1273C72.4847 54.1561 72.6947 54.2048 72.8987 54.2721C73.3221 54.3812 73.7193 54.5727 74.0675 54.8356C74.4157 55.0985 74.7075 55.4274 74.9266 55.8031C75.3864 56.6351 75.5401 57.6002 75.3606 58.5324C75.0774 60.4232 74.1182 62.1496 72.6584 63.3962C70.9872 64.8907 68.8722 65.8059 66.6313 66.0034C66.5692 66.5758 66.5361 67.1506 66.5324 67.7263C66.5422 68.2264 66.6072 68.7242 66.7257 69.2102C66.7834 69.4787 66.8802 69.7375 67.0134 69.9781C67.0882 70.1355 67.1867 70.2807 67.3057 70.4089C67.4463 70.5805 67.6044 70.7375 67.7773 70.877C67.9436 71.0194 68.1222 71.148 68.3102 71.2608C68.6208 71.4385 68.9637 71.5533 69.3193 71.5979C69.6724 71.6608 70.0353 71.6433 70.3807 71.5464C71.465 71.2681 72.4765 70.7618 73.347 70.0625C74.2882 69.3651 75.1616 68.5814 75.9549 67.7218C76.722 66.8699 77.4385 65.9742 78.1005 65.0392C78.808 64.0498 79.2796 63.3476 79.5154 62.9326C79.7018 62.6308 79.8702 62.318 80.0198 61.9963L80.2699 61.5375ZM67.004 63.836C66.9096 64.2201 66.8295 64.599 66.7633 64.9832C68.2207 64.7945 69.616 64.279 70.8425 63.4757C71.8667 62.8397 72.7389 61.9898 73.3989 60.9854C73.8918 60.2033 74.2265 59.3335 74.3843 58.4245C74.5024 57.715 74.3937 56.9864 74.0733 56.3414C73.9261 56.0688 73.725 55.8286 73.4819 55.6355C73.2387 55.4425 72.9583 55.3005 72.6584 55.2177C72.3277 55.1195 71.975 55.1195 71.6444 55.2177C71.3215 55.281 71.0215 55.4299 70.7767 55.6485C70.6038 55.7881 70.4457 55.9451 70.3051 56.1167C70.1101 56.3414 69.9528 56.5333 69.8335 56.6927C69.7014 56.9126 69.5931 57.1044 69.4938 57.2635C69.2997 57.5572 69.1231 57.8618 68.9658 58.1766C68.8669 58.3685 68.6262 58.9397 68.2395 59.899C68.0793 60.3157 67.8529 60.9525 67.5652 61.8138C67.2775 62.6754 67.103 63.354 67.004 63.836Z" fill="#FBB03B"/>
<path d="M96.9317 63.1666C96.4061 63.6773 95.8241 64.1264 95.1959 64.5057C94.6413 64.859 94.061 65.1722 93.4606 65.4419C92.989 65.6525 92.2864 65.9101 91.3857 66.233C90.6451 66.5185 90.0983 66.7433 89.7444 66.9023C89.88 67.0662 90.0251 67.2228 90.1784 67.3704C90.433 67.656 90.65 67.9274 90.8527 68.1805C91.062 68.4742 91.2557 68.7789 91.4327 69.0933C91.5839 69.4519 91.713 69.8194 91.8193 70.1934C91.8851 70.4616 91.9321 70.7334 91.9607 71.008C91.9971 71.3751 91.9811 71.7451 91.9137 72.1081C91.7907 72.9097 91.4662 73.6679 90.9704 74.3129C90.5883 74.8516 90.133 75.3356 89.6172 75.7502L89.3295 76.0357L89.0888 76.2276C88.9478 76.286 88.8174 76.3664 88.7022 76.4661C88.0237 76.9408 87.2967 77.3424 86.5328 77.6649C85.9999 77.9071 85.4518 78.1147 84.8915 78.2872C84.2928 78.4389 83.6724 78.4863 83.0573 78.4279C82.5648 78.3302 82.112 78.0928 81.7527 77.7448C81.3935 77.3967 81.1438 76.9525 81.0342 76.4661C80.7077 75.4139 80.7077 74.2886 81.0342 73.2363C81.3015 72.1345 81.8483 71.1191 82.6232 70.2871C83.2841 69.6624 83.9768 69.0718 84.6982 68.5176C84.4407 68.3241 84.2834 68.2118 84.2266 68.1805C83.2882 67.5108 82.3862 66.792 81.5247 66.0269C81.0694 65.5811 80.6501 65.1004 80.27 64.59C79.8384 64.0497 79.4812 63.4546 79.209 62.8201C79.0161 62.2806 78.9017 61.7163 78.8694 61.1444C78.8375 60.9537 78.8375 60.7594 78.8694 60.5687V60.2969C78.8706 60.1984 78.8882 60.1002 78.9213 60.0069C78.9155 59.9095 78.9315 59.8118 78.9687 59.7213C78.9679 59.6244 78.9838 59.5278 79.0157 59.4357C79.0447 59.2548 79.0937 59.0771 79.162 58.9067C79.3643 58.2463 79.6561 57.6163 80.0297 57.0342C80.1188 56.93 80.1993 56.8188 80.27 56.702C80.3587 56.6123 80.4392 56.515 80.5107 56.4115C80.5765 56.3507 80.6852 56.2196 80.8503 56.0278C81.4838 55.384 82.2583 54.8939 83.1137 54.5954L83.3589 54.4968L83.5477 54.4502L83.9813 54.3049L84.4203 54.2112H84.5143C84.5592 54.1857 84.6091 54.1694 84.6606 54.1646H84.8539C84.9299 54.1281 85.0108 54.1029 85.0946 54.0895H85.2879H85.7216C85.7608 54.0972 85.8008 54.0972 85.8397 54.0895C85.8801 54.0847 85.9214 54.0847 85.9623 54.0895H86.5565C88.3581 54.1832 90.0619 55.029 91.6685 56.6269C91.7212 56.6707 91.7633 56.7259 91.7923 56.7876C91.8213 56.8496 91.8365 56.917 91.8365 56.9851C91.8365 57.0533 91.8213 57.1206 91.7923 57.1827C91.7633 57.2443 91.7212 57.2991 91.6685 57.3433C91.5716 57.4362 91.4425 57.4881 91.3076 57.4881C91.1732 57.4881 91.0436 57.4362 90.9471 57.3433C89.5322 55.9105 88.0515 55.1572 86.5091 55.0964H86.1699L85.9762 55.143H85.8303L85.4481 55.2367C85.3321 55.259 85.2185 55.2919 85.1085 55.3349L84.9626 55.4286L84.8208 55.4753L84.5286 55.6671C84.4289 55.7251 84.3328 55.7892 84.2409 55.8594L84.0945 56.0042L84.0005 56.0979C83.542 56.558 83.1668 57.0934 82.8922 57.6804C82.8586 57.7822 82.8092 57.8788 82.7458 57.966C82.7172 58.0439 82.7013 58.1262 82.6988 58.2094C82.6531 58.2828 82.6196 58.3636 82.5999 58.4479C82.4663 58.8317 82.4009 59.2357 82.4062 59.6418V60.0722C82.414 60.1229 82.4299 60.172 82.4536 60.2174V60.503C82.4867 60.503 82.5055 60.5359 82.5055 60.6012C82.5313 60.6263 82.548 60.6596 82.5525 60.6949C82.6138 60.8259 82.7127 61.0182 82.8403 61.2709C83.2866 61.8766 83.824 62.4104 84.4342 62.853C85.0129 63.3305 85.816 63.9203 86.8442 64.6225C87.7434 65.2906 88.4349 65.818 88.9192 66.205L90.9941 65.3904C91.8965 65.0407 92.5709 64.7693 93.0172 64.5758C93.5669 64.3316 94.099 64.0517 94.6111 63.7377C95.1812 63.4006 95.7154 63.0072 96.2054 62.563C96.2434 62.5058 96.2953 62.4591 96.3562 62.4271C96.4171 62.3946 96.4854 62.3776 96.554 62.3776C96.6231 62.3776 96.6914 62.3946 96.7523 62.4271C96.8127 62.4591 96.8646 62.5058 96.9031 62.563C96.9856 62.6404 97.0347 62.7463 97.04 62.8591C97.0453 62.9719 97.0065 63.0822 96.9317 63.1666ZM88.056 72.6931C88.1729 72.4051 88.2228 72.0947 88.2023 71.7848C88.1504 71.651 88.0859 71.5224 88.009 71.4011C87.9665 71.2915 87.9007 71.1926 87.8157 71.111C87.7495 71.0173 87.6551 70.8908 87.5231 70.7317L87.1414 70.348C86.9754 70.2307 86.8181 70.1021 86.6697 69.9638C86.382 69.7391 86.0093 69.4677 85.5614 69.1493C84.7767 69.6993 84.0357 70.3082 83.345 70.9703C82.6433 71.7049 82.1545 72.614 81.9301 73.6014C81.6677 74.4447 81.6677 75.3469 81.9301 76.1899C81.9992 76.4941 82.1536 76.7724 82.3756 76.9931C82.5979 77.2134 82.8783 77.3667 83.1844 77.4353C83.618 77.488 84.0574 77.4028 84.4391 77.1919C84.8535 76.9477 85.2274 76.6414 85.547 76.2836C86.0269 75.766 86.4772 75.222 86.8961 74.6545C86.964 74.5344 87.0466 74.4228 87.1414 74.3222C87.3347 74.0322 87.443 73.8541 87.4761 73.8541C87.7037 73.4878 87.8921 73.0988 88.0372 72.6931H88.056Z" fill="#FBB03B"/>
<path d="M112.876 61.5375L113.348 61.7764C113.413 61.7979 113.473 61.8344 113.521 61.8831C113.57 61.9318 113.606 61.991 113.627 62.0563C113.648 62.1216 113.654 62.191 113.643 62.2583C113.632 62.3261 113.605 62.3902 113.565 62.4458C112.689 64.0335 111.671 65.5389 110.523 66.9445C108.008 70.1091 105.58 71.9613 103.241 72.5013C102.815 72.6169 102.379 72.6968 101.94 72.7398L100.634 72.9317C100.313 72.9317 99.978 72.9317 99.624 72.885C99.2448 72.8014 98.8728 72.6891 98.5111 72.5479C98.1781 72.4274 97.8683 72.2502 97.5965 72.0238C97.1318 71.6912 96.7239 71.2867 96.3892 70.8251C95.8509 70.0738 95.459 69.2292 95.2338 68.3347C95.0033 67.4431 94.8893 66.5259 94.8942 65.6054C94.8975 64.6858 95.0115 63.7694 95.2338 62.8766C95.4271 61.9918 95.7018 61.127 96.0541 60.2925C96.3806 59.48 96.8016 58.7088 97.3088 57.9936C97.762 57.3093 98.2954 56.6809 98.8978 56.1211L100.006 55.2132C100.264 55.0319 100.539 54.8753 100.827 54.7451C101.13 54.5796 101.446 54.4356 101.77 54.3143C102.077 54.2068 102.392 54.1269 102.713 54.0758C103.193 54.0141 103.678 53.9987 104.161 54.0287L104.307 54.0758H104.501C104.609 54.1094 104.722 54.1252 104.835 54.1224C105.049 54.1508 105.259 54.1995 105.463 54.2676C105.886 54.3768 106.283 54.5682 106.631 54.8307C106.979 55.0936 107.272 55.4226 107.49 55.7982C107.952 56.6294 108.106 57.5953 107.924 58.5275C107.641 60.4183 106.682 62.1447 105.222 63.3913C103.551 64.8862 101.436 65.8014 99.1949 65.9989C99.1328 66.5709 99.0997 67.1461 99.096 67.7214C99.1062 68.2215 99.1708 68.7193 99.2893 69.2057C99.3465 69.4746 99.445 69.7338 99.5819 69.9732C99.6551 70.1306 99.7519 70.2758 99.8692 70.404C100.011 70.5744 100.169 70.7314 100.341 70.8721C100.508 71.0133 100.687 71.1419 100.874 71.2559C101.186 71.4344 101.531 71.5492 101.888 71.593C102.241 71.6563 102.604 71.6384 102.949 71.5415C104.033 71.2616 105.044 70.7557 105.915 70.0576C106.854 69.359 107.726 68.5757 108.518 67.7169C109.286 66.865 110.002 65.9693 110.664 65.0347C111.372 64.0453 111.843 63.3431 112.079 62.9281C112.265 62.6259 112.434 62.3131 112.584 61.9918L112.876 61.5375ZM99.6146 63.836C99.5157 64.2201 99.4356 64.599 99.3694 64.9832C100.827 64.7945 102.222 64.2789 103.449 63.4757C104.474 62.8409 105.347 61.9906 106.005 60.985C106.498 60.2033 106.833 59.3335 106.99 58.4244C107.108 57.7149 107 56.9864 106.679 56.3414C106.533 56.0684 106.332 55.8278 106.089 55.6347C105.846 55.4412 105.565 55.2996 105.264 55.2177C104.935 55.1195 104.584 55.1195 104.255 55.2177C103.93 55.2802 103.629 55.429 103.383 55.6485C103.21 55.788 103.052 55.945 102.911 56.1166C102.716 56.3414 102.559 56.5333 102.44 56.6923C102.312 56.9125 102.199 57.1044 102.1 57.2634C101.906 57.5571 101.729 57.8618 101.572 58.1766C101.473 58.3685 101.232 58.9396 100.846 59.899C100.685 60.3156 100.459 60.9525 100.171 61.8137C99.8836 62.675 99.709 63.354 99.6146 63.836Z" fill="#FBB03B"/>
<path d="M128.65 62.3009L129.122 62.4932C129.187 62.5078 129.247 62.5378 129.298 62.58C129.349 62.6226 129.389 62.6766 129.415 62.7374C129.44 62.7983 129.451 62.864 129.446 62.9297C129.441 62.9958 129.421 63.0595 129.386 63.1155C129.198 63.6258 128.914 64.2765 128.57 65.0582C128.226 65.8403 127.66 67.0107 126.906 68.5741C126.202 70.0426 125.395 71.4595 124.491 72.8153C123.88 73.8124 123.079 74.6821 122.133 75.3758C121.965 75.5384 121.769 75.6687 121.553 75.7599C121.434 75.8192 121.304 75.8512 121.171 75.8536C121.151 75.8707 121.128 75.8837 121.103 75.8918C121.078 75.8999 121.051 75.9027 121.025 75.9003H120.926C120.828 75.906 120.729 75.8902 120.638 75.8536C120.418 75.8248 120.214 75.7242 120.058 75.5681C119.964 75.4695 119.851 75.3433 119.723 75.1839C119.585 74.9742 119.471 74.7498 119.384 74.5146C119.278 74.1048 119.198 73.689 119.143 73.2692C119.083 72.8729 119.051 72.4721 119.049 72.0709C119.032 70.5821 119.128 69.0937 119.337 67.6191C119.37 67.2025 119.426 66.7344 119.506 66.2148C119.586 65.6951 119.667 65.1706 119.747 64.6607C119.827 64.1503 119.883 63.7244 119.917 63.3171C120.011 62.4884 120.077 61.8519 120.11 61.4024C119.839 61.559 119.581 61.7359 119.337 61.9314L118.832 62.3107C118.62 62.4742 118.403 62.6336 118.176 62.7788C117.95 62.9236 117.743 63.0968 117.549 63.2469C117.21 63.4782 116.856 63.6863 116.488 63.8692C116.057 64.0733 115.605 64.2303 115.139 64.3374C114.883 64.3694 114.624 64.3852 114.366 64.3844H113.932C113.751 64.3593 113.574 64.3122 113.404 64.2441C113.077 64.1146 112.782 63.9183 112.536 63.668C112.338 63.4587 112.178 63.2165 112.065 62.9516C111.862 62.5285 111.733 62.0742 111.683 61.6085C111.614 61.1967 111.581 60.7801 111.584 60.3631C111.614 59.5493 111.761 58.7441 112.017 57.9709C112.262 57.1612 112.673 56.4103 113.225 55.7662C113.524 55.4311 113.884 55.1548 114.286 54.9516C114.71 54.7662 115.172 54.6843 115.635 54.7127C115.9 54.6835 116.168 54.7435 116.395 54.8826C116.622 55.0214 116.796 55.2319 116.889 55.4806C117.182 56.1499 116.993 57.1422 116.337 58.4484C115.705 59.7132 114.954 60.9156 114.092 62.0389C114.093 62.0575 114.098 62.0762 114.106 62.0928C114.114 62.1099 114.125 62.1249 114.14 62.1375H114.286C114.413 62.1046 114.526 62.0717 114.621 62.0389C115.179 61.89 115.693 61.6105 116.12 61.2243L116.965 60.5083C117.332 60.1899 117.596 59.9651 117.757 59.8386C118.143 59.5205 118.483 59.263 118.771 59.0711C119.217 58.7997 119.706 58.605 120.219 58.495C120.361 58.4638 120.506 58.4484 120.652 58.4484H121.086C121.201 58.4484 121.315 58.4638 121.426 58.495C121.617 58.5612 121.796 58.6593 121.954 58.7855C122.099 58.8966 122.229 59.0256 122.34 59.1692C122.474 59.3392 122.573 59.5331 122.633 59.7404C122.731 60.0187 122.795 60.3079 122.822 60.6016C122.858 60.8247 122.875 61.0503 122.873 61.2758C122.873 61.5943 122.873 61.9922 122.822 62.4697C122.788 62.8206 122.76 63.2048 122.727 63.6214C122.661 64.197 122.567 64.9272 122.439 65.8213C122.307 66.5563 122.194 67.2772 122.1 67.9794C122.001 68.3915 121.874 69.0702 121.713 70.0113C121.553 70.9521 121.426 71.6822 121.327 72.1926C121.228 72.7029 121.213 73.0351 121.185 73.1945C121.152 73.5503 121.133 73.8497 121.133 74.1308C121.128 74.2286 121.146 74.3263 121.185 74.4164V74.5146H121.086V74.5616H121.232C121.363 74.5892 121.499 74.5726 121.619 74.5146C122.616 73.8716 123.789 72.2911 125.137 69.7724C126.377 67.4946 127.488 65.1503 128.466 62.7504L128.65 62.3009ZM113.649 61.0089C114.324 60.0532 114.92 59.0451 115.432 57.9944C115.947 56.9426 116.125 56.2404 115.964 55.8879C115.932 55.7893 115.819 55.7426 115.625 55.7426C115.348 55.7698 115.083 55.8684 114.856 56.0282C114.641 56.2144 114.447 56.4233 114.277 56.6509C113.952 57.1957 113.739 57.7985 113.649 58.4249C113.521 59.0548 113.49 59.7003 113.555 60.3396C113.554 60.5663 113.585 60.7915 113.649 61.0089Z" fill="#FBB03B"/>
<path d="M142.35 62.1086L142.76 62.3987C142.822 62.4336 142.875 62.4827 142.914 62.5415C142.952 62.6007 142.976 62.6685 142.983 62.7386C142.99 62.8088 142.98 62.8798 142.953 62.9451C142.927 63.0108 142.885 63.0688 142.831 63.1151C142.659 63.3654 142.473 63.6059 142.275 63.8359C141.846 64.281 141.372 64.6809 140.86 65.0294C140.253 65.5012 139.555 65.844 138.809 66.0362C138.524 66.1012 138.233 66.134 137.941 66.1344C137.858 66.1304 137.777 66.1129 137.7 66.0829C136.606 69.3724 135.416 71.5427 134.13 72.5946C134.106 72.623 134.077 72.6465 134.044 72.6631C134.011 72.6802 133.974 72.6903 133.937 72.6927C133.735 72.9284 133.49 73.1239 133.215 73.2688C133.051 73.3637 132.87 73.4286 132.682 73.4606C132.568 73.4663 132.455 73.4817 132.343 73.5073L132.055 73.4606C131.64 73.4168 131.242 73.2684 130.9 73.0298C130.587 72.8185 130.31 72.5593 130.079 72.2623C129.691 71.7605 129.367 71.2133 129.112 70.6332C128.873 70.1196 128.664 69.5927 128.485 69.0556C128.145 68.043 127.903 67.0005 127.764 65.9425C127.599 65.0132 127.486 64.0753 127.424 63.1337C127.33 61.7151 127.33 60.2921 127.424 58.8735L127.523 57.2448C127.585 56.9592 127.825 56.7482 128.245 56.6221C128.704 56.4923 129.183 56.4444 129.66 56.4817C130.121 56.4927 130.573 56.6063 130.985 56.814C131.338 57.0058 131.518 57.2306 131.518 57.4833C131.486 57.6009 131.468 57.7218 131.466 57.8439C131.466 57.9656 131.45 58.0865 131.419 58.2042C131.352 58.841 131.291 59.4633 131.225 60.0767C131.065 62.1833 130.985 64.0668 130.985 65.7271C130.976 66.7352 131.041 67.7429 131.178 68.742C131.252 69.5797 131.448 70.4028 131.758 71.1853C131.763 71.2352 131.779 71.2835 131.805 71.3261C131.82 71.3382 131.831 71.3532 131.839 71.3703C131.847 71.3869 131.852 71.4056 131.853 71.4242C131.897 71.4916 131.945 71.5557 131.999 71.6161L132.192 71.9017C132.253 71.9345 132.334 71.9812 132.433 72.0469C132.509 72.0757 132.591 72.0915 132.673 72.0936C132.807 72.0842 132.937 72.0526 133.06 71.9999C133.163 71.9974 133.264 71.9629 133.347 71.9017L133.447 71.808L133.494 71.855C134.622 70.9188 135.723 68.8759 136.795 65.7271C135.798 64.9592 135.3 63.399 135.3 61.0458C135.27 59.5307 135.516 58.0224 136.026 56.5937C136.634 55.0303 137.441 54.2534 138.436 54.2534C138.666 54.2498 138.892 54.3232 139.075 54.4615C139.259 54.5995 139.391 54.795 139.45 55.0165C139.681 56.2533 139.689 57.5214 139.474 58.7611C139.235 60.4726 138.888 62.1675 138.436 63.8359C138.308 64.3041 138.181 64.73 138.049 65.1795C138.247 65.1787 138.443 65.1454 138.629 65.0809C139.255 64.9166 139.838 64.6233 140.341 64.2197C140.776 63.9159 141.18 63.571 141.549 63.1897C141.73 62.9853 141.899 62.7695 142.053 62.5439L142.35 62.1086ZM137.139 64.6505C138.107 61.4576 138.606 58.8049 138.634 56.6923C138.682 56.1892 138.616 55.6822 138.44 55.2084C137.894 55.2363 137.413 55.7982 136.993 56.8841C136.52 58.2042 136.292 59.5984 136.318 60.9992C136.318 62.7309 136.592 63.9483 137.139 64.6505Z" fill="#FBB03B"/>
<path d="M159.04 61.5375L159.511 61.7764C159.577 61.7979 159.636 61.8344 159.685 61.8831C159.734 61.9318 159.77 61.991 159.791 62.0563C159.812 62.1217 159.818 62.191 159.807 62.2588C159.796 62.3261 159.769 62.3906 159.728 62.4458C158.853 64.0323 157.837 65.5381 156.691 66.9445C154.176 70.1091 151.747 71.9613 149.405 72.5013C148.979 72.6177 148.544 72.6976 148.104 72.7402L146.802 72.9321C146.476 72.9321 146.142 72.9321 145.788 72.885C145.41 72.8019 145.04 72.6891 144.68 72.5479C144.336 72.4311 144.017 72.2538 143.737 72.0238C143.274 71.69 142.869 71.2855 142.534 70.8255C141.994 70.0742 141.601 69.2296 141.374 68.3347C141.144 67.4435 141.03 66.5263 141.034 65.6059C141.038 64.6858 141.152 63.7694 141.374 62.8766C141.571 61.9935 141.848 61.1298 142.204 60.297C142.532 59.4857 142.953 58.7145 143.458 57.9985C143.912 57.3142 144.445 56.6858 145.048 56.126L146.161 55.2181C146.418 55.036 146.693 54.879 146.981 54.75C147.284 54.5833 147.6 54.4393 147.925 54.3192C148.238 54.2101 148.562 54.1301 148.891 54.0802C149.371 54.019 149.856 54.0032 150.339 54.0336L150.48 54.0802H150.693C150.803 54.1143 150.917 54.1301 151.032 54.1273C151.245 54.1569 151.455 54.2056 151.66 54.2725C152.082 54.3821 152.478 54.5739 152.826 54.8364C153.173 55.0993 153.464 55.4279 153.683 55.8031C154.145 56.6343 154.298 57.6002 154.116 58.5324C153.838 60.4236 152.88 62.1513 151.419 63.3962C149.745 64.8903 147.629 65.805 145.387 66.0038C145.326 66.5758 145.295 67.151 145.293 67.7263C145.306 68.2212 145.377 68.7132 145.505 69.1915C145.561 69.4609 145.658 69.7197 145.793 69.9594C145.866 70.1164 145.963 70.2616 146.08 70.3898C146.224 70.5594 146.381 70.7164 146.552 70.858C146.719 70.9995 146.897 71.1281 147.085 71.2421C147.397 71.4198 147.742 71.5342 148.099 71.5792C148.452 71.6421 148.815 71.6247 149.16 71.5277C150.244 71.2474 151.255 70.7415 152.126 70.0438C153.067 69.3477 153.939 68.5639 154.73 67.7031C155.498 66.8521 156.215 65.9564 156.875 65.0205C157.583 64.0311 158.054 63.3289 158.29 62.9139C158.476 62.6109 158.646 62.2981 158.799 61.9776L159.04 61.5375ZM145.774 63.8364C145.675 64.2201 145.595 64.5994 145.534 64.9832C146.989 64.7937 148.383 64.2781 149.608 63.4757C150.634 62.8425 151.507 61.9918 152.164 60.9854C152.658 60.2037 152.994 59.334 153.155 58.4245C153.269 57.7146 153.158 56.9868 152.838 56.3414C152.692 56.0684 152.491 55.8282 152.248 55.6351C152.005 55.442 151.724 55.3001 151.424 55.2181C151.093 55.1195 150.74 55.1195 150.41 55.2181C150.087 55.2802 149.786 55.4291 149.542 55.6485C149.368 55.7869 149.21 55.9438 149.07 56.1167C148.879 56.3414 148.721 56.5333 148.599 56.6927L148.264 57.2639C148.068 57.5572 147.89 57.8618 147.731 58.1766C147.637 58.3685 147.392 58.9396 147.009 59.8994C146.844 60.3161 146.623 60.9525 146.331 61.8138C146.038 62.6754 145.868 63.354 145.774 63.8364Z" fill="#FBB03B"/>
<path d="M20.6321 68.4942L19.769 67.1129C19.0664 65.9803 2.45215 39.2313 2.45215 29.6393C2.45334 26.0657 3.52171 22.5726 5.52223 19.6015C7.52275 16.6304 10.3657 14.3147 13.6916 12.947C17.0177 11.5792 20.6774 11.2209 24.2085 11.9173C27.7396 12.6137 30.9834 14.3335 33.5301 16.8594L32.0541 18.3246C29.7997 16.0867 26.9275 14.5626 23.8006 13.9451C20.6737 13.3277 17.4325 13.6445 14.487 14.8557C11.5415 16.0668 9.02397 18.1178 7.25281 20.7493C5.48165 23.3808 4.53637 26.4745 4.53658 29.6393C4.53658 37.4571 17.213 58.9019 20.6792 64.6132C23.4805 60.2037 32.0682 46.2814 35.0675 36.7034L37.0388 37.3167C33.3792 49.0622 22.0138 66.3827 21.5281 67.1364L20.6321 68.4942Z" fill="#FBB03B"/>
<g opacity="0.91">
<path opacity="0.91" d="M21.6889 41.9096C19.2379 41.9096 16.8308 41.2634 14.7141 40.0366C12.5974 38.8098 10.8471 37.0468 9.64238 34.9279C8.43767 32.809 7.82177 30.4105 7.85777 27.9777C7.89374 25.5449 8.58035 23.1653 9.84722 21.0825C8.65837 22.5489 7.78605 24.2425 7.28454 26.0578C6.78303 27.8731 6.66307 29.7715 6.93208 31.6348C7.20108 33.4981 7.85332 35.2866 8.84825 36.8891C9.84314 38.4915 11.1595 39.8737 12.7154 40.9498C14.2714 42.0256 16.0336 42.7724 17.8927 43.1436C19.7517 43.5148 21.6679 43.5026 23.5219 43.1075C25.3759 42.7124 27.1283 41.9429 28.67 40.8468C30.2117 39.7509 31.5099 38.3519 32.4837 36.7367C31.1883 38.3468 29.5436 39.646 27.6721 40.5376C25.8006 41.4293 23.7506 41.8901 21.6748 41.8861" fill="white"/>
<path opacity="0.91" d="M20.656 43.6276C16.92 43.6235 13.338 42.1489 10.6962 39.5264C8.05437 36.904 6.56856 33.3483 6.5648 29.6397C6.55282 26.4688 7.63832 23.39 9.63962 20.9185L10.0687 21.2134C8.29431 24.142 7.70739 27.6306 8.42677 30.9726C9.1462 34.3147 11.1182 37.2604 13.9435 39.2135C16.7687 41.1664 20.2361 41.9806 23.6434 41.4914C27.0507 41.0017 30.1433 39.2453 32.2949 36.5773L32.7241 36.8723C31.4756 38.9406 29.7066 40.6508 27.5907 41.8354C25.4749 43.0199 23.085 43.6373 20.656 43.6276ZM8.05976 24.6026C6.91758 27.4295 6.77298 30.5568 7.64939 33.4756C8.52584 36.3944 10.3718 38.9328 12.8866 40.6776C15.4015 42.4223 18.4373 43.2706 21.4998 43.0848C24.5624 42.8986 27.4712 41.6893 29.753 39.653C27.6395 41.1157 25.1627 41.9757 22.5916 42.1392C20.0204 42.3031 17.4533 41.7644 15.1688 40.5819C12.8843 39.3992 10.9699 37.6179 9.63349 35.4314C8.29705 33.2449 7.58968 30.7367 7.58817 28.1791C7.59062 26.9718 7.74911 25.7699 8.05976 24.6026Z" fill="#FBB03B"/>
</g>
<g opacity="0.91">
<path opacity="0.91" d="M14.6196 31.2728C14.6196 31.2728 16.7607 24.6254 22.9951 24.6254C22.9951 24.6254 25.0748 30.8187 27.8478 31.5069C27.8478 31.5069 37.5532 11.2088 50.3758 8.45154C50.3758 8.45154 46.2165 16.0212 48.9895 20.4965C45.3444 20.4753 41.7826 21.576 38.7935 23.647C34.2096 26.7975 29.7295 33.576 29.2343 37.0121C29.2343 37.0121 21.2078 31.2728 14.6196 31.2728Z" fill="#F2F2F2"/>
<path opacity="0.91" d="M29.63 37.93L28.9274 37.4291C28.8519 37.3589 20.9574 31.7741 14.6192 31.7741H13.9307L14.1476 31.1C14.1712 31.0298 16.4773 24.1061 23.0183 24.1061H23.3625L23.4805 24.4619C23.9992 26.0021 25.6828 29.9484 27.5739 30.8613C29.0877 27.8372 38.213 10.5351 50.2576 7.94631L51.3705 7.70758L50.8233 8.70003C50.7857 8.77491 46.843 16.0637 49.4088 20.2254L49.9368 21.0727L48.9322 21.0118C45.406 21.0085 41.9632 22.0769 39.0666 24.0734C34.6006 27.1443 30.2006 33.7964 29.729 37.0827L29.63 37.93ZM15.369 30.7629C20.8395 31.086 26.9042 34.8263 28.8849 36.1418C29.8611 32.4669 34.0347 26.311 38.4959 23.2214C41.3383 21.2661 44.6765 20.1421 48.1308 19.9772C46.5271 16.3118 48.4279 11.359 49.4088 9.21027C37.5103 12.7681 28.4133 31.5354 28.319 31.7414L28.1351 32.1252L27.7201 32.0222C25.065 31.3481 23.1551 26.5919 22.6269 25.1501C18.175 25.3514 16.0529 29.19 15.369 30.7629Z" fill="#FBB03B"/>
</g>
</svg>
