<svg width="216" height="216" viewBox="0 0 216 216" fill="none" xmlns="http://www.w3.org/2000/svg">
<rect width="216" height="216" rx="38" fill="#FF0000"/>
<path d="M87.9 81.05H51.75C51.75 68.35 57.5 62 69 62H145.95C145.95 74.7 140.2 81.05 128.7 81.05H109.95V152.45C109.95 157.65 108.05 161.6 104.25 164.3C100.55 167 95.1 168.35 87.9 168.35V81.05ZM163.466 168.35C160.066 168.35 157.166 167.25 154.766 165.05C152.366 162.75 151.166 159.85 151.166 156.35C151.166 152.85 152.366 149.95 154.766 147.65C157.166 145.35 160.066 144.2 163.466 144.2C166.866 144.2 169.766 145.35 172.166 147.65C174.666 149.95 175.916 152.85 175.916 156.35C175.916 159.85 174.666 162.75 172.166 165.05C169.766 167.25 166.866 168.35 163.466 168.35Z" fill="#290101"/>
</svg>
